%FSLAX45Y45*%
G04 Gerber Fmt 4.5, Leading zero omitted, Abs format (unit mm)*
G04 Created by KiCad (PCBNEW (6.0.0)) date 2022-05-25 15:38:06*
%MOMM*%
%LPD*%
G01*
G04 APERTURE LIST*
%TA.AperFunction,Profile*%
%ADD10C,0.100000*%
%TD*%
%ADD11C,0.200000*%
%ADD12C,0.270000*%
G04 APERTURE END LIST*
D10*
X8417000Y-8097000D02*
X8440000Y-12797000D01*
X16448000Y-4789000D02*
X11747000Y-4775000D01*
X8417000Y-8097000D02*
X8440000Y-12797000D01*
X8440000Y-12797000D02*
X11762000Y-16127000D01*
X19770000Y-8119000D02*
X16448000Y-4789000D01*
X16448000Y-4789000D02*
X11747000Y-4775000D01*
X11762000Y-16127000D02*
X16450000Y-16134000D01*
X11747000Y-4775000D02*
X11747000Y-4775000D01*
X11762000Y-16127000D02*
X16450000Y-16134000D01*
X19780000Y-12812000D02*
X19770000Y-8119000D01*
X16450000Y-16134000D02*
X19780000Y-12812000D01*
X8440000Y-12797000D02*
X8440000Y-12797000D01*
X19780000Y-12812000D02*
X19770000Y-8111000D01*
X11747000Y-4775000D02*
X8417000Y-8097000D01*
D11*
D12*
X10465000Y-9565000D02*
X10735000Y-9835000D01*
X10735000Y-9565000D02*
X10465000Y-9835000D01*
D11*
X8669619Y-16449476D02*
X8669619Y-16249476D01*
X8717238Y-16249476D01*
X8745810Y-16259000D01*
X8764857Y-16278048D01*
X8774381Y-16297095D01*
X8783905Y-16335190D01*
X8783905Y-16363762D01*
X8774381Y-16401857D01*
X8764857Y-16420905D01*
X8745810Y-16439952D01*
X8717238Y-16449476D01*
X8669619Y-16449476D01*
X8869619Y-16449476D02*
X8869619Y-16316143D01*
X8869619Y-16354238D02*
X8879143Y-16335190D01*
X8888667Y-16325667D01*
X8907714Y-16316143D01*
X8926762Y-16316143D01*
X8993429Y-16449476D02*
X8993429Y-16316143D01*
X8993429Y-16249476D02*
X8983905Y-16259000D01*
X8993429Y-16268524D01*
X9002952Y-16259000D01*
X8993429Y-16249476D01*
X8993429Y-16268524D01*
X9117238Y-16449476D02*
X9098190Y-16439952D01*
X9088667Y-16420905D01*
X9088667Y-16249476D01*
X9222000Y-16449476D02*
X9202952Y-16439952D01*
X9193429Y-16420905D01*
X9193429Y-16249476D01*
X9450571Y-16449476D02*
X9450571Y-16249476D01*
X9517238Y-16392333D01*
X9583905Y-16249476D01*
X9583905Y-16449476D01*
X9764857Y-16449476D02*
X9764857Y-16344714D01*
X9755333Y-16325667D01*
X9736286Y-16316143D01*
X9698190Y-16316143D01*
X9679143Y-16325667D01*
X9764857Y-16439952D02*
X9745810Y-16449476D01*
X9698190Y-16449476D01*
X9679143Y-16439952D01*
X9669619Y-16420905D01*
X9669619Y-16401857D01*
X9679143Y-16382809D01*
X9698190Y-16373286D01*
X9745810Y-16373286D01*
X9764857Y-16363762D01*
X9860095Y-16316143D02*
X9860095Y-16516143D01*
X9860095Y-16325667D02*
X9879143Y-16316143D01*
X9917238Y-16316143D01*
X9936286Y-16325667D01*
X9945810Y-16335190D01*
X9955333Y-16354238D01*
X9955333Y-16411381D01*
X9945810Y-16430428D01*
X9936286Y-16439952D01*
X9917238Y-16449476D01*
X9879143Y-16449476D01*
X9860095Y-16439952D01*
X10041048Y-16430428D02*
X10050571Y-16439952D01*
X10041048Y-16449476D01*
X10031524Y-16439952D01*
X10041048Y-16430428D01*
X10041048Y-16449476D01*
X10041048Y-16325667D02*
X10050571Y-16335190D01*
X10041048Y-16344714D01*
X10031524Y-16335190D01*
X10041048Y-16325667D01*
X10041048Y-16344714D01*
X8212000Y-16679000D02*
X8412000Y-16879000D01*
X8412000Y-16679000D02*
X8212000Y-16879000D01*
X8660095Y-16688524D02*
X8669619Y-16679000D01*
X8688667Y-16669476D01*
X8736286Y-16669476D01*
X8755333Y-16679000D01*
X8764857Y-16688524D01*
X8774381Y-16707571D01*
X8774381Y-16726619D01*
X8764857Y-16755190D01*
X8650571Y-16869476D01*
X8774381Y-16869476D01*
X8860095Y-16850429D02*
X8869619Y-16859952D01*
X8860095Y-16869476D01*
X8850571Y-16859952D01*
X8860095Y-16850429D01*
X8860095Y-16869476D01*
X8936286Y-16669476D02*
X9069619Y-16669476D01*
X8983905Y-16869476D01*
X9183905Y-16669476D02*
X9202952Y-16669476D01*
X9222000Y-16679000D01*
X9231524Y-16688524D01*
X9241048Y-16707571D01*
X9250571Y-16745667D01*
X9250571Y-16793286D01*
X9241048Y-16831381D01*
X9231524Y-16850429D01*
X9222000Y-16859952D01*
X9202952Y-16869476D01*
X9183905Y-16869476D01*
X9164857Y-16859952D01*
X9155333Y-16850429D01*
X9145810Y-16831381D01*
X9136286Y-16793286D01*
X9136286Y-16745667D01*
X9145810Y-16707571D01*
X9155333Y-16688524D01*
X9164857Y-16679000D01*
X9183905Y-16669476D01*
X9374381Y-16669476D02*
X9393429Y-16669476D01*
X9412476Y-16679000D01*
X9422000Y-16688524D01*
X9431524Y-16707571D01*
X9441048Y-16745667D01*
X9441048Y-16793286D01*
X9431524Y-16831381D01*
X9422000Y-16850429D01*
X9412476Y-16859952D01*
X9393429Y-16869476D01*
X9374381Y-16869476D01*
X9355333Y-16859952D01*
X9345810Y-16850429D01*
X9336286Y-16831381D01*
X9326762Y-16793286D01*
X9326762Y-16745667D01*
X9336286Y-16707571D01*
X9345810Y-16688524D01*
X9355333Y-16679000D01*
X9374381Y-16669476D01*
X9526762Y-16869476D02*
X9526762Y-16736143D01*
X9526762Y-16755190D02*
X9536286Y-16745667D01*
X9555333Y-16736143D01*
X9583905Y-16736143D01*
X9602952Y-16745667D01*
X9612476Y-16764714D01*
X9612476Y-16869476D01*
X9612476Y-16764714D02*
X9622000Y-16745667D01*
X9641048Y-16736143D01*
X9669619Y-16736143D01*
X9688667Y-16745667D01*
X9698190Y-16764714D01*
X9698190Y-16869476D01*
X9793429Y-16869476D02*
X9793429Y-16736143D01*
X9793429Y-16755190D02*
X9802952Y-16745667D01*
X9822000Y-16736143D01*
X9850571Y-16736143D01*
X9869619Y-16745667D01*
X9879143Y-16764714D01*
X9879143Y-16869476D01*
X9879143Y-16764714D02*
X9888667Y-16745667D01*
X9907714Y-16736143D01*
X9936286Y-16736143D01*
X9955333Y-16745667D01*
X9964857Y-16764714D01*
X9964857Y-16869476D01*
X10355333Y-16659952D02*
X10183905Y-16917095D01*
X10612476Y-16669476D02*
X10631524Y-16669476D01*
X10650571Y-16679000D01*
X10660095Y-16688524D01*
X10669619Y-16707571D01*
X10679143Y-16745667D01*
X10679143Y-16793286D01*
X10669619Y-16831381D01*
X10660095Y-16850429D01*
X10650571Y-16859952D01*
X10631524Y-16869476D01*
X10612476Y-16869476D01*
X10593429Y-16859952D01*
X10583905Y-16850429D01*
X10574381Y-16831381D01*
X10564857Y-16793286D01*
X10564857Y-16745667D01*
X10574381Y-16707571D01*
X10583905Y-16688524D01*
X10593429Y-16679000D01*
X10612476Y-16669476D01*
X10764857Y-16850429D02*
X10774381Y-16859952D01*
X10764857Y-16869476D01*
X10755333Y-16859952D01*
X10764857Y-16850429D01*
X10764857Y-16869476D01*
X10964857Y-16869476D02*
X10850571Y-16869476D01*
X10907714Y-16869476D02*
X10907714Y-16669476D01*
X10888667Y-16698048D01*
X10869619Y-16717095D01*
X10850571Y-16726619D01*
X11088667Y-16669476D02*
X11107714Y-16669476D01*
X11126762Y-16679000D01*
X11136286Y-16688524D01*
X11145810Y-16707571D01*
X11155333Y-16745667D01*
X11155333Y-16793286D01*
X11145810Y-16831381D01*
X11136286Y-16850429D01*
X11126762Y-16859952D01*
X11107714Y-16869476D01*
X11088667Y-16869476D01*
X11069619Y-16859952D01*
X11060095Y-16850429D01*
X11050571Y-16831381D01*
X11041048Y-16793286D01*
X11041048Y-16745667D01*
X11050571Y-16707571D01*
X11060095Y-16688524D01*
X11069619Y-16679000D01*
X11088667Y-16669476D01*
X11326762Y-16669476D02*
X11288667Y-16669476D01*
X11269619Y-16679000D01*
X11260095Y-16688524D01*
X11241048Y-16717095D01*
X11231524Y-16755190D01*
X11231524Y-16831381D01*
X11241048Y-16850429D01*
X11250571Y-16859952D01*
X11269619Y-16869476D01*
X11307714Y-16869476D01*
X11326762Y-16859952D01*
X11336286Y-16850429D01*
X11345809Y-16831381D01*
X11345809Y-16783762D01*
X11336286Y-16764714D01*
X11326762Y-16755190D01*
X11307714Y-16745667D01*
X11269619Y-16745667D01*
X11250571Y-16755190D01*
X11241048Y-16764714D01*
X11231524Y-16783762D01*
X11412476Y-16669476D02*
X11536286Y-16669476D01*
X11469619Y-16745667D01*
X11498190Y-16745667D01*
X11517238Y-16755190D01*
X11526762Y-16764714D01*
X11536286Y-16783762D01*
X11536286Y-16831381D01*
X11526762Y-16850429D01*
X11517238Y-16859952D01*
X11498190Y-16869476D01*
X11441048Y-16869476D01*
X11422000Y-16859952D01*
X11412476Y-16850429D01*
X11612476Y-16669476D02*
X11612476Y-16707571D01*
X11688667Y-16669476D02*
X11688667Y-16707571D01*
X11983905Y-16945667D02*
X11974381Y-16936143D01*
X11955333Y-16907571D01*
X11945809Y-16888524D01*
X11936286Y-16859952D01*
X11926762Y-16812333D01*
X11926762Y-16774238D01*
X11936286Y-16726619D01*
X11945809Y-16698048D01*
X11955333Y-16679000D01*
X11974381Y-16650428D01*
X11983905Y-16640905D01*
X12164857Y-16869476D02*
X12050571Y-16869476D01*
X12107714Y-16869476D02*
X12107714Y-16669476D01*
X12088667Y-16698048D01*
X12069619Y-16717095D01*
X12050571Y-16726619D01*
X12402952Y-16869476D02*
X12402952Y-16669476D01*
X12488667Y-16869476D02*
X12488667Y-16764714D01*
X12479143Y-16745667D01*
X12460095Y-16736143D01*
X12431524Y-16736143D01*
X12412476Y-16745667D01*
X12402952Y-16755190D01*
X12612476Y-16869476D02*
X12593428Y-16859952D01*
X12583905Y-16850429D01*
X12574381Y-16831381D01*
X12574381Y-16774238D01*
X12583905Y-16755190D01*
X12593428Y-16745667D01*
X12612476Y-16736143D01*
X12641048Y-16736143D01*
X12660095Y-16745667D01*
X12669619Y-16755190D01*
X12679143Y-16774238D01*
X12679143Y-16831381D01*
X12669619Y-16850429D01*
X12660095Y-16859952D01*
X12641048Y-16869476D01*
X12612476Y-16869476D01*
X12793428Y-16869476D02*
X12774381Y-16859952D01*
X12764857Y-16840905D01*
X12764857Y-16669476D01*
X12945809Y-16859952D02*
X12926762Y-16869476D01*
X12888667Y-16869476D01*
X12869619Y-16859952D01*
X12860095Y-16840905D01*
X12860095Y-16764714D01*
X12869619Y-16745667D01*
X12888667Y-16736143D01*
X12926762Y-16736143D01*
X12945809Y-16745667D01*
X12955333Y-16764714D01*
X12955333Y-16783762D01*
X12860095Y-16802810D01*
X13022000Y-16945667D02*
X13031524Y-16936143D01*
X13050571Y-16907571D01*
X13060095Y-16888524D01*
X13069619Y-16859952D01*
X13079143Y-16812333D01*
X13079143Y-16774238D01*
X13069619Y-16726619D01*
X13060095Y-16698048D01*
X13050571Y-16679000D01*
X13031524Y-16650428D01*
X13022000Y-16640905D01*
X13383905Y-16945667D02*
X13374381Y-16936143D01*
X13355333Y-16907571D01*
X13345809Y-16888524D01*
X13336286Y-16859952D01*
X13326762Y-16812333D01*
X13326762Y-16774238D01*
X13336286Y-16726619D01*
X13345809Y-16698048D01*
X13355333Y-16679000D01*
X13374381Y-16650428D01*
X13383905Y-16640905D01*
X13460095Y-16736143D02*
X13460095Y-16869476D01*
X13460095Y-16755190D02*
X13469619Y-16745667D01*
X13488667Y-16736143D01*
X13517238Y-16736143D01*
X13536286Y-16745667D01*
X13545809Y-16764714D01*
X13545809Y-16869476D01*
X13669619Y-16869476D02*
X13650571Y-16859952D01*
X13641048Y-16850429D01*
X13631524Y-16831381D01*
X13631524Y-16774238D01*
X13641048Y-16755190D01*
X13650571Y-16745667D01*
X13669619Y-16736143D01*
X13698190Y-16736143D01*
X13717238Y-16745667D01*
X13726762Y-16755190D01*
X13736286Y-16774238D01*
X13736286Y-16831381D01*
X13726762Y-16850429D01*
X13717238Y-16859952D01*
X13698190Y-16869476D01*
X13669619Y-16869476D01*
X13793428Y-16736143D02*
X13869619Y-16736143D01*
X13822000Y-16669476D02*
X13822000Y-16840905D01*
X13831524Y-16859952D01*
X13850571Y-16869476D01*
X13869619Y-16869476D01*
X14088667Y-16736143D02*
X14088667Y-16936143D01*
X14088667Y-16745667D02*
X14107714Y-16736143D01*
X14145809Y-16736143D01*
X14164857Y-16745667D01*
X14174381Y-16755190D01*
X14183905Y-16774238D01*
X14183905Y-16831381D01*
X14174381Y-16850429D01*
X14164857Y-16859952D01*
X14145809Y-16869476D01*
X14107714Y-16869476D01*
X14088667Y-16859952D01*
X14298190Y-16869476D02*
X14279143Y-16859952D01*
X14269619Y-16840905D01*
X14269619Y-16669476D01*
X14460095Y-16869476D02*
X14460095Y-16764714D01*
X14450571Y-16745667D01*
X14431524Y-16736143D01*
X14393428Y-16736143D01*
X14374381Y-16745667D01*
X14460095Y-16859952D02*
X14441048Y-16869476D01*
X14393428Y-16869476D01*
X14374381Y-16859952D01*
X14364857Y-16840905D01*
X14364857Y-16821857D01*
X14374381Y-16802810D01*
X14393428Y-16793286D01*
X14441048Y-16793286D01*
X14460095Y-16783762D01*
X14526762Y-16736143D02*
X14602952Y-16736143D01*
X14555333Y-16669476D02*
X14555333Y-16840905D01*
X14564857Y-16859952D01*
X14583905Y-16869476D01*
X14602952Y-16869476D01*
X14745809Y-16859952D02*
X14726762Y-16869476D01*
X14688667Y-16869476D01*
X14669619Y-16859952D01*
X14660095Y-16840905D01*
X14660095Y-16764714D01*
X14669619Y-16745667D01*
X14688667Y-16736143D01*
X14726762Y-16736143D01*
X14745809Y-16745667D01*
X14755333Y-16764714D01*
X14755333Y-16783762D01*
X14660095Y-16802810D01*
X14926762Y-16869476D02*
X14926762Y-16669476D01*
X14926762Y-16859952D02*
X14907714Y-16869476D01*
X14869619Y-16869476D01*
X14850571Y-16859952D01*
X14841048Y-16850429D01*
X14831524Y-16831381D01*
X14831524Y-16774238D01*
X14841048Y-16755190D01*
X14850571Y-16745667D01*
X14869619Y-16736143D01*
X14907714Y-16736143D01*
X14926762Y-16745667D01*
X15002952Y-16945667D02*
X15012476Y-16936143D01*
X15031524Y-16907571D01*
X15041048Y-16888524D01*
X15050571Y-16859952D01*
X15060095Y-16812333D01*
X15060095Y-16774238D01*
X15050571Y-16726619D01*
X15041048Y-16698048D01*
X15031524Y-16679000D01*
X15012476Y-16650428D01*
X15002952Y-16640905D01*
M02*
