G04 #@! TF.GenerationSoftware,KiCad,Pcbnew,(6.0.0)*
G04 #@! TF.CreationDate,2022-05-25T15:36:49+02:00*
G04 #@! TF.ProjectId,CarteUE441_v2,43617274-6555-4453-9434-315f76322e6b,rev?*
G04 #@! TF.SameCoordinates,Original*
G04 #@! TF.FileFunction,Copper,L1,Top*
G04 #@! TF.FilePolarity,Positive*
%FSLAX46Y46*%
G04 Gerber Fmt 4.6, Leading zero omitted, Abs format (unit mm)*
G04 Created by KiCad (PCBNEW (6.0.0)) date 2022-05-25 15:36:50*
%MOMM*%
%LPD*%
G01*
G04 APERTURE LIST*
G04 Aperture macros list*
%AMRoundRect*
0 Rectangle with rounded corners*
0 $1 Rounding radius*
0 $2 $3 $4 $5 $6 $7 $8 $9 X,Y pos of 4 corners*
0 Add a 4 corners polygon primitive as box body*
4,1,4,$2,$3,$4,$5,$6,$7,$8,$9,$2,$3,0*
0 Add four circle primitives for the rounded corners*
1,1,$1+$1,$2,$3*
1,1,$1+$1,$4,$5*
1,1,$1+$1,$6,$7*
1,1,$1+$1,$8,$9*
0 Add four rect primitives between the rounded corners*
20,1,$1+$1,$2,$3,$4,$5,0*
20,1,$1+$1,$4,$5,$6,$7,0*
20,1,$1+$1,$6,$7,$8,$9,0*
20,1,$1+$1,$8,$9,$2,$3,0*%
G04 Aperture macros list end*
G04 #@! TA.AperFunction,ComponentPad*
%ADD10O,2.641600X1.320800*%
G04 #@! TD*
G04 #@! TA.AperFunction,ComponentPad*
%ADD11R,1.905000X2.000000*%
G04 #@! TD*
G04 #@! TA.AperFunction,ComponentPad*
%ADD12O,1.905000X2.000000*%
G04 #@! TD*
G04 #@! TA.AperFunction,ComponentPad*
%ADD13O,2.416000X1.208000*%
G04 #@! TD*
G04 #@! TA.AperFunction,ComponentPad*
%ADD14C,5.400000*%
G04 #@! TD*
G04 #@! TA.AperFunction,ComponentPad*
%ADD15R,1.600000X1.600000*%
G04 #@! TD*
G04 #@! TA.AperFunction,ComponentPad*
%ADD16O,1.600000X1.600000*%
G04 #@! TD*
G04 #@! TA.AperFunction,ComponentPad*
%ADD17C,3.000000*%
G04 #@! TD*
G04 #@! TA.AperFunction,ComponentPad*
%ADD18RoundRect,1.500000X-1.500000X1.500000X-1.500000X-1.500000X1.500000X-1.500000X1.500000X1.500000X0*%
G04 #@! TD*
G04 #@! TA.AperFunction,ComponentPad*
%ADD19C,6.000000*%
G04 #@! TD*
G04 #@! TA.AperFunction,ComponentPad*
%ADD20RoundRect,0.250000X0.675000X-0.600000X0.675000X0.600000X-0.675000X0.600000X-0.675000X-0.600000X0*%
G04 #@! TD*
G04 #@! TA.AperFunction,ComponentPad*
%ADD21O,1.850000X1.700000*%
G04 #@! TD*
G04 APERTURE END LIST*
D10*
X189000000Y-86650000D03*
X189000000Y-89190000D03*
X189000000Y-91730000D03*
X189000000Y-94270000D03*
X189000000Y-96810000D03*
X189000000Y-99350000D03*
D11*
X138460000Y-55000000D03*
D12*
X141000000Y-55000000D03*
X143540000Y-55000000D03*
D13*
X124380000Y-104870000D03*
X132000000Y-101060000D03*
X132000000Y-103600000D03*
X132000000Y-106140000D03*
X132000000Y-108680000D03*
X132000000Y-111220000D03*
X132000000Y-113760000D03*
X132000000Y-116300000D03*
X132000000Y-118840000D03*
X132000000Y-121380000D03*
X132000000Y-123920000D03*
X132000000Y-126460000D03*
X132000000Y-129000000D03*
X149780000Y-129000000D03*
X149780000Y-126460000D03*
X149780000Y-123920000D03*
X149780000Y-121380000D03*
X149780000Y-118840000D03*
X149780000Y-116300000D03*
X149780000Y-113760000D03*
X149780000Y-111220000D03*
X149780000Y-108680000D03*
X149780000Y-106140000D03*
X149780000Y-103600000D03*
X149780000Y-101060000D03*
D14*
X141000000Y-75000000D03*
D15*
X99767500Y-78000000D03*
D16*
X92147500Y-78000000D03*
D14*
X176000000Y-115000000D03*
X106000000Y-115700000D03*
D17*
X106000000Y-108250000D03*
X106000000Y-85750000D03*
D18*
X92000000Y-87400000D03*
D19*
X92000000Y-94600000D03*
D20*
X92000000Y-120500000D03*
D21*
X92000000Y-118000000D03*
X92000000Y-115500000D03*
D20*
X191350000Y-120500000D03*
D21*
X191350000Y-118000000D03*
X191350000Y-115500000D03*
G04 #@! TA.AperFunction,Conductor*
G36*
X164165717Y-48397066D02*
G01*
X164260948Y-48416304D01*
X164341256Y-48470207D01*
X197075995Y-81283777D01*
X197119949Y-81327837D01*
X197173828Y-81408684D01*
X197192667Y-81503163D01*
X197248489Y-107700620D01*
X197291330Y-127806044D01*
X197272580Y-127901373D01*
X197218189Y-127982855D01*
X164363298Y-160758815D01*
X164282453Y-160812693D01*
X164187070Y-160831533D01*
X117934188Y-160762469D01*
X117838928Y-160743372D01*
X117758279Y-160689327D01*
X87183560Y-130040977D01*
X86090622Y-128945407D01*
X130279774Y-128945407D01*
X130289589Y-129157466D01*
X130339326Y-129363842D01*
X130344229Y-129374627D01*
X130344231Y-129374631D01*
X130390085Y-129475480D01*
X130427191Y-129557090D01*
X130550013Y-129730237D01*
X130558574Y-129738432D01*
X130694805Y-129868846D01*
X130694809Y-129868849D01*
X130703360Y-129877035D01*
X130881699Y-129992187D01*
X130892685Y-129996615D01*
X130892688Y-129996616D01*
X131067605Y-130067110D01*
X131067610Y-130067111D01*
X131078596Y-130071539D01*
X131286945Y-130112226D01*
X131292547Y-130112500D01*
X132657036Y-130112500D01*
X132815326Y-130097398D01*
X132895730Y-130073810D01*
X133007649Y-130040977D01*
X133007652Y-130040976D01*
X133019026Y-130037639D01*
X133029560Y-130032214D01*
X133029564Y-130032212D01*
X133197218Y-129945864D01*
X133197219Y-129945863D01*
X133207751Y-129940439D01*
X133374691Y-129809306D01*
X133382455Y-129800359D01*
X133382460Y-129800354D01*
X133506051Y-129657927D01*
X133506053Y-129657924D01*
X133513823Y-129648970D01*
X133519759Y-129638709D01*
X133519762Y-129638705D01*
X133614190Y-129475480D01*
X133614191Y-129475479D01*
X133620126Y-129465219D01*
X133689764Y-129264681D01*
X133720226Y-129054593D01*
X133715172Y-128945407D01*
X148059774Y-128945407D01*
X148069589Y-129157466D01*
X148119326Y-129363842D01*
X148124229Y-129374627D01*
X148124231Y-129374631D01*
X148170085Y-129475480D01*
X148207191Y-129557090D01*
X148330013Y-129730237D01*
X148338574Y-129738432D01*
X148474805Y-129868846D01*
X148474809Y-129868849D01*
X148483360Y-129877035D01*
X148661699Y-129992187D01*
X148672685Y-129996615D01*
X148672688Y-129996616D01*
X148847605Y-130067110D01*
X148847610Y-130067111D01*
X148858596Y-130071539D01*
X149066945Y-130112226D01*
X149072547Y-130112500D01*
X150437036Y-130112500D01*
X150595326Y-130097398D01*
X150675730Y-130073810D01*
X150787649Y-130040977D01*
X150787652Y-130040976D01*
X150799026Y-130037639D01*
X150809560Y-130032214D01*
X150809564Y-130032212D01*
X150977218Y-129945864D01*
X150977219Y-129945863D01*
X150987751Y-129940439D01*
X151154691Y-129809306D01*
X151162455Y-129800359D01*
X151162460Y-129800354D01*
X151286051Y-129657927D01*
X151286053Y-129657924D01*
X151293823Y-129648970D01*
X151299759Y-129638709D01*
X151299762Y-129638705D01*
X151394190Y-129475480D01*
X151394191Y-129475479D01*
X151400126Y-129465219D01*
X151469764Y-129264681D01*
X151500226Y-129054593D01*
X151490411Y-128842534D01*
X151440674Y-128636158D01*
X151394581Y-128534781D01*
X151357714Y-128453697D01*
X151357712Y-128453693D01*
X151352809Y-128442910D01*
X151294915Y-128361295D01*
X151236844Y-128279429D01*
X151236842Y-128279426D01*
X151229987Y-128269763D01*
X151133883Y-128177763D01*
X151085195Y-128131154D01*
X151085191Y-128131151D01*
X151076640Y-128122965D01*
X150898301Y-128007813D01*
X150787225Y-127963048D01*
X150705929Y-127909850D01*
X150651180Y-127829591D01*
X150631311Y-127734489D01*
X150649350Y-127639023D01*
X150702548Y-127557727D01*
X150787778Y-127500939D01*
X150799026Y-127497639D01*
X150987751Y-127400439D01*
X151154691Y-127269306D01*
X151162455Y-127260359D01*
X151162460Y-127260354D01*
X151286051Y-127117927D01*
X151286053Y-127117924D01*
X151293823Y-127108970D01*
X151299759Y-127098709D01*
X151299762Y-127098705D01*
X151394190Y-126935480D01*
X151394191Y-126935479D01*
X151400126Y-126925219D01*
X151469764Y-126724681D01*
X151500226Y-126514593D01*
X151490411Y-126302534D01*
X151440674Y-126096158D01*
X151394581Y-125994781D01*
X151357714Y-125913697D01*
X151357712Y-125913693D01*
X151352809Y-125902910D01*
X151229987Y-125729763D01*
X151139745Y-125643375D01*
X151085195Y-125591154D01*
X151085191Y-125591151D01*
X151076640Y-125582965D01*
X150898301Y-125467813D01*
X150787225Y-125423048D01*
X150705929Y-125369850D01*
X150651180Y-125289591D01*
X150631311Y-125194489D01*
X150649350Y-125099023D01*
X150702548Y-125017727D01*
X150787778Y-124960939D01*
X150799026Y-124957639D01*
X150987751Y-124860439D01*
X151154691Y-124729306D01*
X151162455Y-124720359D01*
X151162460Y-124720354D01*
X151286051Y-124577927D01*
X151286053Y-124577924D01*
X151293823Y-124568970D01*
X151299759Y-124558709D01*
X151299762Y-124558705D01*
X151394190Y-124395480D01*
X151394191Y-124395479D01*
X151400126Y-124385219D01*
X151469764Y-124184681D01*
X151500226Y-123974593D01*
X151490411Y-123762534D01*
X151440674Y-123556158D01*
X151394581Y-123454781D01*
X151357714Y-123373697D01*
X151357712Y-123373693D01*
X151352809Y-123362910D01*
X151229987Y-123189763D01*
X151139745Y-123103375D01*
X151085195Y-123051154D01*
X151085191Y-123051151D01*
X151076640Y-123042965D01*
X150898301Y-122927813D01*
X150787225Y-122883048D01*
X150705929Y-122829850D01*
X150651180Y-122749591D01*
X150631311Y-122654489D01*
X150649350Y-122559023D01*
X150702548Y-122477727D01*
X150787778Y-122420939D01*
X150799026Y-122417639D01*
X150987751Y-122320439D01*
X151154691Y-122189306D01*
X151162455Y-122180359D01*
X151162460Y-122180354D01*
X151286051Y-122037927D01*
X151286053Y-122037924D01*
X151293823Y-122028970D01*
X151299759Y-122018709D01*
X151299762Y-122018705D01*
X151394190Y-121855480D01*
X151394191Y-121855479D01*
X151400126Y-121845219D01*
X151469764Y-121644681D01*
X151500226Y-121434593D01*
X151490411Y-121222534D01*
X151474550Y-121156719D01*
X151443451Y-121027680D01*
X151443450Y-121027678D01*
X151440674Y-121016158D01*
X151394581Y-120914781D01*
X151357714Y-120833697D01*
X151357712Y-120833693D01*
X151352809Y-120822910D01*
X151229987Y-120649763D01*
X151139745Y-120563375D01*
X151085195Y-120511154D01*
X151085191Y-120511151D01*
X151076640Y-120502965D01*
X150898301Y-120387813D01*
X150787225Y-120343048D01*
X150705929Y-120289850D01*
X150651180Y-120209591D01*
X150631311Y-120114489D01*
X150649350Y-120019023D01*
X150702548Y-119937727D01*
X150787778Y-119880939D01*
X150799026Y-119877639D01*
X150987751Y-119780439D01*
X151154691Y-119649306D01*
X151162455Y-119640359D01*
X151162460Y-119640354D01*
X151286051Y-119497927D01*
X151286053Y-119497924D01*
X151293823Y-119488970D01*
X151299759Y-119478709D01*
X151299762Y-119478705D01*
X151394190Y-119315480D01*
X151394191Y-119315479D01*
X151400126Y-119305219D01*
X151404053Y-119293912D01*
X151431583Y-119214631D01*
X151469764Y-119104681D01*
X151491917Y-118951896D01*
X151498525Y-118906326D01*
X151498525Y-118906323D01*
X151500226Y-118894593D01*
X151490411Y-118682534D01*
X151477411Y-118628590D01*
X151443451Y-118487680D01*
X151443450Y-118487678D01*
X151440674Y-118476158D01*
X151434741Y-118463107D01*
X151357714Y-118293697D01*
X151357712Y-118293693D01*
X151352809Y-118282910D01*
X151281280Y-118182073D01*
X151236844Y-118119429D01*
X151236842Y-118119426D01*
X151229987Y-118109763D01*
X151124469Y-118008751D01*
X151085195Y-117971154D01*
X151085191Y-117971151D01*
X151076640Y-117962965D01*
X150898301Y-117847813D01*
X150787225Y-117803048D01*
X150705929Y-117749850D01*
X150651180Y-117669591D01*
X150631311Y-117574489D01*
X150649350Y-117479023D01*
X150673655Y-117441880D01*
X173922776Y-117441880D01*
X173936167Y-117461112D01*
X173946820Y-117470977D01*
X173957521Y-117479829D01*
X174235055Y-117684445D01*
X174246663Y-117692042D01*
X174545291Y-117864454D01*
X174557678Y-117870711D01*
X174873637Y-118008751D01*
X174886673Y-118013599D01*
X175216041Y-118115555D01*
X175229523Y-118118917D01*
X175568234Y-118183529D01*
X175581979Y-118185363D01*
X175925781Y-118211817D01*
X175939659Y-118212107D01*
X176284246Y-118200074D01*
X176298093Y-118198814D01*
X176639192Y-118148445D01*
X176652803Y-118145651D01*
X176986158Y-118057576D01*
X176999376Y-118053281D01*
X177302327Y-117935774D01*
X189913102Y-117935774D01*
X189913497Y-117946301D01*
X189913497Y-117946305D01*
X189914123Y-117962965D01*
X189921751Y-118166158D01*
X189923915Y-118176470D01*
X189923915Y-118176473D01*
X189928603Y-118198814D01*
X189969093Y-118391791D01*
X189972965Y-118401595D01*
X189972966Y-118401599D01*
X190037149Y-118564118D01*
X190053776Y-118606221D01*
X190059241Y-118615227D01*
X190059244Y-118615233D01*
X190100084Y-118682534D01*
X190173377Y-118803317D01*
X190267528Y-118911817D01*
X190272432Y-118917468D01*
X190320569Y-119001859D01*
X190332745Y-119098248D01*
X190307109Y-119191960D01*
X190247561Y-119268727D01*
X190215396Y-119292398D01*
X190200652Y-119301522D01*
X190075695Y-119426697D01*
X189982885Y-119577262D01*
X189978331Y-119590992D01*
X189978330Y-119590994D01*
X189939241Y-119708846D01*
X189927203Y-119745139D01*
X189925817Y-119758669D01*
X189918943Y-119825759D01*
X189916500Y-119849600D01*
X189916500Y-121150400D01*
X189917165Y-121156805D01*
X189925935Y-121241331D01*
X189927474Y-121256166D01*
X189931786Y-121269091D01*
X189931787Y-121269095D01*
X189978869Y-121410217D01*
X189978871Y-121410222D01*
X189983450Y-121423946D01*
X189991066Y-121436253D01*
X190053699Y-121537466D01*
X190076522Y-121574348D01*
X190201697Y-121699305D01*
X190352262Y-121792115D01*
X190365992Y-121796669D01*
X190365994Y-121796670D01*
X190507232Y-121843516D01*
X190520139Y-121847797D01*
X190566142Y-121852510D01*
X190618281Y-121857853D01*
X190618290Y-121857853D01*
X190624600Y-121858500D01*
X192075400Y-121858500D01*
X192128620Y-121852978D01*
X192167609Y-121848933D01*
X192167612Y-121848932D01*
X192181166Y-121847526D01*
X192194091Y-121843214D01*
X192194095Y-121843213D01*
X192335217Y-121796131D01*
X192335222Y-121796129D01*
X192348946Y-121791550D01*
X192426041Y-121743842D01*
X192487048Y-121706090D01*
X192487051Y-121706088D01*
X192499348Y-121698478D01*
X192624305Y-121573303D01*
X192717115Y-121422738D01*
X192772797Y-121254861D01*
X192783500Y-121150400D01*
X192783500Y-119849600D01*
X192775565Y-119773122D01*
X192773933Y-119757391D01*
X192773932Y-119757388D01*
X192772526Y-119743834D01*
X192765729Y-119723461D01*
X192721131Y-119589783D01*
X192721129Y-119589778D01*
X192716550Y-119576054D01*
X192689638Y-119532565D01*
X192631090Y-119437952D01*
X192631088Y-119437949D01*
X192623478Y-119425652D01*
X192498303Y-119300695D01*
X192485987Y-119293103D01*
X192474635Y-119284138D01*
X192475683Y-119282811D01*
X192417109Y-119228384D01*
X192376663Y-119140048D01*
X192373100Y-119042958D01*
X192406964Y-118951896D01*
X192432442Y-118917557D01*
X192438512Y-118910696D01*
X192446135Y-118903424D01*
X192487041Y-118848445D01*
X192577462Y-118726915D01*
X192577463Y-118726913D01*
X192583754Y-118718458D01*
X192588690Y-118708751D01*
X192683461Y-118522349D01*
X192683462Y-118522347D01*
X192688240Y-118512949D01*
X192696087Y-118487680D01*
X192753480Y-118302843D01*
X192756607Y-118292773D01*
X192779650Y-118118917D01*
X192785513Y-118074677D01*
X192785513Y-118074675D01*
X192786898Y-118064226D01*
X192785976Y-118039646D01*
X192780716Y-117899561D01*
X192778249Y-117833842D01*
X192770959Y-117799095D01*
X192733072Y-117618527D01*
X192733072Y-117618526D01*
X192730907Y-117608209D01*
X192727034Y-117598401D01*
X192650097Y-117403585D01*
X192650095Y-117403581D01*
X192646224Y-117393779D01*
X192640759Y-117384773D01*
X192640756Y-117384767D01*
X192532092Y-117205696D01*
X192526623Y-117196683D01*
X192375523Y-117022555D01*
X192280678Y-116944787D01*
X192219012Y-116869713D01*
X192190770Y-116776753D01*
X192200251Y-116680062D01*
X192246012Y-116594359D01*
X192282535Y-116558185D01*
X192286640Y-116554884D01*
X192438123Y-116410376D01*
X192452058Y-116394625D01*
X192577033Y-116226652D01*
X192588106Y-116208794D01*
X192682996Y-116022159D01*
X192690901Y-116002691D01*
X192752991Y-115802731D01*
X192757501Y-115782216D01*
X192758019Y-115778312D01*
X192756673Y-115757499D01*
X192746393Y-115754000D01*
X189965220Y-115754000D01*
X189944762Y-115758069D01*
X189943244Y-115765701D01*
X189943338Y-115766608D01*
X189967408Y-115881325D01*
X189973450Y-115901461D01*
X190050352Y-116096192D01*
X190059693Y-116115009D01*
X190168312Y-116294006D01*
X190180695Y-116310988D01*
X190317915Y-116469119D01*
X190332978Y-116483767D01*
X190419322Y-116554565D01*
X190480989Y-116629640D01*
X190509232Y-116722600D01*
X190499752Y-116819291D01*
X190453991Y-116904994D01*
X190422396Y-116936287D01*
X190420681Y-116937441D01*
X190413057Y-116944714D01*
X190273293Y-117078043D01*
X190253865Y-117096576D01*
X190247574Y-117105032D01*
X190247570Y-117105036D01*
X190142791Y-117245864D01*
X190116246Y-117281542D01*
X190111469Y-117290938D01*
X190111467Y-117290941D01*
X190034726Y-117441880D01*
X190011760Y-117487051D01*
X190008635Y-117497115D01*
X190008633Y-117497120D01*
X189974139Y-117608209D01*
X189943393Y-117707227D01*
X189942007Y-117717681D01*
X189942007Y-117717683D01*
X189916932Y-117906878D01*
X189913102Y-117935774D01*
X177302327Y-117935774D01*
X177320848Y-117928590D01*
X177333487Y-117922857D01*
X177639060Y-117763107D01*
X177650992Y-117755993D01*
X177936836Y-117563189D01*
X177947911Y-117554782D01*
X178063030Y-117456809D01*
X178075970Y-117440453D01*
X178069320Y-117428530D01*
X176017341Y-115376551D01*
X176000000Y-115364964D01*
X175982659Y-115376551D01*
X173933742Y-117425468D01*
X173922776Y-117441880D01*
X150673655Y-117441880D01*
X150702548Y-117397727D01*
X150787778Y-117340939D01*
X150799026Y-117337639D01*
X150987751Y-117240439D01*
X151154691Y-117109306D01*
X151162455Y-117100359D01*
X151162460Y-117100354D01*
X151286051Y-116957927D01*
X151286053Y-116957924D01*
X151293823Y-116948970D01*
X151299759Y-116938709D01*
X151299762Y-116938705D01*
X151394190Y-116775480D01*
X151394191Y-116775479D01*
X151400126Y-116765219D01*
X151469764Y-116564681D01*
X151494422Y-116394625D01*
X151498525Y-116366326D01*
X151498525Y-116366323D01*
X151500226Y-116354593D01*
X151490411Y-116142534D01*
X151483778Y-116115009D01*
X151443451Y-115947680D01*
X151443450Y-115947678D01*
X151440674Y-115936158D01*
X151424899Y-115901461D01*
X151357714Y-115753697D01*
X151357712Y-115753693D01*
X151352809Y-115742910D01*
X151229987Y-115569763D01*
X151139745Y-115483375D01*
X151085195Y-115431154D01*
X151085191Y-115431151D01*
X151076640Y-115422965D01*
X150898301Y-115307813D01*
X150887315Y-115303385D01*
X150887312Y-115303384D01*
X150786550Y-115262776D01*
X150705255Y-115209578D01*
X150650505Y-115129318D01*
X150630637Y-115034216D01*
X150644266Y-114962091D01*
X172787549Y-114962091D01*
X172801989Y-115306602D01*
X172803343Y-115320403D01*
X172856095Y-115661168D01*
X172858980Y-115674736D01*
X172949383Y-116007478D01*
X172953773Y-116020675D01*
X173080698Y-116341249D01*
X173086527Y-116353866D01*
X173248403Y-116658308D01*
X173255600Y-116670191D01*
X173450398Y-116954688D01*
X173458879Y-116965700D01*
X173543020Y-117063178D01*
X173559468Y-117076005D01*
X173571746Y-117069044D01*
X175623449Y-115017341D01*
X175635036Y-115000000D01*
X176364964Y-115000000D01*
X176376551Y-115017341D01*
X178426170Y-117066960D01*
X178442757Y-117078043D01*
X178460366Y-117065872D01*
X178465510Y-117059742D01*
X178672057Y-116783644D01*
X178679738Y-116772083D01*
X178854230Y-116474670D01*
X178860570Y-116462334D01*
X179000819Y-116147328D01*
X179005749Y-116134348D01*
X179110008Y-115805683D01*
X179113460Y-115792239D01*
X179180436Y-115453991D01*
X179182368Y-115440242D01*
X179200720Y-115221688D01*
X189941981Y-115221688D01*
X189943327Y-115242501D01*
X189953607Y-115246000D01*
X191071473Y-115246000D01*
X191091931Y-115241931D01*
X191096000Y-115221473D01*
X191604000Y-115221473D01*
X191608069Y-115241931D01*
X191628527Y-115246000D01*
X192734780Y-115246000D01*
X192755238Y-115241931D01*
X192756756Y-115234299D01*
X192756662Y-115233392D01*
X192732592Y-115118675D01*
X192726550Y-115098539D01*
X192649648Y-114903808D01*
X192640307Y-114884991D01*
X192531688Y-114705994D01*
X192519305Y-114689012D01*
X192382085Y-114530881D01*
X192367015Y-114516226D01*
X192205117Y-114383477D01*
X192187797Y-114371573D01*
X192005844Y-114268000D01*
X191986761Y-114259182D01*
X191789950Y-114187744D01*
X191769672Y-114182272D01*
X191628132Y-114156678D01*
X191607280Y-114157042D01*
X191604000Y-114165367D01*
X191604000Y-115221473D01*
X191096000Y-115221473D01*
X191096000Y-114176805D01*
X191091931Y-114156347D01*
X191078807Y-114153737D01*
X191055876Y-114155683D01*
X191035151Y-114159226D01*
X190832508Y-114211821D01*
X190812679Y-114218803D01*
X190621781Y-114304797D01*
X190603420Y-114315017D01*
X190429749Y-114431939D01*
X190413360Y-114445116D01*
X190261877Y-114589624D01*
X190247942Y-114605375D01*
X190122967Y-114773348D01*
X190111894Y-114791206D01*
X190017004Y-114977841D01*
X190009099Y-114997309D01*
X189947009Y-115197269D01*
X189942499Y-115217784D01*
X189941981Y-115221688D01*
X179200720Y-115221688D01*
X179211438Y-115094046D01*
X179211863Y-115085367D01*
X179212995Y-115004327D01*
X179212813Y-114995679D01*
X179193419Y-114648787D01*
X179191871Y-114634984D01*
X179134368Y-114295006D01*
X179131293Y-114281470D01*
X179036248Y-113950010D01*
X179031686Y-113936911D01*
X178900287Y-113618111D01*
X178894289Y-113605594D01*
X178728175Y-113303434D01*
X178720818Y-113291659D01*
X178522059Y-113009901D01*
X178513430Y-112999015D01*
X178457646Y-112936183D01*
X178441024Y-112923589D01*
X178427988Y-112931222D01*
X176376551Y-114982659D01*
X176364964Y-115000000D01*
X175635036Y-115000000D01*
X175623449Y-114982659D01*
X173575124Y-112934334D01*
X173557783Y-112922747D01*
X173544306Y-112931752D01*
X173514745Y-112964125D01*
X173505978Y-112974875D01*
X173303303Y-113253833D01*
X173295774Y-113265516D01*
X173125472Y-113565303D01*
X173119287Y-113577762D01*
X172983450Y-113894692D01*
X172978710Y-113907713D01*
X172879045Y-114237822D01*
X172875780Y-114251317D01*
X172813539Y-114590442D01*
X172811795Y-114604250D01*
X172787744Y-114948190D01*
X172787549Y-114962091D01*
X150644266Y-114962091D01*
X150648676Y-114938750D01*
X150701874Y-114857455D01*
X150787159Y-114800631D01*
X150809383Y-114791743D01*
X150976947Y-114705441D01*
X150996795Y-114692699D01*
X151145028Y-114576261D01*
X151162111Y-114559993D01*
X151285648Y-114417629D01*
X151299347Y-114398423D01*
X151393737Y-114235264D01*
X151403556Y-114213818D01*
X151465390Y-114035755D01*
X151466845Y-114029785D01*
X151466198Y-114017443D01*
X151456473Y-114014000D01*
X148117895Y-114014000D01*
X148097437Y-114018069D01*
X148096289Y-114023844D01*
X148096821Y-114028330D01*
X148117024Y-114112157D01*
X148124706Y-114134468D01*
X148202719Y-114306048D01*
X148214485Y-114326510D01*
X148323536Y-114480242D01*
X148338954Y-114498104D01*
X148475105Y-114628441D01*
X148493633Y-114643073D01*
X148651975Y-114745313D01*
X148672922Y-114756171D01*
X148773447Y-114796684D01*
X148854743Y-114849882D01*
X148909493Y-114930142D01*
X148929361Y-115025244D01*
X148911322Y-115120709D01*
X148858124Y-115202005D01*
X148772839Y-115258829D01*
X148772359Y-115259021D01*
X148760974Y-115262361D01*
X148572249Y-115359561D01*
X148405309Y-115490694D01*
X148397545Y-115499641D01*
X148397540Y-115499646D01*
X148273949Y-115642073D01*
X148266177Y-115651030D01*
X148260241Y-115661291D01*
X148260238Y-115661295D01*
X148165810Y-115824520D01*
X148159874Y-115834781D01*
X148090236Y-116035319D01*
X148059774Y-116245407D01*
X148069589Y-116457466D01*
X148072367Y-116468991D01*
X148072367Y-116468994D01*
X148114216Y-116642639D01*
X148119326Y-116663842D01*
X148124229Y-116674627D01*
X148124231Y-116674631D01*
X148202286Y-116846303D01*
X148207191Y-116857090D01*
X148214045Y-116866752D01*
X148319822Y-117015870D01*
X148330013Y-117030237D01*
X148364424Y-117063178D01*
X148474805Y-117168846D01*
X148474809Y-117168849D01*
X148483360Y-117177035D01*
X148661699Y-117292187D01*
X148672690Y-117296617D01*
X148672691Y-117296617D01*
X148772775Y-117336952D01*
X148854071Y-117390150D01*
X148908820Y-117470409D01*
X148928689Y-117565511D01*
X148910650Y-117660977D01*
X148857452Y-117742273D01*
X148772222Y-117799061D01*
X148760974Y-117802361D01*
X148572249Y-117899561D01*
X148405309Y-118030694D01*
X148397545Y-118039641D01*
X148397540Y-118039646D01*
X148273949Y-118182073D01*
X148266177Y-118191030D01*
X148260241Y-118201291D01*
X148260238Y-118201295D01*
X148213366Y-118282317D01*
X148159874Y-118374781D01*
X148090236Y-118575319D01*
X148059774Y-118785407D01*
X148069589Y-118997466D01*
X148072367Y-119008991D01*
X148072367Y-119008994D01*
X148106159Y-119149207D01*
X148119326Y-119203842D01*
X148124229Y-119214627D01*
X148124231Y-119214631D01*
X148168010Y-119310917D01*
X148207191Y-119397090D01*
X148330013Y-119570237D01*
X148338574Y-119578432D01*
X148474805Y-119708846D01*
X148474809Y-119708849D01*
X148483360Y-119717035D01*
X148661699Y-119832187D01*
X148672690Y-119836617D01*
X148672691Y-119836617D01*
X148772775Y-119876952D01*
X148854071Y-119930150D01*
X148908820Y-120010409D01*
X148928689Y-120105511D01*
X148910650Y-120200977D01*
X148857452Y-120282273D01*
X148772222Y-120339061D01*
X148760974Y-120342361D01*
X148572249Y-120439561D01*
X148405309Y-120570694D01*
X148397545Y-120579641D01*
X148397540Y-120579646D01*
X148273949Y-120722073D01*
X148266177Y-120731030D01*
X148260241Y-120741291D01*
X148260238Y-120741295D01*
X148213023Y-120822910D01*
X148159874Y-120914781D01*
X148090236Y-121115319D01*
X148059774Y-121325407D01*
X148069589Y-121537466D01*
X148072367Y-121548991D01*
X148072367Y-121548994D01*
X148110228Y-121706090D01*
X148119326Y-121743842D01*
X148124229Y-121754627D01*
X148124231Y-121754631D01*
X148171458Y-121858500D01*
X148207191Y-121937090D01*
X148330013Y-122110237D01*
X148338574Y-122118432D01*
X148474805Y-122248846D01*
X148474809Y-122248849D01*
X148483360Y-122257035D01*
X148661699Y-122372187D01*
X148672690Y-122376617D01*
X148672691Y-122376617D01*
X148772775Y-122416952D01*
X148854071Y-122470150D01*
X148908820Y-122550409D01*
X148928689Y-122645511D01*
X148910650Y-122740977D01*
X148857452Y-122822273D01*
X148772222Y-122879061D01*
X148760974Y-122882361D01*
X148572249Y-122979561D01*
X148405309Y-123110694D01*
X148397545Y-123119641D01*
X148397540Y-123119646D01*
X148273949Y-123262073D01*
X148266177Y-123271030D01*
X148260241Y-123281291D01*
X148260238Y-123281295D01*
X148213023Y-123362910D01*
X148159874Y-123454781D01*
X148090236Y-123655319D01*
X148059774Y-123865407D01*
X148069589Y-124077466D01*
X148119326Y-124283842D01*
X148124229Y-124294627D01*
X148124231Y-124294631D01*
X148170085Y-124395480D01*
X148207191Y-124477090D01*
X148330013Y-124650237D01*
X148338574Y-124658432D01*
X148474805Y-124788846D01*
X148474809Y-124788849D01*
X148483360Y-124797035D01*
X148661699Y-124912187D01*
X148672690Y-124916617D01*
X148672691Y-124916617D01*
X148772775Y-124956952D01*
X148854071Y-125010150D01*
X148908820Y-125090409D01*
X148928689Y-125185511D01*
X148910650Y-125280977D01*
X148857452Y-125362273D01*
X148772222Y-125419061D01*
X148760974Y-125422361D01*
X148572249Y-125519561D01*
X148405309Y-125650694D01*
X148397545Y-125659641D01*
X148397540Y-125659646D01*
X148273949Y-125802073D01*
X148266177Y-125811030D01*
X148260241Y-125821291D01*
X148260238Y-125821295D01*
X148213023Y-125902910D01*
X148159874Y-125994781D01*
X148090236Y-126195319D01*
X148059774Y-126405407D01*
X148069589Y-126617466D01*
X148119326Y-126823842D01*
X148124229Y-126834627D01*
X148124231Y-126834631D01*
X148170085Y-126935480D01*
X148207191Y-127017090D01*
X148330013Y-127190237D01*
X148338574Y-127198432D01*
X148474805Y-127328846D01*
X148474809Y-127328849D01*
X148483360Y-127337035D01*
X148661699Y-127452187D01*
X148672690Y-127456617D01*
X148672691Y-127456617D01*
X148772775Y-127496952D01*
X148854071Y-127550150D01*
X148908820Y-127630409D01*
X148928689Y-127725511D01*
X148910650Y-127820977D01*
X148857452Y-127902273D01*
X148772222Y-127959061D01*
X148760974Y-127962361D01*
X148572249Y-128059561D01*
X148405309Y-128190694D01*
X148397545Y-128199641D01*
X148397540Y-128199646D01*
X148273949Y-128342073D01*
X148266177Y-128351030D01*
X148260241Y-128361291D01*
X148260238Y-128361295D01*
X148174134Y-128510131D01*
X148159874Y-128534781D01*
X148090236Y-128735319D01*
X148059774Y-128945407D01*
X133715172Y-128945407D01*
X133710411Y-128842534D01*
X133660674Y-128636158D01*
X133614581Y-128534781D01*
X133577714Y-128453697D01*
X133577712Y-128453693D01*
X133572809Y-128442910D01*
X133514915Y-128361295D01*
X133456844Y-128279429D01*
X133456842Y-128279426D01*
X133449987Y-128269763D01*
X133353883Y-128177763D01*
X133305195Y-128131154D01*
X133305191Y-128131151D01*
X133296640Y-128122965D01*
X133118301Y-128007813D01*
X133007225Y-127963048D01*
X132925929Y-127909850D01*
X132871180Y-127829591D01*
X132851311Y-127734489D01*
X132869350Y-127639023D01*
X132922548Y-127557727D01*
X133007778Y-127500939D01*
X133019026Y-127497639D01*
X133207751Y-127400439D01*
X133374691Y-127269306D01*
X133382455Y-127260359D01*
X133382460Y-127260354D01*
X133506051Y-127117927D01*
X133506053Y-127117924D01*
X133513823Y-127108970D01*
X133519759Y-127098709D01*
X133519762Y-127098705D01*
X133614190Y-126935480D01*
X133614191Y-126935479D01*
X133620126Y-126925219D01*
X133689764Y-126724681D01*
X133720226Y-126514593D01*
X133710411Y-126302534D01*
X133660674Y-126096158D01*
X133614581Y-125994781D01*
X133577714Y-125913697D01*
X133577712Y-125913693D01*
X133572809Y-125902910D01*
X133449987Y-125729763D01*
X133359745Y-125643375D01*
X133305195Y-125591154D01*
X133305191Y-125591151D01*
X133296640Y-125582965D01*
X133118301Y-125467813D01*
X133007225Y-125423048D01*
X132925929Y-125369850D01*
X132871180Y-125289591D01*
X132851311Y-125194489D01*
X132869350Y-125099023D01*
X132922548Y-125017727D01*
X133007778Y-124960939D01*
X133019026Y-124957639D01*
X133207751Y-124860439D01*
X133374691Y-124729306D01*
X133382455Y-124720359D01*
X133382460Y-124720354D01*
X133506051Y-124577927D01*
X133506053Y-124577924D01*
X133513823Y-124568970D01*
X133519759Y-124558709D01*
X133519762Y-124558705D01*
X133614190Y-124395480D01*
X133614191Y-124395479D01*
X133620126Y-124385219D01*
X133689764Y-124184681D01*
X133720226Y-123974593D01*
X133710411Y-123762534D01*
X133660674Y-123556158D01*
X133614581Y-123454781D01*
X133577714Y-123373697D01*
X133577712Y-123373693D01*
X133572809Y-123362910D01*
X133449987Y-123189763D01*
X133359745Y-123103375D01*
X133305195Y-123051154D01*
X133305191Y-123051151D01*
X133296640Y-123042965D01*
X133118301Y-122927813D01*
X133007225Y-122883048D01*
X132925929Y-122829850D01*
X132871180Y-122749591D01*
X132851311Y-122654489D01*
X132869350Y-122559023D01*
X132922548Y-122477727D01*
X133007778Y-122420939D01*
X133019026Y-122417639D01*
X133207751Y-122320439D01*
X133374691Y-122189306D01*
X133382455Y-122180359D01*
X133382460Y-122180354D01*
X133506051Y-122037927D01*
X133506053Y-122037924D01*
X133513823Y-122028970D01*
X133519759Y-122018709D01*
X133519762Y-122018705D01*
X133614190Y-121855480D01*
X133614191Y-121855479D01*
X133620126Y-121845219D01*
X133689764Y-121644681D01*
X133720226Y-121434593D01*
X133710411Y-121222534D01*
X133694550Y-121156719D01*
X133663451Y-121027680D01*
X133663450Y-121027678D01*
X133660674Y-121016158D01*
X133614581Y-120914781D01*
X133577714Y-120833697D01*
X133577712Y-120833693D01*
X133572809Y-120822910D01*
X133449987Y-120649763D01*
X133359745Y-120563375D01*
X133305195Y-120511154D01*
X133305191Y-120511151D01*
X133296640Y-120502965D01*
X133118301Y-120387813D01*
X133007225Y-120343048D01*
X132925929Y-120289850D01*
X132871180Y-120209591D01*
X132851311Y-120114489D01*
X132869350Y-120019023D01*
X132922548Y-119937727D01*
X133007778Y-119880939D01*
X133019026Y-119877639D01*
X133207751Y-119780439D01*
X133374691Y-119649306D01*
X133382455Y-119640359D01*
X133382460Y-119640354D01*
X133506051Y-119497927D01*
X133506053Y-119497924D01*
X133513823Y-119488970D01*
X133519759Y-119478709D01*
X133519762Y-119478705D01*
X133614190Y-119315480D01*
X133614191Y-119315479D01*
X133620126Y-119305219D01*
X133624053Y-119293912D01*
X133651583Y-119214631D01*
X133689764Y-119104681D01*
X133711917Y-118951896D01*
X133718525Y-118906326D01*
X133718525Y-118906323D01*
X133720226Y-118894593D01*
X133710411Y-118682534D01*
X133697411Y-118628590D01*
X133663451Y-118487680D01*
X133663450Y-118487678D01*
X133660674Y-118476158D01*
X133654741Y-118463107D01*
X133577714Y-118293697D01*
X133577712Y-118293693D01*
X133572809Y-118282910D01*
X133501280Y-118182073D01*
X133456844Y-118119429D01*
X133456842Y-118119426D01*
X133449987Y-118109763D01*
X133344469Y-118008751D01*
X133305195Y-117971154D01*
X133305191Y-117971151D01*
X133296640Y-117962965D01*
X133118301Y-117847813D01*
X133007225Y-117803048D01*
X132925929Y-117749850D01*
X132871180Y-117669591D01*
X132851311Y-117574489D01*
X132869350Y-117479023D01*
X132922548Y-117397727D01*
X133007778Y-117340939D01*
X133019026Y-117337639D01*
X133207751Y-117240439D01*
X133374691Y-117109306D01*
X133382455Y-117100359D01*
X133382460Y-117100354D01*
X133506051Y-116957927D01*
X133506053Y-116957924D01*
X133513823Y-116948970D01*
X133519759Y-116938709D01*
X133519762Y-116938705D01*
X133614190Y-116775480D01*
X133614191Y-116775479D01*
X133620126Y-116765219D01*
X133689764Y-116564681D01*
X133714422Y-116394625D01*
X133718525Y-116366326D01*
X133718525Y-116366323D01*
X133720226Y-116354593D01*
X133710411Y-116142534D01*
X133703778Y-116115009D01*
X133663451Y-115947680D01*
X133663450Y-115947678D01*
X133660674Y-115936158D01*
X133644899Y-115901461D01*
X133577714Y-115753697D01*
X133577712Y-115753693D01*
X133572809Y-115742910D01*
X133449987Y-115569763D01*
X133359745Y-115483375D01*
X133305195Y-115431154D01*
X133305191Y-115431151D01*
X133296640Y-115422965D01*
X133118301Y-115307813D01*
X133007225Y-115263048D01*
X132925929Y-115209850D01*
X132871180Y-115129591D01*
X132851311Y-115034489D01*
X132869350Y-114939023D01*
X132922548Y-114857727D01*
X133007778Y-114800939D01*
X133019026Y-114797639D01*
X133164607Y-114722660D01*
X133197218Y-114705864D01*
X133197219Y-114705863D01*
X133207751Y-114700439D01*
X133217605Y-114692699D01*
X133298893Y-114628846D01*
X133374691Y-114569306D01*
X133382455Y-114560359D01*
X133382460Y-114560354D01*
X133506051Y-114417927D01*
X133506053Y-114417924D01*
X133513823Y-114408970D01*
X133519759Y-114398709D01*
X133519762Y-114398705D01*
X133614190Y-114235480D01*
X133614191Y-114235479D01*
X133620126Y-114225219D01*
X133689764Y-114024681D01*
X133720226Y-113814593D01*
X133710411Y-113602534D01*
X133701439Y-113565303D01*
X133663451Y-113407680D01*
X133663450Y-113407678D01*
X133660674Y-113396158D01*
X133619765Y-113306182D01*
X133577714Y-113213697D01*
X133577712Y-113213693D01*
X133572809Y-113202910D01*
X133449987Y-113029763D01*
X133367391Y-112950694D01*
X133305195Y-112891154D01*
X133305191Y-112891151D01*
X133296640Y-112882965D01*
X133118301Y-112767813D01*
X133007225Y-112723048D01*
X132925929Y-112669850D01*
X132871180Y-112589591D01*
X132851311Y-112494489D01*
X132869350Y-112399023D01*
X132922548Y-112317727D01*
X133007778Y-112260939D01*
X133019026Y-112257639D01*
X133207751Y-112160439D01*
X133374691Y-112029306D01*
X133382455Y-112020359D01*
X133382460Y-112020354D01*
X133506051Y-111877927D01*
X133506053Y-111877924D01*
X133513823Y-111868970D01*
X133519759Y-111858709D01*
X133519762Y-111858705D01*
X133614190Y-111695480D01*
X133614191Y-111695479D01*
X133620126Y-111685219D01*
X133689764Y-111484681D01*
X133720226Y-111274593D01*
X133715172Y-111165407D01*
X148059774Y-111165407D01*
X148069589Y-111377466D01*
X148119326Y-111583842D01*
X148124229Y-111594627D01*
X148124231Y-111594631D01*
X148170085Y-111695480D01*
X148207191Y-111777090D01*
X148330013Y-111950237D01*
X148338574Y-111958432D01*
X148474805Y-112088846D01*
X148474809Y-112088849D01*
X148483360Y-112097035D01*
X148661699Y-112212187D01*
X148672685Y-112216615D01*
X148672688Y-112216616D01*
X148773450Y-112257224D01*
X148854745Y-112310422D01*
X148909495Y-112390682D01*
X148929363Y-112485784D01*
X148911324Y-112581250D01*
X148858126Y-112662545D01*
X148772841Y-112719369D01*
X148750617Y-112728257D01*
X148583053Y-112814559D01*
X148563205Y-112827301D01*
X148414972Y-112943739D01*
X148397889Y-112960007D01*
X148274352Y-113102371D01*
X148260653Y-113121577D01*
X148166263Y-113284736D01*
X148156444Y-113306182D01*
X148094610Y-113484245D01*
X148093155Y-113490215D01*
X148093802Y-113502557D01*
X148103527Y-113506000D01*
X151442105Y-113506000D01*
X151462563Y-113501931D01*
X151463711Y-113496156D01*
X151463179Y-113491670D01*
X151442976Y-113407843D01*
X151435294Y-113385532D01*
X151357281Y-113213952D01*
X151345515Y-113193490D01*
X151236464Y-113039758D01*
X151221046Y-113021896D01*
X151084895Y-112891559D01*
X151066367Y-112876927D01*
X150908025Y-112774687D01*
X150887078Y-112763829D01*
X150786553Y-112723316D01*
X150705257Y-112670118D01*
X150650507Y-112589858D01*
X150644118Y-112559278D01*
X173923848Y-112559278D01*
X173931136Y-112571926D01*
X175982659Y-114623449D01*
X176000000Y-114635036D01*
X176017341Y-114623449D01*
X178065185Y-112575605D01*
X178076772Y-112558264D01*
X178068082Y-112545258D01*
X178018476Y-112500593D01*
X178007659Y-112491896D01*
X177727300Y-112291180D01*
X177715564Y-112283732D01*
X177414590Y-112115522D01*
X177402096Y-112109428D01*
X177084240Y-111975815D01*
X177071149Y-111971153D01*
X176740381Y-111873802D01*
X176726847Y-111870628D01*
X176387290Y-111810755D01*
X176373499Y-111809110D01*
X176029368Y-111787459D01*
X176015488Y-111787363D01*
X175671089Y-111804206D01*
X175657279Y-111805658D01*
X175316908Y-111860786D01*
X175303341Y-111863769D01*
X174971257Y-111956489D01*
X174958086Y-111960973D01*
X174638402Y-112090133D01*
X174625818Y-112096055D01*
X174322524Y-112260046D01*
X174310696Y-112267322D01*
X174027560Y-112464106D01*
X174016609Y-112472662D01*
X173936561Y-112542740D01*
X173923848Y-112559278D01*
X150644118Y-112559278D01*
X150630639Y-112494756D01*
X150648678Y-112399291D01*
X150701876Y-112317995D01*
X150787161Y-112261171D01*
X150787641Y-112260979D01*
X150799026Y-112257639D01*
X150987751Y-112160439D01*
X151154691Y-112029306D01*
X151162455Y-112020359D01*
X151162460Y-112020354D01*
X151286051Y-111877927D01*
X151286053Y-111877924D01*
X151293823Y-111868970D01*
X151299759Y-111858709D01*
X151299762Y-111858705D01*
X151394190Y-111695480D01*
X151394191Y-111695479D01*
X151400126Y-111685219D01*
X151469764Y-111484681D01*
X151500226Y-111274593D01*
X151490411Y-111062534D01*
X151440674Y-110856158D01*
X151394581Y-110754781D01*
X151357714Y-110673697D01*
X151357712Y-110673693D01*
X151352809Y-110662910D01*
X151229987Y-110489763D01*
X151139745Y-110403375D01*
X151085195Y-110351154D01*
X151085191Y-110351151D01*
X151076640Y-110342965D01*
X150898301Y-110227813D01*
X150787225Y-110183048D01*
X150705929Y-110129850D01*
X150651180Y-110049591D01*
X150631311Y-109954489D01*
X150649350Y-109859023D01*
X150702548Y-109777727D01*
X150787778Y-109720939D01*
X150799026Y-109717639D01*
X150987751Y-109620439D01*
X151154691Y-109489306D01*
X151162455Y-109480359D01*
X151162460Y-109480354D01*
X151286051Y-109337927D01*
X151286053Y-109337924D01*
X151293823Y-109328970D01*
X151299759Y-109318709D01*
X151299762Y-109318705D01*
X151394190Y-109155480D01*
X151394191Y-109155479D01*
X151400126Y-109145219D01*
X151469764Y-108944681D01*
X151488108Y-108818164D01*
X151498525Y-108746326D01*
X151498525Y-108746323D01*
X151500226Y-108734593D01*
X151490411Y-108522534D01*
X151487546Y-108510643D01*
X151443451Y-108327680D01*
X151443450Y-108327678D01*
X151440674Y-108316158D01*
X151429764Y-108292161D01*
X151357714Y-108133697D01*
X151357712Y-108133693D01*
X151352809Y-108122910D01*
X151229987Y-107949763D01*
X151139745Y-107863375D01*
X151085195Y-107811154D01*
X151085191Y-107811151D01*
X151076640Y-107802965D01*
X150898301Y-107687813D01*
X150787225Y-107643048D01*
X150705929Y-107589850D01*
X150651180Y-107509591D01*
X150631311Y-107414489D01*
X150649350Y-107319023D01*
X150702548Y-107237727D01*
X150787778Y-107180939D01*
X150799026Y-107177639D01*
X150987751Y-107080439D01*
X151154691Y-106949306D01*
X151162455Y-106940359D01*
X151162460Y-106940354D01*
X151286051Y-106797927D01*
X151286053Y-106797924D01*
X151293823Y-106788970D01*
X151299759Y-106778709D01*
X151299762Y-106778705D01*
X151394190Y-106615480D01*
X151394191Y-106615479D01*
X151400126Y-106605219D01*
X151469764Y-106404681D01*
X151500226Y-106194593D01*
X151490411Y-105982534D01*
X151485959Y-105964059D01*
X151443451Y-105787680D01*
X151443450Y-105787678D01*
X151440674Y-105776158D01*
X151430355Y-105753461D01*
X151357714Y-105593697D01*
X151357712Y-105593693D01*
X151352809Y-105582910D01*
X151229987Y-105409763D01*
X151156742Y-105339646D01*
X151085195Y-105271154D01*
X151085191Y-105271151D01*
X151076640Y-105262965D01*
X150898301Y-105147813D01*
X150865717Y-105134681D01*
X150787225Y-105103048D01*
X150705929Y-105049850D01*
X150651180Y-104969591D01*
X150631311Y-104874489D01*
X150649350Y-104779023D01*
X150702548Y-104697727D01*
X150787778Y-104640939D01*
X150799026Y-104637639D01*
X150987751Y-104540439D01*
X151154691Y-104409306D01*
X151162455Y-104400359D01*
X151162460Y-104400354D01*
X151286051Y-104257927D01*
X151286053Y-104257924D01*
X151293823Y-104248970D01*
X151299759Y-104238709D01*
X151299762Y-104238705D01*
X151394190Y-104075480D01*
X151394191Y-104075479D01*
X151400126Y-104065219D01*
X151469764Y-103864681D01*
X151500226Y-103654593D01*
X151490411Y-103442534D01*
X151440674Y-103236158D01*
X151394581Y-103134781D01*
X151357714Y-103053697D01*
X151357712Y-103053693D01*
X151352809Y-103042910D01*
X151229987Y-102869763D01*
X151139745Y-102783375D01*
X151085195Y-102731154D01*
X151085191Y-102731151D01*
X151076640Y-102722965D01*
X150898301Y-102607813D01*
X150787225Y-102563048D01*
X150705929Y-102509850D01*
X150651180Y-102429591D01*
X150631311Y-102334489D01*
X150649350Y-102239023D01*
X150702548Y-102157727D01*
X150787778Y-102100939D01*
X150799026Y-102097639D01*
X150987751Y-102000439D01*
X151154691Y-101869306D01*
X151162455Y-101860359D01*
X151162460Y-101860354D01*
X151286051Y-101717927D01*
X151286053Y-101717924D01*
X151293823Y-101708970D01*
X151299759Y-101698709D01*
X151299762Y-101698705D01*
X151394190Y-101535480D01*
X151394191Y-101535479D01*
X151400126Y-101525219D01*
X151469764Y-101324681D01*
X151500226Y-101114593D01*
X151490411Y-100902534D01*
X151440674Y-100696158D01*
X151394581Y-100594781D01*
X151357714Y-100513697D01*
X151357712Y-100513693D01*
X151352809Y-100502910D01*
X151248575Y-100355967D01*
X151236844Y-100339429D01*
X151236842Y-100339426D01*
X151229987Y-100329763D01*
X151139745Y-100243375D01*
X151085195Y-100191154D01*
X151085191Y-100191151D01*
X151076640Y-100182965D01*
X150898301Y-100067813D01*
X150887315Y-100063385D01*
X150887312Y-100063384D01*
X150712395Y-99992890D01*
X150712390Y-99992889D01*
X150701404Y-99988461D01*
X150493055Y-99947774D01*
X150487453Y-99947500D01*
X149122964Y-99947500D01*
X148964674Y-99962602D01*
X148891997Y-99983923D01*
X148772351Y-100019023D01*
X148772348Y-100019024D01*
X148760974Y-100022361D01*
X148750440Y-100027786D01*
X148750436Y-100027788D01*
X148582782Y-100114136D01*
X148572249Y-100119561D01*
X148405309Y-100250694D01*
X148397545Y-100259641D01*
X148397540Y-100259646D01*
X148273949Y-100402073D01*
X148266177Y-100411030D01*
X148260241Y-100421291D01*
X148260238Y-100421295D01*
X148203772Y-100518900D01*
X148159874Y-100594781D01*
X148090236Y-100795319D01*
X148059774Y-101005407D01*
X148069589Y-101217466D01*
X148119326Y-101423842D01*
X148124229Y-101434627D01*
X148124231Y-101434631D01*
X148170085Y-101535480D01*
X148207191Y-101617090D01*
X148330013Y-101790237D01*
X148338574Y-101798432D01*
X148474805Y-101928846D01*
X148474809Y-101928849D01*
X148483360Y-101937035D01*
X148661699Y-102052187D01*
X148672690Y-102056617D01*
X148672691Y-102056617D01*
X148772775Y-102096952D01*
X148854071Y-102150150D01*
X148908820Y-102230409D01*
X148928689Y-102325511D01*
X148910650Y-102420977D01*
X148857452Y-102502273D01*
X148772222Y-102559061D01*
X148760974Y-102562361D01*
X148572249Y-102659561D01*
X148405309Y-102790694D01*
X148397545Y-102799641D01*
X148397540Y-102799646D01*
X148273949Y-102942073D01*
X148266177Y-102951030D01*
X148260241Y-102961291D01*
X148260238Y-102961295D01*
X148213023Y-103042910D01*
X148159874Y-103134781D01*
X148090236Y-103335319D01*
X148059774Y-103545407D01*
X148069589Y-103757466D01*
X148072367Y-103768991D01*
X148072367Y-103768994D01*
X148116549Y-103952320D01*
X148119326Y-103963842D01*
X148124229Y-103974627D01*
X148124231Y-103974631D01*
X148202286Y-104146303D01*
X148207191Y-104157090D01*
X148330013Y-104330237D01*
X148338574Y-104338432D01*
X148474805Y-104468846D01*
X148474809Y-104468849D01*
X148483360Y-104477035D01*
X148661699Y-104592187D01*
X148672690Y-104596617D01*
X148672691Y-104596617D01*
X148772775Y-104636952D01*
X148854071Y-104690150D01*
X148908820Y-104770409D01*
X148928689Y-104865511D01*
X148910650Y-104960977D01*
X148857452Y-105042273D01*
X148772222Y-105099061D01*
X148760974Y-105102361D01*
X148572249Y-105199561D01*
X148405309Y-105330694D01*
X148397545Y-105339641D01*
X148397540Y-105339646D01*
X148273949Y-105482073D01*
X148266177Y-105491030D01*
X148260241Y-105501291D01*
X148260238Y-105501295D01*
X148213023Y-105582910D01*
X148159874Y-105674781D01*
X148090236Y-105875319D01*
X148059774Y-106085407D01*
X148069589Y-106297466D01*
X148072367Y-106308991D01*
X148072367Y-106308994D01*
X148084474Y-106359231D01*
X148119326Y-106503842D01*
X148124229Y-106514627D01*
X148124231Y-106514631D01*
X148167134Y-106608990D01*
X148207191Y-106697090D01*
X148330013Y-106870237D01*
X148338574Y-106878432D01*
X148474805Y-107008846D01*
X148474809Y-107008849D01*
X148483360Y-107017035D01*
X148661699Y-107132187D01*
X148672690Y-107136617D01*
X148672691Y-107136617D01*
X148772775Y-107176952D01*
X148854071Y-107230150D01*
X148908820Y-107310409D01*
X148928689Y-107405511D01*
X148910650Y-107500977D01*
X148857452Y-107582273D01*
X148772222Y-107639061D01*
X148760974Y-107642361D01*
X148572249Y-107739561D01*
X148405309Y-107870694D01*
X148397545Y-107879641D01*
X148397540Y-107879646D01*
X148313254Y-107976778D01*
X148266177Y-108031030D01*
X148260241Y-108041291D01*
X148260238Y-108041295D01*
X148213023Y-108122910D01*
X148159874Y-108214781D01*
X148090236Y-108415319D01*
X148088535Y-108427053D01*
X148068543Y-108564933D01*
X148059774Y-108625407D01*
X148069589Y-108837466D01*
X148072367Y-108848991D01*
X148072367Y-108848994D01*
X148116025Y-109030144D01*
X148119326Y-109043842D01*
X148124229Y-109054627D01*
X148124231Y-109054631D01*
X148170085Y-109155480D01*
X148207191Y-109237090D01*
X148330013Y-109410237D01*
X148338574Y-109418432D01*
X148474805Y-109548846D01*
X148474809Y-109548849D01*
X148483360Y-109557035D01*
X148661699Y-109672187D01*
X148672690Y-109676617D01*
X148672691Y-109676617D01*
X148772775Y-109716952D01*
X148854071Y-109770150D01*
X148908820Y-109850409D01*
X148928689Y-109945511D01*
X148910650Y-110040977D01*
X148857452Y-110122273D01*
X148772222Y-110179061D01*
X148760974Y-110182361D01*
X148672724Y-110227813D01*
X148609645Y-110260301D01*
X148572249Y-110279561D01*
X148405309Y-110410694D01*
X148397545Y-110419641D01*
X148397540Y-110419646D01*
X148273949Y-110562073D01*
X148266177Y-110571030D01*
X148260241Y-110581291D01*
X148260238Y-110581295D01*
X148213023Y-110662910D01*
X148159874Y-110754781D01*
X148090236Y-110955319D01*
X148059774Y-111165407D01*
X133715172Y-111165407D01*
X133710411Y-111062534D01*
X133660674Y-110856158D01*
X133614581Y-110754781D01*
X133577714Y-110673697D01*
X133577712Y-110673693D01*
X133572809Y-110662910D01*
X133449987Y-110489763D01*
X133359745Y-110403375D01*
X133305195Y-110351154D01*
X133305191Y-110351151D01*
X133296640Y-110342965D01*
X133118301Y-110227813D01*
X133007225Y-110183048D01*
X132925929Y-110129850D01*
X132871180Y-110049591D01*
X132851311Y-109954489D01*
X132869350Y-109859023D01*
X132922548Y-109777727D01*
X133007778Y-109720939D01*
X133019026Y-109717639D01*
X133207751Y-109620439D01*
X133374691Y-109489306D01*
X133382455Y-109480359D01*
X133382460Y-109480354D01*
X133506051Y-109337927D01*
X133506053Y-109337924D01*
X133513823Y-109328970D01*
X133519759Y-109318709D01*
X133519762Y-109318705D01*
X133614190Y-109155480D01*
X133614191Y-109155479D01*
X133620126Y-109145219D01*
X133689764Y-108944681D01*
X133708108Y-108818164D01*
X133718525Y-108746326D01*
X133718525Y-108746323D01*
X133720226Y-108734593D01*
X133710411Y-108522534D01*
X133707546Y-108510643D01*
X133663451Y-108327680D01*
X133663450Y-108327678D01*
X133660674Y-108316158D01*
X133649764Y-108292161D01*
X133577714Y-108133697D01*
X133577712Y-108133693D01*
X133572809Y-108122910D01*
X133449987Y-107949763D01*
X133359745Y-107863375D01*
X133305195Y-107811154D01*
X133305191Y-107811151D01*
X133296640Y-107802965D01*
X133118301Y-107687813D01*
X133007225Y-107643048D01*
X132925929Y-107589850D01*
X132871180Y-107509591D01*
X132851311Y-107414489D01*
X132869350Y-107319023D01*
X132922548Y-107237727D01*
X133007778Y-107180939D01*
X133019026Y-107177639D01*
X133207751Y-107080439D01*
X133374691Y-106949306D01*
X133382455Y-106940359D01*
X133382460Y-106940354D01*
X133506051Y-106797927D01*
X133506053Y-106797924D01*
X133513823Y-106788970D01*
X133519759Y-106778709D01*
X133519762Y-106778705D01*
X133614190Y-106615480D01*
X133614191Y-106615479D01*
X133620126Y-106605219D01*
X133689764Y-106404681D01*
X133720226Y-106194593D01*
X133710411Y-105982534D01*
X133705959Y-105964059D01*
X133663451Y-105787680D01*
X133663450Y-105787678D01*
X133660674Y-105776158D01*
X133650355Y-105753461D01*
X133577714Y-105593697D01*
X133577712Y-105593693D01*
X133572809Y-105582910D01*
X133449987Y-105409763D01*
X133376742Y-105339646D01*
X133305195Y-105271154D01*
X133305191Y-105271151D01*
X133296640Y-105262965D01*
X133118301Y-105147813D01*
X133085717Y-105134681D01*
X133007225Y-105103048D01*
X132925929Y-105049850D01*
X132871180Y-104969591D01*
X132851311Y-104874489D01*
X132869350Y-104779023D01*
X132922548Y-104697727D01*
X133007778Y-104640939D01*
X133019026Y-104637639D01*
X133207751Y-104540439D01*
X133374691Y-104409306D01*
X133382455Y-104400359D01*
X133382460Y-104400354D01*
X133506051Y-104257927D01*
X133506053Y-104257924D01*
X133513823Y-104248970D01*
X133519759Y-104238709D01*
X133519762Y-104238705D01*
X133614190Y-104075480D01*
X133614191Y-104075479D01*
X133620126Y-104065219D01*
X133689764Y-103864681D01*
X133720226Y-103654593D01*
X133710411Y-103442534D01*
X133660674Y-103236158D01*
X133614581Y-103134781D01*
X133577714Y-103053697D01*
X133577712Y-103053693D01*
X133572809Y-103042910D01*
X133449987Y-102869763D01*
X133359745Y-102783375D01*
X133305195Y-102731154D01*
X133305191Y-102731151D01*
X133296640Y-102722965D01*
X133118301Y-102607813D01*
X133007225Y-102563048D01*
X132925929Y-102509850D01*
X132871180Y-102429591D01*
X132851311Y-102334489D01*
X132869350Y-102239023D01*
X132922548Y-102157727D01*
X133007778Y-102100939D01*
X133019026Y-102097639D01*
X133207751Y-102000439D01*
X133374691Y-101869306D01*
X133382455Y-101860359D01*
X133382460Y-101860354D01*
X133506051Y-101717927D01*
X133506053Y-101717924D01*
X133513823Y-101708970D01*
X133519759Y-101698709D01*
X133519762Y-101698705D01*
X133614190Y-101535480D01*
X133614191Y-101535479D01*
X133620126Y-101525219D01*
X133689764Y-101324681D01*
X133720226Y-101114593D01*
X133710411Y-100902534D01*
X133660674Y-100696158D01*
X133614581Y-100594781D01*
X133577714Y-100513697D01*
X133577712Y-100513693D01*
X133572809Y-100502910D01*
X133468575Y-100355967D01*
X133456844Y-100339429D01*
X133456842Y-100339426D01*
X133449987Y-100329763D01*
X133359745Y-100243375D01*
X133305195Y-100191154D01*
X133305191Y-100191151D01*
X133296640Y-100182965D01*
X133118301Y-100067813D01*
X133107315Y-100063385D01*
X133107312Y-100063384D01*
X132932395Y-99992890D01*
X132932390Y-99992889D01*
X132921404Y-99988461D01*
X132713055Y-99947774D01*
X132707453Y-99947500D01*
X131342964Y-99947500D01*
X131184674Y-99962602D01*
X131111997Y-99983923D01*
X130992351Y-100019023D01*
X130992348Y-100019024D01*
X130980974Y-100022361D01*
X130970440Y-100027786D01*
X130970436Y-100027788D01*
X130802782Y-100114136D01*
X130792249Y-100119561D01*
X130625309Y-100250694D01*
X130617545Y-100259641D01*
X130617540Y-100259646D01*
X130493949Y-100402073D01*
X130486177Y-100411030D01*
X130480241Y-100421291D01*
X130480238Y-100421295D01*
X130423772Y-100518900D01*
X130379874Y-100594781D01*
X130310236Y-100795319D01*
X130279774Y-101005407D01*
X130289589Y-101217466D01*
X130339326Y-101423842D01*
X130344229Y-101434627D01*
X130344231Y-101434631D01*
X130390085Y-101535480D01*
X130427191Y-101617090D01*
X130550013Y-101790237D01*
X130558574Y-101798432D01*
X130694805Y-101928846D01*
X130694809Y-101928849D01*
X130703360Y-101937035D01*
X130881699Y-102052187D01*
X130892690Y-102056617D01*
X130892691Y-102056617D01*
X130992775Y-102096952D01*
X131074071Y-102150150D01*
X131128820Y-102230409D01*
X131148689Y-102325511D01*
X131130650Y-102420977D01*
X131077452Y-102502273D01*
X130992222Y-102559061D01*
X130980974Y-102562361D01*
X130792249Y-102659561D01*
X130625309Y-102790694D01*
X130617545Y-102799641D01*
X130617540Y-102799646D01*
X130493949Y-102942073D01*
X130486177Y-102951030D01*
X130480241Y-102961291D01*
X130480238Y-102961295D01*
X130433023Y-103042910D01*
X130379874Y-103134781D01*
X130310236Y-103335319D01*
X130279774Y-103545407D01*
X130289589Y-103757466D01*
X130292367Y-103768991D01*
X130292367Y-103768994D01*
X130336549Y-103952320D01*
X130339326Y-103963842D01*
X130344229Y-103974627D01*
X130344231Y-103974631D01*
X130422286Y-104146303D01*
X130427191Y-104157090D01*
X130550013Y-104330237D01*
X130558574Y-104338432D01*
X130694805Y-104468846D01*
X130694809Y-104468849D01*
X130703360Y-104477035D01*
X130881699Y-104592187D01*
X130892690Y-104596617D01*
X130892691Y-104596617D01*
X130992775Y-104636952D01*
X131074071Y-104690150D01*
X131128820Y-104770409D01*
X131148689Y-104865511D01*
X131130650Y-104960977D01*
X131077452Y-105042273D01*
X130992222Y-105099061D01*
X130980974Y-105102361D01*
X130792249Y-105199561D01*
X130625309Y-105330694D01*
X130617545Y-105339641D01*
X130617540Y-105339646D01*
X130493949Y-105482073D01*
X130486177Y-105491030D01*
X130480241Y-105501291D01*
X130480238Y-105501295D01*
X130433023Y-105582910D01*
X130379874Y-105674781D01*
X130310236Y-105875319D01*
X130279774Y-106085407D01*
X130289589Y-106297466D01*
X130292367Y-106308991D01*
X130292367Y-106308994D01*
X130304474Y-106359231D01*
X130339326Y-106503842D01*
X130344229Y-106514627D01*
X130344231Y-106514631D01*
X130387134Y-106608990D01*
X130427191Y-106697090D01*
X130550013Y-106870237D01*
X130558574Y-106878432D01*
X130694805Y-107008846D01*
X130694809Y-107008849D01*
X130703360Y-107017035D01*
X130881699Y-107132187D01*
X130892690Y-107136617D01*
X130892691Y-107136617D01*
X130992775Y-107176952D01*
X131074071Y-107230150D01*
X131128820Y-107310409D01*
X131148689Y-107405511D01*
X131130650Y-107500977D01*
X131077452Y-107582273D01*
X130992222Y-107639061D01*
X130980974Y-107642361D01*
X130792249Y-107739561D01*
X130625309Y-107870694D01*
X130617545Y-107879641D01*
X130617540Y-107879646D01*
X130533254Y-107976778D01*
X130486177Y-108031030D01*
X130480241Y-108041291D01*
X130480238Y-108041295D01*
X130433023Y-108122910D01*
X130379874Y-108214781D01*
X130310236Y-108415319D01*
X130308535Y-108427053D01*
X130288543Y-108564933D01*
X130279774Y-108625407D01*
X130289589Y-108837466D01*
X130292367Y-108848991D01*
X130292367Y-108848994D01*
X130336025Y-109030144D01*
X130339326Y-109043842D01*
X130344229Y-109054627D01*
X130344231Y-109054631D01*
X130390085Y-109155480D01*
X130427191Y-109237090D01*
X130550013Y-109410237D01*
X130558574Y-109418432D01*
X130694805Y-109548846D01*
X130694809Y-109548849D01*
X130703360Y-109557035D01*
X130881699Y-109672187D01*
X130892690Y-109676617D01*
X130892691Y-109676617D01*
X130992775Y-109716952D01*
X131074071Y-109770150D01*
X131128820Y-109850409D01*
X131148689Y-109945511D01*
X131130650Y-110040977D01*
X131077452Y-110122273D01*
X130992222Y-110179061D01*
X130980974Y-110182361D01*
X130892724Y-110227813D01*
X130829645Y-110260301D01*
X130792249Y-110279561D01*
X130625309Y-110410694D01*
X130617545Y-110419641D01*
X130617540Y-110419646D01*
X130493949Y-110562073D01*
X130486177Y-110571030D01*
X130480241Y-110581291D01*
X130480238Y-110581295D01*
X130433023Y-110662910D01*
X130379874Y-110754781D01*
X130310236Y-110955319D01*
X130279774Y-111165407D01*
X130289589Y-111377466D01*
X130339326Y-111583842D01*
X130344229Y-111594627D01*
X130344231Y-111594631D01*
X130390085Y-111695480D01*
X130427191Y-111777090D01*
X130550013Y-111950237D01*
X130558574Y-111958432D01*
X130694805Y-112088846D01*
X130694809Y-112088849D01*
X130703360Y-112097035D01*
X130881699Y-112212187D01*
X130892689Y-112216616D01*
X130892691Y-112216617D01*
X130992775Y-112256952D01*
X131074071Y-112310150D01*
X131128820Y-112390409D01*
X131148689Y-112485511D01*
X131130650Y-112580977D01*
X131077452Y-112662273D01*
X130992222Y-112719061D01*
X130980974Y-112722361D01*
X130792249Y-112819561D01*
X130782934Y-112826878D01*
X130774313Y-112833650D01*
X130625309Y-112950694D01*
X130617545Y-112959641D01*
X130617540Y-112959646D01*
X130548023Y-113039758D01*
X130486177Y-113111030D01*
X130480241Y-113121291D01*
X130480238Y-113121295D01*
X130385810Y-113284520D01*
X130379874Y-113294781D01*
X130310236Y-113495319D01*
X130279774Y-113705407D01*
X130289589Y-113917466D01*
X130292367Y-113928991D01*
X130292367Y-113928994D01*
X130315226Y-114023844D01*
X130339326Y-114123842D01*
X130344229Y-114134627D01*
X130344231Y-114134631D01*
X130421964Y-114305594D01*
X130427191Y-114317090D01*
X130550013Y-114490237D01*
X130592470Y-114530881D01*
X130694805Y-114628846D01*
X130694809Y-114628849D01*
X130703360Y-114637035D01*
X130881699Y-114752187D01*
X130892690Y-114756617D01*
X130892691Y-114756617D01*
X130992775Y-114796952D01*
X131074071Y-114850150D01*
X131128820Y-114930409D01*
X131148689Y-115025511D01*
X131130650Y-115120977D01*
X131077452Y-115202273D01*
X130992222Y-115259061D01*
X130980974Y-115262361D01*
X130792249Y-115359561D01*
X130625309Y-115490694D01*
X130617545Y-115499641D01*
X130617540Y-115499646D01*
X130493949Y-115642073D01*
X130486177Y-115651030D01*
X130480241Y-115661291D01*
X130480238Y-115661295D01*
X130385810Y-115824520D01*
X130379874Y-115834781D01*
X130310236Y-116035319D01*
X130279774Y-116245407D01*
X130289589Y-116457466D01*
X130292367Y-116468991D01*
X130292367Y-116468994D01*
X130334216Y-116642639D01*
X130339326Y-116663842D01*
X130344229Y-116674627D01*
X130344231Y-116674631D01*
X130422286Y-116846303D01*
X130427191Y-116857090D01*
X130434045Y-116866752D01*
X130539822Y-117015870D01*
X130550013Y-117030237D01*
X130584424Y-117063178D01*
X130694805Y-117168846D01*
X130694809Y-117168849D01*
X130703360Y-117177035D01*
X130881699Y-117292187D01*
X130892690Y-117296617D01*
X130892691Y-117296617D01*
X130992775Y-117336952D01*
X131074071Y-117390150D01*
X131128820Y-117470409D01*
X131148689Y-117565511D01*
X131130650Y-117660977D01*
X131077452Y-117742273D01*
X130992222Y-117799061D01*
X130980974Y-117802361D01*
X130792249Y-117899561D01*
X130625309Y-118030694D01*
X130617545Y-118039641D01*
X130617540Y-118039646D01*
X130493949Y-118182073D01*
X130486177Y-118191030D01*
X130480241Y-118201291D01*
X130480238Y-118201295D01*
X130433366Y-118282317D01*
X130379874Y-118374781D01*
X130310236Y-118575319D01*
X130279774Y-118785407D01*
X130289589Y-118997466D01*
X130292367Y-119008991D01*
X130292367Y-119008994D01*
X130326159Y-119149207D01*
X130339326Y-119203842D01*
X130344229Y-119214627D01*
X130344231Y-119214631D01*
X130388010Y-119310917D01*
X130427191Y-119397090D01*
X130550013Y-119570237D01*
X130558574Y-119578432D01*
X130694805Y-119708846D01*
X130694809Y-119708849D01*
X130703360Y-119717035D01*
X130881699Y-119832187D01*
X130892690Y-119836617D01*
X130892691Y-119836617D01*
X130992775Y-119876952D01*
X131074071Y-119930150D01*
X131128820Y-120010409D01*
X131148689Y-120105511D01*
X131130650Y-120200977D01*
X131077452Y-120282273D01*
X130992222Y-120339061D01*
X130980974Y-120342361D01*
X130792249Y-120439561D01*
X130625309Y-120570694D01*
X130617545Y-120579641D01*
X130617540Y-120579646D01*
X130493949Y-120722073D01*
X130486177Y-120731030D01*
X130480241Y-120741291D01*
X130480238Y-120741295D01*
X130433023Y-120822910D01*
X130379874Y-120914781D01*
X130310236Y-121115319D01*
X130279774Y-121325407D01*
X130289589Y-121537466D01*
X130292367Y-121548991D01*
X130292367Y-121548994D01*
X130330228Y-121706090D01*
X130339326Y-121743842D01*
X130344229Y-121754627D01*
X130344231Y-121754631D01*
X130391458Y-121858500D01*
X130427191Y-121937090D01*
X130550013Y-122110237D01*
X130558574Y-122118432D01*
X130694805Y-122248846D01*
X130694809Y-122248849D01*
X130703360Y-122257035D01*
X130881699Y-122372187D01*
X130892690Y-122376617D01*
X130892691Y-122376617D01*
X130992775Y-122416952D01*
X131074071Y-122470150D01*
X131128820Y-122550409D01*
X131148689Y-122645511D01*
X131130650Y-122740977D01*
X131077452Y-122822273D01*
X130992222Y-122879061D01*
X130980974Y-122882361D01*
X130792249Y-122979561D01*
X130625309Y-123110694D01*
X130617545Y-123119641D01*
X130617540Y-123119646D01*
X130493949Y-123262073D01*
X130486177Y-123271030D01*
X130480241Y-123281291D01*
X130480238Y-123281295D01*
X130433023Y-123362910D01*
X130379874Y-123454781D01*
X130310236Y-123655319D01*
X130279774Y-123865407D01*
X130289589Y-124077466D01*
X130339326Y-124283842D01*
X130344229Y-124294627D01*
X130344231Y-124294631D01*
X130390085Y-124395480D01*
X130427191Y-124477090D01*
X130550013Y-124650237D01*
X130558574Y-124658432D01*
X130694805Y-124788846D01*
X130694809Y-124788849D01*
X130703360Y-124797035D01*
X130881699Y-124912187D01*
X130892690Y-124916617D01*
X130892691Y-124916617D01*
X130992775Y-124956952D01*
X131074071Y-125010150D01*
X131128820Y-125090409D01*
X131148689Y-125185511D01*
X131130650Y-125280977D01*
X131077452Y-125362273D01*
X130992222Y-125419061D01*
X130980974Y-125422361D01*
X130792249Y-125519561D01*
X130625309Y-125650694D01*
X130617545Y-125659641D01*
X130617540Y-125659646D01*
X130493949Y-125802073D01*
X130486177Y-125811030D01*
X130480241Y-125821291D01*
X130480238Y-125821295D01*
X130433023Y-125902910D01*
X130379874Y-125994781D01*
X130310236Y-126195319D01*
X130279774Y-126405407D01*
X130289589Y-126617466D01*
X130339326Y-126823842D01*
X130344229Y-126834627D01*
X130344231Y-126834631D01*
X130390085Y-126935480D01*
X130427191Y-127017090D01*
X130550013Y-127190237D01*
X130558574Y-127198432D01*
X130694805Y-127328846D01*
X130694809Y-127328849D01*
X130703360Y-127337035D01*
X130881699Y-127452187D01*
X130892690Y-127456617D01*
X130892691Y-127456617D01*
X130992775Y-127496952D01*
X131074071Y-127550150D01*
X131128820Y-127630409D01*
X131148689Y-127725511D01*
X131130650Y-127820977D01*
X131077452Y-127902273D01*
X130992222Y-127959061D01*
X130980974Y-127962361D01*
X130792249Y-128059561D01*
X130625309Y-128190694D01*
X130617545Y-128199641D01*
X130617540Y-128199646D01*
X130493949Y-128342073D01*
X130486177Y-128351030D01*
X130480241Y-128361291D01*
X130480238Y-128361295D01*
X130394134Y-128510131D01*
X130379874Y-128534781D01*
X130310236Y-128735319D01*
X130279774Y-128945407D01*
X86090622Y-128945407D01*
X84979189Y-127831298D01*
X84925310Y-127750451D01*
X84906473Y-127656659D01*
X84858902Y-117935774D01*
X90563102Y-117935774D01*
X90563497Y-117946301D01*
X90563497Y-117946305D01*
X90564123Y-117962965D01*
X90571751Y-118166158D01*
X90573915Y-118176470D01*
X90573915Y-118176473D01*
X90578603Y-118198814D01*
X90619093Y-118391791D01*
X90622965Y-118401595D01*
X90622966Y-118401599D01*
X90687149Y-118564118D01*
X90703776Y-118606221D01*
X90709241Y-118615227D01*
X90709244Y-118615233D01*
X90750084Y-118682534D01*
X90823377Y-118803317D01*
X90917528Y-118911817D01*
X90922432Y-118917468D01*
X90970569Y-119001859D01*
X90982745Y-119098248D01*
X90957109Y-119191960D01*
X90897561Y-119268727D01*
X90865396Y-119292398D01*
X90850652Y-119301522D01*
X90725695Y-119426697D01*
X90632885Y-119577262D01*
X90628331Y-119590992D01*
X90628330Y-119590994D01*
X90589241Y-119708846D01*
X90577203Y-119745139D01*
X90575817Y-119758669D01*
X90568943Y-119825759D01*
X90566500Y-119849600D01*
X90566500Y-121150400D01*
X90567165Y-121156805D01*
X90575935Y-121241331D01*
X90577474Y-121256166D01*
X90581786Y-121269091D01*
X90581787Y-121269095D01*
X90628869Y-121410217D01*
X90628871Y-121410222D01*
X90633450Y-121423946D01*
X90641066Y-121436253D01*
X90703699Y-121537466D01*
X90726522Y-121574348D01*
X90851697Y-121699305D01*
X91002262Y-121792115D01*
X91015992Y-121796669D01*
X91015994Y-121796670D01*
X91157232Y-121843516D01*
X91170139Y-121847797D01*
X91216142Y-121852510D01*
X91268281Y-121857853D01*
X91268290Y-121857853D01*
X91274600Y-121858500D01*
X92725400Y-121858500D01*
X92778620Y-121852978D01*
X92817609Y-121848933D01*
X92817612Y-121848932D01*
X92831166Y-121847526D01*
X92844091Y-121843214D01*
X92844095Y-121843213D01*
X92985217Y-121796131D01*
X92985222Y-121796129D01*
X92998946Y-121791550D01*
X93076041Y-121743842D01*
X93137048Y-121706090D01*
X93137051Y-121706088D01*
X93149348Y-121698478D01*
X93274305Y-121573303D01*
X93367115Y-121422738D01*
X93422797Y-121254861D01*
X93433500Y-121150400D01*
X93433500Y-119849600D01*
X93425565Y-119773122D01*
X93423933Y-119757391D01*
X93423932Y-119757388D01*
X93422526Y-119743834D01*
X93415729Y-119723461D01*
X93371131Y-119589783D01*
X93371129Y-119589778D01*
X93366550Y-119576054D01*
X93339638Y-119532565D01*
X93281090Y-119437952D01*
X93281088Y-119437949D01*
X93273478Y-119425652D01*
X93148303Y-119300695D01*
X93135987Y-119293103D01*
X93124635Y-119284138D01*
X93125683Y-119282811D01*
X93067109Y-119228384D01*
X93026663Y-119140048D01*
X93023100Y-119042958D01*
X93056964Y-118951896D01*
X93082442Y-118917557D01*
X93088512Y-118910696D01*
X93096135Y-118903424D01*
X93137041Y-118848445D01*
X93227462Y-118726915D01*
X93227463Y-118726913D01*
X93233754Y-118718458D01*
X93238690Y-118708751D01*
X93333461Y-118522349D01*
X93333462Y-118522347D01*
X93338240Y-118512949D01*
X93346087Y-118487680D01*
X93403480Y-118302843D01*
X93406607Y-118292773D01*
X93426606Y-118141880D01*
X103922776Y-118141880D01*
X103936167Y-118161112D01*
X103946820Y-118170977D01*
X103957521Y-118179829D01*
X104235055Y-118384445D01*
X104246663Y-118392042D01*
X104545291Y-118564454D01*
X104557678Y-118570711D01*
X104873637Y-118708751D01*
X104886673Y-118713599D01*
X105216041Y-118815555D01*
X105229523Y-118818917D01*
X105568234Y-118883529D01*
X105581979Y-118885363D01*
X105925781Y-118911817D01*
X105939659Y-118912107D01*
X106284246Y-118900074D01*
X106298093Y-118898814D01*
X106639192Y-118848445D01*
X106652803Y-118845651D01*
X106986158Y-118757576D01*
X106999376Y-118753281D01*
X107320848Y-118628590D01*
X107333487Y-118622857D01*
X107639060Y-118463107D01*
X107650992Y-118455993D01*
X107936836Y-118263189D01*
X107947911Y-118254782D01*
X108063030Y-118156809D01*
X108075970Y-118140453D01*
X108069320Y-118128530D01*
X106017341Y-116076551D01*
X106000000Y-116064964D01*
X105982659Y-116076551D01*
X103933742Y-118125468D01*
X103922776Y-118141880D01*
X93426606Y-118141880D01*
X93429650Y-118118917D01*
X93435513Y-118074677D01*
X93435513Y-118074675D01*
X93436898Y-118064226D01*
X93435976Y-118039646D01*
X93430716Y-117899561D01*
X93428249Y-117833842D01*
X93420959Y-117799095D01*
X93383072Y-117618527D01*
X93383072Y-117618526D01*
X93380907Y-117608209D01*
X93377034Y-117598401D01*
X93300097Y-117403585D01*
X93300095Y-117403581D01*
X93296224Y-117393779D01*
X93290759Y-117384773D01*
X93290756Y-117384767D01*
X93182092Y-117205696D01*
X93176623Y-117196683D01*
X93025523Y-117022555D01*
X92930678Y-116944787D01*
X92869012Y-116869713D01*
X92840770Y-116776753D01*
X92850251Y-116680062D01*
X92896012Y-116594359D01*
X92932535Y-116558185D01*
X92936640Y-116554884D01*
X93088123Y-116410376D01*
X93102058Y-116394625D01*
X93227033Y-116226652D01*
X93238106Y-116208794D01*
X93332996Y-116022159D01*
X93340901Y-116002691D01*
X93402991Y-115802731D01*
X93407501Y-115782216D01*
X93408019Y-115778312D01*
X93406673Y-115757499D01*
X93396393Y-115754000D01*
X90615220Y-115754000D01*
X90594762Y-115758069D01*
X90593244Y-115765701D01*
X90593338Y-115766608D01*
X90617408Y-115881325D01*
X90623450Y-115901461D01*
X90700352Y-116096192D01*
X90709693Y-116115009D01*
X90818312Y-116294006D01*
X90830695Y-116310988D01*
X90967915Y-116469119D01*
X90982978Y-116483767D01*
X91069322Y-116554565D01*
X91130989Y-116629640D01*
X91159232Y-116722600D01*
X91149752Y-116819291D01*
X91103991Y-116904994D01*
X91072396Y-116936287D01*
X91070681Y-116937441D01*
X91063057Y-116944714D01*
X90923293Y-117078043D01*
X90903865Y-117096576D01*
X90897574Y-117105032D01*
X90897570Y-117105036D01*
X90792791Y-117245864D01*
X90766246Y-117281542D01*
X90761469Y-117290938D01*
X90761467Y-117290941D01*
X90684726Y-117441880D01*
X90661760Y-117487051D01*
X90658635Y-117497115D01*
X90658633Y-117497120D01*
X90624139Y-117608209D01*
X90593393Y-117707227D01*
X90592007Y-117717681D01*
X90592007Y-117717683D01*
X90566932Y-117906878D01*
X90563102Y-117935774D01*
X84858902Y-117935774D01*
X84847775Y-115662091D01*
X102787549Y-115662091D01*
X102801989Y-116006602D01*
X102803343Y-116020403D01*
X102856095Y-116361168D01*
X102858980Y-116374736D01*
X102949383Y-116707478D01*
X102953773Y-116720675D01*
X103080698Y-117041249D01*
X103086527Y-117053866D01*
X103248403Y-117358308D01*
X103255600Y-117370191D01*
X103450398Y-117654688D01*
X103458879Y-117665700D01*
X103543020Y-117763178D01*
X103559468Y-117776005D01*
X103571746Y-117769044D01*
X105623449Y-115717341D01*
X105635036Y-115700000D01*
X106364964Y-115700000D01*
X106376551Y-115717341D01*
X108426170Y-117766960D01*
X108442757Y-117778043D01*
X108460366Y-117765872D01*
X108465510Y-117759742D01*
X108672057Y-117483644D01*
X108679738Y-117472083D01*
X108854230Y-117174670D01*
X108860570Y-117162334D01*
X109000819Y-116847328D01*
X109005749Y-116834348D01*
X109110008Y-116505683D01*
X109113460Y-116492239D01*
X109180436Y-116153991D01*
X109182368Y-116140242D01*
X109211438Y-115794046D01*
X109211863Y-115785367D01*
X109212995Y-115704327D01*
X109212813Y-115695679D01*
X109193419Y-115348787D01*
X109191871Y-115334984D01*
X109134368Y-114995006D01*
X109131293Y-114981470D01*
X109036248Y-114650010D01*
X109031686Y-114636911D01*
X108900287Y-114318111D01*
X108894289Y-114305594D01*
X108728175Y-114003434D01*
X108720818Y-113991659D01*
X108522059Y-113709901D01*
X108513430Y-113699015D01*
X108457646Y-113636183D01*
X108441024Y-113623589D01*
X108427988Y-113631222D01*
X106376551Y-115682659D01*
X106364964Y-115700000D01*
X105635036Y-115700000D01*
X105623449Y-115682659D01*
X103575124Y-113634334D01*
X103557783Y-113622747D01*
X103544306Y-113631752D01*
X103514745Y-113664125D01*
X103505978Y-113674875D01*
X103303303Y-113953833D01*
X103295774Y-113965516D01*
X103125472Y-114265303D01*
X103119287Y-114277762D01*
X102983450Y-114594692D01*
X102978710Y-114607713D01*
X102879045Y-114937822D01*
X102875780Y-114951317D01*
X102813539Y-115290442D01*
X102811795Y-115304250D01*
X102787744Y-115648190D01*
X102787549Y-115662091D01*
X84847775Y-115662091D01*
X84845620Y-115221688D01*
X90591981Y-115221688D01*
X90593327Y-115242501D01*
X90603607Y-115246000D01*
X91721473Y-115246000D01*
X91741931Y-115241931D01*
X91746000Y-115221473D01*
X92254000Y-115221473D01*
X92258069Y-115241931D01*
X92278527Y-115246000D01*
X93384780Y-115246000D01*
X93405238Y-115241931D01*
X93406756Y-115234299D01*
X93406662Y-115233392D01*
X93382592Y-115118675D01*
X93376550Y-115098539D01*
X93299648Y-114903808D01*
X93290307Y-114884991D01*
X93181688Y-114705994D01*
X93169305Y-114689012D01*
X93032085Y-114530881D01*
X93017015Y-114516226D01*
X92855117Y-114383477D01*
X92837797Y-114371573D01*
X92655844Y-114268000D01*
X92636761Y-114259182D01*
X92439950Y-114187744D01*
X92419672Y-114182272D01*
X92278132Y-114156678D01*
X92257280Y-114157042D01*
X92254000Y-114165367D01*
X92254000Y-115221473D01*
X91746000Y-115221473D01*
X91746000Y-114176805D01*
X91741931Y-114156347D01*
X91728807Y-114153737D01*
X91705876Y-114155683D01*
X91685151Y-114159226D01*
X91482508Y-114211821D01*
X91462679Y-114218803D01*
X91271781Y-114304797D01*
X91253420Y-114315017D01*
X91079749Y-114431939D01*
X91063360Y-114445116D01*
X90911877Y-114589624D01*
X90897942Y-114605375D01*
X90772967Y-114773348D01*
X90761894Y-114791206D01*
X90667004Y-114977841D01*
X90659099Y-114997309D01*
X90597009Y-115197269D01*
X90592499Y-115217784D01*
X90591981Y-115221688D01*
X84845620Y-115221688D01*
X84836017Y-113259278D01*
X103923848Y-113259278D01*
X103931136Y-113271926D01*
X105982659Y-115323449D01*
X106000000Y-115335036D01*
X106017341Y-115323449D01*
X108065185Y-113275605D01*
X108076772Y-113258264D01*
X108068082Y-113245258D01*
X108018476Y-113200593D01*
X108007659Y-113191896D01*
X107727300Y-112991180D01*
X107715564Y-112983732D01*
X107414590Y-112815522D01*
X107402096Y-112809428D01*
X107084240Y-112675815D01*
X107071149Y-112671153D01*
X106740381Y-112573802D01*
X106726847Y-112570628D01*
X106387290Y-112510755D01*
X106373499Y-112509110D01*
X106029368Y-112487459D01*
X106015488Y-112487363D01*
X105671089Y-112504206D01*
X105657279Y-112505658D01*
X105316908Y-112560786D01*
X105303341Y-112563769D01*
X104971257Y-112656489D01*
X104958086Y-112660973D01*
X104638402Y-112790133D01*
X104625818Y-112796055D01*
X104322524Y-112960046D01*
X104310696Y-112967322D01*
X104027560Y-113164106D01*
X104016609Y-113172662D01*
X103936561Y-113242740D01*
X103923848Y-113259278D01*
X84836017Y-113259278D01*
X84811400Y-108228918D01*
X103986917Y-108228918D01*
X104002682Y-108502320D01*
X104055405Y-108771053D01*
X104058150Y-108779071D01*
X104058151Y-108779074D01*
X104082090Y-108848994D01*
X104144112Y-109030144D01*
X104147918Y-109037712D01*
X104147920Y-109037716D01*
X104176983Y-109095501D01*
X104267160Y-109274799D01*
X104422274Y-109500490D01*
X104466807Y-109549431D01*
X104600879Y-109696776D01*
X104600883Y-109696780D01*
X104606582Y-109703043D01*
X104816675Y-109878707D01*
X104823852Y-109883209D01*
X104823856Y-109883212D01*
X104866311Y-109909844D01*
X105048664Y-110024234D01*
X105120103Y-110056490D01*
X105282577Y-110129850D01*
X105298257Y-110136930D01*
X105451630Y-110182361D01*
X105552706Y-110212301D01*
X105552709Y-110212302D01*
X105560836Y-110214709D01*
X105831540Y-110256132D01*
X105986095Y-110258560D01*
X106096884Y-110260301D01*
X106096887Y-110260301D01*
X106105362Y-110260434D01*
X106177009Y-110251764D01*
X106368832Y-110228551D01*
X106368834Y-110228551D01*
X106377235Y-110227534D01*
X106421235Y-110215991D01*
X106546806Y-110183048D01*
X106642127Y-110158041D01*
X106649949Y-110154801D01*
X106649955Y-110154799D01*
X106887292Y-110056490D01*
X106895136Y-110053241D01*
X106938805Y-110027723D01*
X107124260Y-109919352D01*
X107124264Y-109919349D01*
X107131582Y-109915073D01*
X107347089Y-109746094D01*
X107388809Y-109703043D01*
X107531767Y-109555521D01*
X107537669Y-109549431D01*
X107542684Y-109542604D01*
X107542689Y-109542598D01*
X107694774Y-109335559D01*
X107694777Y-109335554D01*
X107699795Y-109328723D01*
X107703842Y-109321270D01*
X107826425Y-109095501D01*
X107826427Y-109095496D01*
X107830468Y-109088054D01*
X107833462Y-109080131D01*
X107924272Y-108839809D01*
X107924273Y-108839806D01*
X107927269Y-108831877D01*
X107929162Y-108823612D01*
X107986516Y-108573191D01*
X107986517Y-108573186D01*
X107988407Y-108564933D01*
X107993253Y-108510643D01*
X108012316Y-108297038D01*
X108012316Y-108297032D01*
X108012751Y-108292161D01*
X108013193Y-108250000D01*
X107998965Y-108041295D01*
X107995144Y-107985240D01*
X107995144Y-107985238D01*
X107994567Y-107976778D01*
X107939032Y-107708612D01*
X107915815Y-107643048D01*
X107889061Y-107567500D01*
X107847617Y-107450465D01*
X107841768Y-107439131D01*
X107725903Y-107214648D01*
X107725900Y-107214644D01*
X107722013Y-107207112D01*
X107709380Y-107189136D01*
X107569422Y-106989996D01*
X107569420Y-106989994D01*
X107564545Y-106983057D01*
X107555781Y-106973625D01*
X107383903Y-106788663D01*
X107378125Y-106782445D01*
X107326705Y-106740358D01*
X107172768Y-106614361D01*
X107172761Y-106614356D01*
X107166205Y-106608990D01*
X107036645Y-106529596D01*
X106939927Y-106470327D01*
X106939924Y-106470326D01*
X106932704Y-106465901D01*
X106681945Y-106355825D01*
X106418566Y-106280800D01*
X106410180Y-106279606D01*
X106410173Y-106279605D01*
X106260417Y-106258292D01*
X106147443Y-106242213D01*
X106019290Y-106241542D01*
X105882070Y-106240824D01*
X105882065Y-106240824D01*
X105873591Y-106240780D01*
X105602078Y-106276525D01*
X105337928Y-106348788D01*
X105330128Y-106352115D01*
X105093841Y-106452900D01*
X105093837Y-106452902D01*
X105086030Y-106456232D01*
X104851043Y-106596868D01*
X104844424Y-106602171D01*
X104844418Y-106602175D01*
X104827811Y-106615480D01*
X104637318Y-106768094D01*
X104448808Y-106966742D01*
X104443863Y-106973624D01*
X104443862Y-106973625D01*
X104293943Y-107182259D01*
X104293939Y-107182265D01*
X104289002Y-107189136D01*
X104160857Y-107431161D01*
X104066743Y-107688337D01*
X104053979Y-107746878D01*
X104010212Y-107947612D01*
X104010211Y-107947620D01*
X104008404Y-107955907D01*
X104007738Y-107964369D01*
X103988030Y-108214781D01*
X103986917Y-108228918D01*
X84811400Y-108228918D01*
X84794695Y-104815407D01*
X122659774Y-104815407D01*
X122669589Y-105027466D01*
X122672367Y-105038991D01*
X122672367Y-105038994D01*
X122716549Y-105222320D01*
X122719326Y-105233842D01*
X122724229Y-105244627D01*
X122724231Y-105244631D01*
X122802286Y-105416303D01*
X122807191Y-105427090D01*
X122930013Y-105600237D01*
X122938574Y-105608432D01*
X123074805Y-105738846D01*
X123074809Y-105738849D01*
X123083360Y-105747035D01*
X123261699Y-105862187D01*
X123272685Y-105866615D01*
X123272688Y-105866616D01*
X123447605Y-105937110D01*
X123447610Y-105937111D01*
X123458596Y-105941539D01*
X123666945Y-105982226D01*
X123672547Y-105982500D01*
X125037036Y-105982500D01*
X125195326Y-105967398D01*
X125275730Y-105943810D01*
X125387649Y-105910977D01*
X125387652Y-105910976D01*
X125399026Y-105907639D01*
X125409560Y-105902214D01*
X125409564Y-105902212D01*
X125577218Y-105815864D01*
X125577219Y-105815863D01*
X125587751Y-105810439D01*
X125754691Y-105679306D01*
X125762455Y-105670359D01*
X125762460Y-105670354D01*
X125886051Y-105527927D01*
X125886053Y-105527924D01*
X125893823Y-105518970D01*
X125899759Y-105508709D01*
X125899762Y-105508705D01*
X125994190Y-105345480D01*
X125994191Y-105345479D01*
X126000126Y-105335219D01*
X126069764Y-105134681D01*
X126088108Y-105008164D01*
X126098525Y-104936326D01*
X126098525Y-104936323D01*
X126100226Y-104924593D01*
X126090411Y-104712534D01*
X126086843Y-104697727D01*
X126043451Y-104517680D01*
X126043450Y-104517678D01*
X126040674Y-104506158D01*
X126030355Y-104483461D01*
X125957714Y-104323697D01*
X125957712Y-104323693D01*
X125952809Y-104312910D01*
X125829987Y-104139763D01*
X125756742Y-104069646D01*
X125685195Y-104001154D01*
X125685191Y-104001151D01*
X125676640Y-103992965D01*
X125498301Y-103877813D01*
X125487315Y-103873385D01*
X125487312Y-103873384D01*
X125312395Y-103802890D01*
X125312390Y-103802889D01*
X125301404Y-103798461D01*
X125093055Y-103757774D01*
X125087453Y-103757500D01*
X123722964Y-103757500D01*
X123564674Y-103772602D01*
X123491997Y-103793923D01*
X123372351Y-103829023D01*
X123372348Y-103829024D01*
X123360974Y-103832361D01*
X123350440Y-103837786D01*
X123350436Y-103837788D01*
X123182782Y-103924136D01*
X123172249Y-103929561D01*
X123005309Y-104060694D01*
X122997545Y-104069641D01*
X122997540Y-104069646D01*
X122873949Y-104212073D01*
X122866177Y-104221030D01*
X122860241Y-104231291D01*
X122860238Y-104231295D01*
X122813023Y-104312910D01*
X122759874Y-104404781D01*
X122690236Y-104605319D01*
X122677936Y-104690150D01*
X122665050Y-104779023D01*
X122659774Y-104815407D01*
X84794695Y-104815407D01*
X84768400Y-99442104D01*
X187169311Y-99442104D01*
X187205692Y-99653830D01*
X187209643Y-99664541D01*
X187209644Y-99664543D01*
X187216604Y-99683408D01*
X187280048Y-99855380D01*
X187285883Y-99865188D01*
X187285884Y-99865190D01*
X187377405Y-100019023D01*
X187389888Y-100040006D01*
X187397414Y-100048588D01*
X187397415Y-100048589D01*
X187524009Y-100192942D01*
X187524013Y-100192946D01*
X187531535Y-100201523D01*
X187700244Y-100334522D01*
X187890365Y-100434550D01*
X187901271Y-100437936D01*
X187901270Y-100437936D01*
X188084622Y-100494868D01*
X188084625Y-100494869D01*
X188095531Y-100498255D01*
X188269956Y-100518900D01*
X189714902Y-100518900D01*
X189782797Y-100512661D01*
X189862960Y-100505296D01*
X189862965Y-100505295D01*
X189874328Y-100504251D01*
X190081091Y-100445938D01*
X190273765Y-100350921D01*
X190407986Y-100250694D01*
X190436749Y-100229216D01*
X190436750Y-100229215D01*
X190445898Y-100222384D01*
X190482337Y-100182965D01*
X190583971Y-100073017D01*
X190591724Y-100064630D01*
X190656810Y-99961476D01*
X190700267Y-99892600D01*
X190700267Y-99892599D01*
X190706360Y-99882943D01*
X190713443Y-99865190D01*
X190781736Y-99694012D01*
X190781738Y-99694007D01*
X190785966Y-99683408D01*
X190827877Y-99472707D01*
X190830689Y-99257896D01*
X190794308Y-99046170D01*
X190787527Y-99027788D01*
X190723903Y-98855329D01*
X190723902Y-98855327D01*
X190719952Y-98844620D01*
X190649923Y-98726910D01*
X190615948Y-98669803D01*
X190615946Y-98669801D01*
X190610112Y-98659994D01*
X190564501Y-98607985D01*
X190475991Y-98507058D01*
X190475987Y-98507054D01*
X190468465Y-98498477D01*
X190299756Y-98365478D01*
X190175594Y-98300153D01*
X190100090Y-98239011D01*
X190053732Y-98153630D01*
X190043577Y-98057007D01*
X190071170Y-97963853D01*
X190132312Y-97888349D01*
X190181402Y-97856470D01*
X190263529Y-97815969D01*
X190263530Y-97815968D01*
X190273765Y-97810921D01*
X190445898Y-97682384D01*
X190591724Y-97524630D01*
X190641664Y-97445481D01*
X190700267Y-97352600D01*
X190700267Y-97352599D01*
X190706360Y-97342943D01*
X190713443Y-97325190D01*
X190781736Y-97154012D01*
X190781738Y-97154007D01*
X190785966Y-97143408D01*
X190827877Y-96932707D01*
X190830689Y-96717896D01*
X190794308Y-96506170D01*
X190787527Y-96487788D01*
X190723903Y-96315329D01*
X190723902Y-96315327D01*
X190719952Y-96304620D01*
X190697809Y-96267400D01*
X190615948Y-96129803D01*
X190615946Y-96129801D01*
X190610112Y-96119994D01*
X190581162Y-96086983D01*
X190475991Y-95967058D01*
X190475987Y-95967054D01*
X190468465Y-95958477D01*
X190299756Y-95825478D01*
X190175594Y-95760153D01*
X190100090Y-95699011D01*
X190053732Y-95613630D01*
X190043577Y-95517007D01*
X190071170Y-95423853D01*
X190132312Y-95348349D01*
X190181402Y-95316470D01*
X190263529Y-95275969D01*
X190263530Y-95275968D01*
X190273765Y-95270921D01*
X190445898Y-95142384D01*
X190591724Y-94984630D01*
X190604133Y-94964964D01*
X190700267Y-94812600D01*
X190700267Y-94812599D01*
X190706360Y-94802943D01*
X190713443Y-94785190D01*
X190781736Y-94614012D01*
X190781738Y-94614007D01*
X190785966Y-94603408D01*
X190827877Y-94392707D01*
X190829941Y-94235036D01*
X190830540Y-94189309D01*
X190830540Y-94189305D01*
X190830689Y-94177896D01*
X190794308Y-93966170D01*
X190787527Y-93947788D01*
X190723903Y-93775329D01*
X190723902Y-93775327D01*
X190719952Y-93764620D01*
X190610112Y-93579994D01*
X190581162Y-93546983D01*
X190475991Y-93427058D01*
X190475987Y-93427054D01*
X190468465Y-93418477D01*
X190299756Y-93285478D01*
X190175044Y-93219864D01*
X190099543Y-93158723D01*
X190053185Y-93073341D01*
X190043030Y-92976718D01*
X190070623Y-92883564D01*
X190131765Y-92808061D01*
X190180855Y-92776182D01*
X190263261Y-92735544D01*
X190282651Y-92723662D01*
X190436413Y-92608843D01*
X190453313Y-92593627D01*
X190583580Y-92452704D01*
X190597416Y-92434672D01*
X190699823Y-92272366D01*
X190710142Y-92252113D01*
X190781252Y-92073875D01*
X190787714Y-92052061D01*
X190796467Y-92008054D01*
X190796467Y-91987197D01*
X190788749Y-91984000D01*
X187222164Y-91984000D01*
X187201706Y-91988069D01*
X187199898Y-91997159D01*
X187204243Y-92022442D01*
X187210129Y-92044413D01*
X187276550Y-92224454D01*
X187286339Y-92244976D01*
X187384457Y-92409898D01*
X187397824Y-92428296D01*
X187524355Y-92572578D01*
X187540845Y-92588225D01*
X187691554Y-92707035D01*
X187710613Y-92719412D01*
X187824961Y-92779574D01*
X187900464Y-92840716D01*
X187946822Y-92926098D01*
X187956977Y-93022720D01*
X187929384Y-93115875D01*
X187868242Y-93191378D01*
X187819152Y-93223257D01*
X187726235Y-93269079D01*
X187554102Y-93397616D01*
X187408276Y-93555370D01*
X187293640Y-93737057D01*
X187289411Y-93747657D01*
X187289409Y-93747661D01*
X187218264Y-93925988D01*
X187218262Y-93925993D01*
X187214034Y-93936592D01*
X187172123Y-94147293D01*
X187169311Y-94362104D01*
X187205692Y-94573830D01*
X187209643Y-94584541D01*
X187209644Y-94584543D01*
X187216604Y-94603408D01*
X187280048Y-94775380D01*
X187389888Y-94960006D01*
X187397414Y-94968588D01*
X187397415Y-94968589D01*
X187524009Y-95112942D01*
X187524013Y-95112946D01*
X187531535Y-95121523D01*
X187700244Y-95254522D01*
X187710343Y-95259835D01*
X187710344Y-95259836D01*
X187824406Y-95319847D01*
X187899910Y-95380989D01*
X187946268Y-95466370D01*
X187956423Y-95562993D01*
X187928830Y-95656147D01*
X187867688Y-95731651D01*
X187818598Y-95763530D01*
X187763396Y-95790753D01*
X187726235Y-95809079D01*
X187554102Y-95937616D01*
X187408276Y-96095370D01*
X187402183Y-96105026D01*
X187402182Y-96105028D01*
X187356603Y-96177267D01*
X187293640Y-96277057D01*
X187289411Y-96287657D01*
X187289409Y-96287661D01*
X187218264Y-96465988D01*
X187218262Y-96465993D01*
X187214034Y-96476592D01*
X187172123Y-96687293D01*
X187171573Y-96729309D01*
X187169470Y-96889989D01*
X187169311Y-96902104D01*
X187205692Y-97113830D01*
X187209643Y-97124541D01*
X187209644Y-97124543D01*
X187275032Y-97301784D01*
X187280048Y-97315380D01*
X187389888Y-97500006D01*
X187397414Y-97508588D01*
X187397415Y-97508589D01*
X187524009Y-97652942D01*
X187524013Y-97652946D01*
X187531535Y-97661523D01*
X187700244Y-97794522D01*
X187710343Y-97799835D01*
X187710344Y-97799836D01*
X187824406Y-97859847D01*
X187899910Y-97920989D01*
X187946268Y-98006370D01*
X187956423Y-98102993D01*
X187928830Y-98196147D01*
X187867688Y-98271651D01*
X187818598Y-98303530D01*
X187736471Y-98344031D01*
X187726235Y-98349079D01*
X187554102Y-98477616D01*
X187408276Y-98635370D01*
X187402183Y-98645026D01*
X187402182Y-98645028D01*
X187315376Y-98782608D01*
X187293640Y-98817057D01*
X187289411Y-98827657D01*
X187289409Y-98827661D01*
X187218264Y-99005988D01*
X187218262Y-99005993D01*
X187214034Y-99016592D01*
X187172123Y-99227293D01*
X187169311Y-99442104D01*
X84768400Y-99442104D01*
X84757697Y-97254922D01*
X89710042Y-97254922D01*
X89716827Y-97265075D01*
X89930149Y-97437819D01*
X89940694Y-97445481D01*
X90238127Y-97638636D01*
X90249396Y-97645143D01*
X90565407Y-97806158D01*
X90577298Y-97811452D01*
X90908383Y-97938544D01*
X90920782Y-97942573D01*
X91263342Y-98034362D01*
X91276099Y-98037073D01*
X91626371Y-98092550D01*
X91639315Y-98093911D01*
X91993493Y-98112473D01*
X92006507Y-98112473D01*
X92360685Y-98093911D01*
X92373629Y-98092550D01*
X92723901Y-98037073D01*
X92736658Y-98034362D01*
X93079218Y-97942573D01*
X93091617Y-97938544D01*
X93422702Y-97811452D01*
X93434593Y-97806158D01*
X93750604Y-97645143D01*
X93761873Y-97638636D01*
X94059306Y-97445481D01*
X94069851Y-97437819D01*
X94276653Y-97270356D01*
X94289989Y-97254321D01*
X94284303Y-97243513D01*
X94083067Y-97042277D01*
X104137009Y-97042277D01*
X104137866Y-97051258D01*
X104137866Y-97051264D01*
X104147669Y-97154012D01*
X104162625Y-97310769D01*
X104164769Y-97319533D01*
X104164770Y-97319536D01*
X104208931Y-97500006D01*
X104226731Y-97572750D01*
X104327985Y-97822733D01*
X104464265Y-98055482D01*
X104469893Y-98062519D01*
X104469894Y-98062521D01*
X104576758Y-98196147D01*
X104632716Y-98266119D01*
X104829809Y-98450234D01*
X104837220Y-98455375D01*
X104837221Y-98455376D01*
X104911721Y-98507058D01*
X105051416Y-98603968D01*
X105059487Y-98607983D01*
X105059490Y-98607985D01*
X105284819Y-98720084D01*
X105292894Y-98724101D01*
X105549186Y-98808118D01*
X105558064Y-98809659D01*
X105558066Y-98809660D01*
X105807427Y-98852956D01*
X105807430Y-98852956D01*
X105814921Y-98854257D01*
X105900149Y-98858500D01*
X106068512Y-98858500D01*
X106073015Y-98858173D01*
X106073023Y-98858173D01*
X106259997Y-98844607D01*
X106260004Y-98844606D01*
X106269004Y-98843953D01*
X106277818Y-98842007D01*
X106277825Y-98842006D01*
X106523554Y-98787753D01*
X106523556Y-98787752D01*
X106532372Y-98785806D01*
X106540813Y-98782608D01*
X106776158Y-98693444D01*
X106776160Y-98693443D01*
X106784588Y-98690250D01*
X107020368Y-98559286D01*
X107234773Y-98395657D01*
X107355998Y-98271651D01*
X107417002Y-98209247D01*
X107417003Y-98209245D01*
X107423312Y-98202792D01*
X107582034Y-97984730D01*
X107586232Y-97976751D01*
X107703414Y-97754024D01*
X107703414Y-97754023D01*
X107707615Y-97746039D01*
X107771908Y-97563977D01*
X107794421Y-97500227D01*
X107794422Y-97500225D01*
X107797425Y-97491720D01*
X107808049Y-97437819D01*
X107847837Y-97235951D01*
X107847838Y-97235944D01*
X107849581Y-97227100D01*
X107853220Y-97154012D01*
X107858782Y-97042277D01*
X107862991Y-96957723D01*
X107861673Y-96943899D01*
X107838232Y-96698216D01*
X107837375Y-96689231D01*
X107832633Y-96669851D01*
X107775416Y-96436023D01*
X107775415Y-96436020D01*
X107773269Y-96427250D01*
X107672015Y-96177267D01*
X107535735Y-95944518D01*
X107436287Y-95820164D01*
X107372919Y-95740927D01*
X107372918Y-95740926D01*
X107367284Y-95733881D01*
X107170191Y-95549766D01*
X106988688Y-95423853D01*
X106955995Y-95401173D01*
X106955993Y-95401172D01*
X106948584Y-95396032D01*
X106940513Y-95392017D01*
X106940510Y-95392015D01*
X106715181Y-95279916D01*
X106715178Y-95279915D01*
X106707106Y-95275899D01*
X106450814Y-95191882D01*
X106441936Y-95190341D01*
X106441934Y-95190340D01*
X106192573Y-95147044D01*
X106192570Y-95147044D01*
X106185079Y-95145743D01*
X106099851Y-95141500D01*
X105931488Y-95141500D01*
X105926985Y-95141827D01*
X105926977Y-95141827D01*
X105740003Y-95155393D01*
X105739996Y-95155394D01*
X105730996Y-95156047D01*
X105722182Y-95157993D01*
X105722175Y-95157994D01*
X105476446Y-95212247D01*
X105476444Y-95212248D01*
X105467628Y-95214194D01*
X105459187Y-95217392D01*
X105294158Y-95279916D01*
X105215412Y-95309750D01*
X104979632Y-95440714D01*
X104765227Y-95604343D01*
X104714974Y-95655749D01*
X104609611Y-95763530D01*
X104576688Y-95797208D01*
X104417966Y-96015270D01*
X104413768Y-96023248D01*
X104413768Y-96023249D01*
X104332736Y-96177267D01*
X104292385Y-96253961D01*
X104289381Y-96262468D01*
X104209812Y-96487788D01*
X104202575Y-96508280D01*
X104200831Y-96517128D01*
X104200830Y-96517132D01*
X104152163Y-96764049D01*
X104152162Y-96764056D01*
X104150419Y-96772900D01*
X104137009Y-97042277D01*
X94083067Y-97042277D01*
X92017341Y-94976551D01*
X92000000Y-94964964D01*
X91982659Y-94976551D01*
X89721629Y-97237581D01*
X89710042Y-97254922D01*
X84757697Y-97254922D01*
X84744737Y-94606507D01*
X88487527Y-94606507D01*
X88506089Y-94960685D01*
X88507450Y-94973629D01*
X88562927Y-95323901D01*
X88565638Y-95336658D01*
X88657427Y-95679218D01*
X88661456Y-95691617D01*
X88788548Y-96022702D01*
X88793842Y-96034593D01*
X88954857Y-96350604D01*
X88961364Y-96361873D01*
X89154519Y-96659306D01*
X89162181Y-96669851D01*
X89329644Y-96876653D01*
X89345679Y-96889989D01*
X89356487Y-96884303D01*
X91623449Y-94617341D01*
X91635036Y-94600000D01*
X92364964Y-94600000D01*
X92376551Y-94617341D01*
X94637581Y-96878371D01*
X94654922Y-96889958D01*
X94665075Y-96883173D01*
X94837819Y-96669851D01*
X94845481Y-96659306D01*
X95038636Y-96361873D01*
X95045143Y-96350604D01*
X95206158Y-96034593D01*
X95211452Y-96022702D01*
X95338544Y-95691617D01*
X95342573Y-95679218D01*
X95434362Y-95336658D01*
X95437073Y-95323901D01*
X95492550Y-94973629D01*
X95493911Y-94960685D01*
X95512473Y-94606507D01*
X95512473Y-94593493D01*
X95493911Y-94239315D01*
X95492550Y-94226371D01*
X95437073Y-93876099D01*
X95434362Y-93863342D01*
X95342573Y-93520782D01*
X95338544Y-93508383D01*
X95211452Y-93177298D01*
X95206158Y-93165407D01*
X95045143Y-92849396D01*
X95038636Y-92838127D01*
X94845481Y-92540694D01*
X94837819Y-92530149D01*
X94670356Y-92323347D01*
X94654321Y-92310011D01*
X94643513Y-92315697D01*
X92376551Y-94582659D01*
X92364964Y-94600000D01*
X91635036Y-94600000D01*
X91623449Y-94582659D01*
X89362419Y-92321629D01*
X89345078Y-92310042D01*
X89334925Y-92316827D01*
X89162181Y-92530149D01*
X89154519Y-92540694D01*
X88961364Y-92838127D01*
X88954857Y-92849396D01*
X88793842Y-93165407D01*
X88788548Y-93177298D01*
X88661456Y-93508383D01*
X88657427Y-93520782D01*
X88565638Y-93863342D01*
X88562927Y-93876099D01*
X88507450Y-94226371D01*
X88506089Y-94239315D01*
X88487527Y-94593493D01*
X88487527Y-94606507D01*
X84744737Y-94606507D01*
X84710718Y-87654799D01*
X84701581Y-85787663D01*
X88491500Y-85787663D01*
X88491501Y-89012336D01*
X88494257Y-89075480D01*
X88499615Y-89109309D01*
X88528765Y-89293357D01*
X88538198Y-89352918D01*
X88620325Y-89621540D01*
X88739036Y-89876118D01*
X88892023Y-90111697D01*
X89076308Y-90323692D01*
X89288303Y-90507977D01*
X89523882Y-90660964D01*
X89778460Y-90779675D01*
X89786768Y-90782215D01*
X89786773Y-90782217D01*
X89912771Y-90820739D01*
X90047082Y-90861802D01*
X90055663Y-90863161D01*
X90055667Y-90863162D01*
X90317541Y-90904638D01*
X90317547Y-90904639D01*
X90324520Y-90905743D01*
X90387663Y-90908500D01*
X90484383Y-90908500D01*
X90579671Y-90927454D01*
X90660453Y-90981430D01*
X90714429Y-91062212D01*
X90733383Y-91157500D01*
X90714429Y-91252788D01*
X90660453Y-91333570D01*
X90582489Y-91384200D01*
X90583246Y-91385900D01*
X90565407Y-91393842D01*
X90249396Y-91554857D01*
X90238127Y-91561364D01*
X89940694Y-91754519D01*
X89930149Y-91762181D01*
X89723347Y-91929644D01*
X89710011Y-91945679D01*
X89715697Y-91956487D01*
X91982659Y-94223449D01*
X92000000Y-94235036D01*
X92017341Y-94223449D01*
X94278371Y-91962419D01*
X94289958Y-91945078D01*
X94283173Y-91934925D01*
X94069851Y-91762181D01*
X94059306Y-91754519D01*
X93761873Y-91561364D01*
X93750604Y-91554857D01*
X93434593Y-91393842D01*
X93416754Y-91385900D01*
X93417454Y-91384327D01*
X93344221Y-91338124D01*
X93288145Y-91258786D01*
X93266700Y-91164027D01*
X93283149Y-91068275D01*
X93334989Y-90986106D01*
X93414327Y-90930030D01*
X93515614Y-90908499D01*
X93612336Y-90908499D01*
X93615057Y-90908380D01*
X93615068Y-90908380D01*
X93648613Y-90906916D01*
X93675480Y-90905743D01*
X93812042Y-90884114D01*
X93944333Y-90863162D01*
X93944337Y-90863161D01*
X93952918Y-90861802D01*
X94087229Y-90820739D01*
X94213227Y-90782217D01*
X94213232Y-90782215D01*
X94221540Y-90779675D01*
X94476118Y-90660964D01*
X94711697Y-90507977D01*
X94923692Y-90323692D01*
X95107977Y-90111697D01*
X95260964Y-89876118D01*
X95379675Y-89621540D01*
X95461802Y-89352918D01*
X95469978Y-89301296D01*
X95473018Y-89282104D01*
X187169311Y-89282104D01*
X187205692Y-89493830D01*
X187209643Y-89504541D01*
X187209644Y-89504543D01*
X187216604Y-89523408D01*
X187280048Y-89695380D01*
X187389888Y-89880006D01*
X187397414Y-89888588D01*
X187397415Y-89888589D01*
X187524009Y-90032942D01*
X187524013Y-90032946D01*
X187531535Y-90041523D01*
X187700244Y-90174522D01*
X187824956Y-90240136D01*
X187900457Y-90301277D01*
X187946815Y-90386659D01*
X187956970Y-90483282D01*
X187929377Y-90576436D01*
X187868235Y-90651939D01*
X187819145Y-90683818D01*
X187736739Y-90724456D01*
X187717349Y-90736338D01*
X187563587Y-90851157D01*
X187546687Y-90866373D01*
X187416420Y-91007296D01*
X187402584Y-91025328D01*
X187300177Y-91187634D01*
X187289858Y-91207887D01*
X187218748Y-91386125D01*
X187212286Y-91407939D01*
X187203533Y-91451946D01*
X187203533Y-91472803D01*
X187211251Y-91476000D01*
X190777836Y-91476000D01*
X190798294Y-91471931D01*
X190800102Y-91462841D01*
X190795757Y-91437558D01*
X190789871Y-91415587D01*
X190723450Y-91235546D01*
X190713661Y-91215024D01*
X190615543Y-91050102D01*
X190602176Y-91031704D01*
X190475645Y-90887422D01*
X190459155Y-90871775D01*
X190308446Y-90752965D01*
X190289387Y-90740588D01*
X190175039Y-90680426D01*
X190099536Y-90619284D01*
X190053178Y-90533902D01*
X190043023Y-90437280D01*
X190070616Y-90344125D01*
X190131758Y-90268622D01*
X190180848Y-90236743D01*
X190263529Y-90195969D01*
X190263530Y-90195968D01*
X190273765Y-90190921D01*
X190371064Y-90118265D01*
X190436749Y-90069216D01*
X190436750Y-90069215D01*
X190445898Y-90062384D01*
X190591724Y-89904630D01*
X190614690Y-89868232D01*
X190700267Y-89732600D01*
X190700267Y-89732599D01*
X190706360Y-89722943D01*
X190713443Y-89705190D01*
X190781736Y-89534012D01*
X190781738Y-89534007D01*
X190785966Y-89523408D01*
X190827877Y-89312707D01*
X190830689Y-89097896D01*
X190794308Y-88886170D01*
X190787527Y-88867788D01*
X190723903Y-88695329D01*
X190723902Y-88695327D01*
X190719952Y-88684620D01*
X190610112Y-88499994D01*
X190581162Y-88466983D01*
X190475991Y-88347058D01*
X190475987Y-88347054D01*
X190468465Y-88338477D01*
X190299756Y-88205478D01*
X190175594Y-88140153D01*
X190100090Y-88079011D01*
X190053732Y-87993630D01*
X190043577Y-87897007D01*
X190071170Y-87803853D01*
X190132312Y-87728349D01*
X190181402Y-87696470D01*
X190263529Y-87655969D01*
X190263530Y-87655968D01*
X190273765Y-87650921D01*
X190445898Y-87522384D01*
X190591724Y-87364630D01*
X190670359Y-87240002D01*
X190700267Y-87192600D01*
X190700267Y-87192599D01*
X190706360Y-87182943D01*
X190713443Y-87165190D01*
X190781736Y-86994012D01*
X190781738Y-86994007D01*
X190785966Y-86983408D01*
X190827877Y-86772707D01*
X190830197Y-86595501D01*
X190830540Y-86569309D01*
X190830540Y-86569305D01*
X190830689Y-86557896D01*
X190794308Y-86346170D01*
X190787527Y-86327788D01*
X190723903Y-86155329D01*
X190723902Y-86155327D01*
X190719952Y-86144620D01*
X190610112Y-85959994D01*
X190581162Y-85926983D01*
X190475991Y-85807058D01*
X190475987Y-85807054D01*
X190468465Y-85798477D01*
X190299756Y-85665478D01*
X190109635Y-85565450D01*
X190070673Y-85553352D01*
X189915378Y-85505132D01*
X189915375Y-85505131D01*
X189904469Y-85501745D01*
X189730044Y-85481100D01*
X188285098Y-85481100D01*
X188217203Y-85487339D01*
X188137040Y-85494704D01*
X188137035Y-85494705D01*
X188125672Y-85495749D01*
X187918909Y-85554062D01*
X187726235Y-85649079D01*
X187717094Y-85655905D01*
X187591085Y-85750000D01*
X187554102Y-85777616D01*
X187546350Y-85786002D01*
X187546349Y-85786003D01*
X187534818Y-85798477D01*
X187408276Y-85935370D01*
X187402183Y-85945026D01*
X187402182Y-85945028D01*
X187360782Y-86010643D01*
X187293640Y-86117057D01*
X187289411Y-86127657D01*
X187289409Y-86127661D01*
X187218264Y-86305988D01*
X187218262Y-86305993D01*
X187214034Y-86316592D01*
X187172123Y-86527293D01*
X187169311Y-86742104D01*
X187205692Y-86953830D01*
X187209643Y-86964541D01*
X187209644Y-86964543D01*
X187238440Y-87042598D01*
X187280048Y-87155380D01*
X187285883Y-87165188D01*
X187285884Y-87165190D01*
X187337129Y-87251325D01*
X187389888Y-87340006D01*
X187397414Y-87348588D01*
X187397415Y-87348589D01*
X187524009Y-87492942D01*
X187524013Y-87492946D01*
X187531535Y-87501523D01*
X187700244Y-87634522D01*
X187710343Y-87639835D01*
X187710344Y-87639836D01*
X187824406Y-87699847D01*
X187899910Y-87760989D01*
X187946268Y-87846370D01*
X187956423Y-87942993D01*
X187928830Y-88036147D01*
X187867688Y-88111651D01*
X187818598Y-88143530D01*
X187736471Y-88184031D01*
X187726235Y-88189079D01*
X187554102Y-88317616D01*
X187408276Y-88475370D01*
X187293640Y-88657057D01*
X187289411Y-88667657D01*
X187289409Y-88667661D01*
X187218264Y-88845988D01*
X187218262Y-88845993D01*
X187214034Y-88856592D01*
X187211807Y-88867788D01*
X187183055Y-89012336D01*
X187172123Y-89067293D01*
X187169311Y-89282104D01*
X95473018Y-89282104D01*
X95504638Y-89082459D01*
X95504639Y-89082453D01*
X95505743Y-89075480D01*
X95508500Y-89012337D01*
X95508499Y-85787664D01*
X95508061Y-85777616D01*
X95506051Y-85731580D01*
X95505935Y-85728918D01*
X103986917Y-85728918D01*
X104002682Y-86002320D01*
X104055405Y-86271053D01*
X104058150Y-86279071D01*
X104058151Y-86279074D01*
X104081123Y-86346170D01*
X104144112Y-86530144D01*
X104147918Y-86537712D01*
X104147920Y-86537716D01*
X104176983Y-86595501D01*
X104267160Y-86774799D01*
X104422274Y-87000490D01*
X104427976Y-87006756D01*
X104600879Y-87196776D01*
X104600883Y-87196780D01*
X104606582Y-87203043D01*
X104816675Y-87378707D01*
X104823852Y-87383209D01*
X104823856Y-87383212D01*
X104866311Y-87409844D01*
X105048664Y-87524234D01*
X105298257Y-87636930D01*
X105468211Y-87687272D01*
X105552706Y-87712301D01*
X105552709Y-87712302D01*
X105560836Y-87714709D01*
X105831540Y-87756132D01*
X105986095Y-87758560D01*
X106096884Y-87760301D01*
X106096887Y-87760301D01*
X106105362Y-87760434D01*
X106177009Y-87751764D01*
X106368832Y-87728551D01*
X106368834Y-87728551D01*
X106377235Y-87727534D01*
X106421235Y-87715991D01*
X106633935Y-87660190D01*
X106642127Y-87658041D01*
X106649949Y-87654801D01*
X106649955Y-87654799D01*
X106887292Y-87556490D01*
X106895136Y-87553241D01*
X106938805Y-87527723D01*
X107124260Y-87419352D01*
X107124264Y-87419349D01*
X107131582Y-87415073D01*
X107347089Y-87246094D01*
X107388809Y-87203043D01*
X107531767Y-87055521D01*
X107537669Y-87049431D01*
X107542684Y-87042604D01*
X107542689Y-87042598D01*
X107694774Y-86835559D01*
X107694777Y-86835554D01*
X107699795Y-86828723D01*
X107725283Y-86781780D01*
X107826425Y-86595501D01*
X107826427Y-86595496D01*
X107830468Y-86588054D01*
X107927269Y-86331877D01*
X107933198Y-86305988D01*
X107986516Y-86073191D01*
X107986517Y-86073186D01*
X107988407Y-86064933D01*
X107993253Y-86010643D01*
X108012316Y-85797038D01*
X108012316Y-85797032D01*
X108012751Y-85792161D01*
X108013193Y-85750000D01*
X107994567Y-85476778D01*
X107939032Y-85208612D01*
X107847617Y-84950465D01*
X107841768Y-84939131D01*
X107725903Y-84714648D01*
X107725900Y-84714644D01*
X107722013Y-84707112D01*
X107713923Y-84695600D01*
X107569422Y-84489996D01*
X107569420Y-84489994D01*
X107564545Y-84483057D01*
X107558274Y-84476308D01*
X107383903Y-84288663D01*
X107378125Y-84282445D01*
X107326705Y-84240358D01*
X107172768Y-84114361D01*
X107172761Y-84114356D01*
X107166205Y-84108990D01*
X106932704Y-83965901D01*
X106681945Y-83855825D01*
X106418566Y-83780800D01*
X106410180Y-83779606D01*
X106410173Y-83779605D01*
X106260417Y-83758292D01*
X106147443Y-83742213D01*
X106019290Y-83741542D01*
X105882070Y-83740824D01*
X105882065Y-83740824D01*
X105873591Y-83740780D01*
X105602078Y-83776525D01*
X105337928Y-83848788D01*
X105330128Y-83852115D01*
X105093841Y-83952900D01*
X105093837Y-83952902D01*
X105086030Y-83956232D01*
X104851043Y-84096868D01*
X104844424Y-84102171D01*
X104844418Y-84102175D01*
X104792493Y-84143775D01*
X104637318Y-84268094D01*
X104448808Y-84466742D01*
X104443863Y-84473624D01*
X104443862Y-84473625D01*
X104293943Y-84682259D01*
X104293939Y-84682265D01*
X104289002Y-84689136D01*
X104160857Y-84931161D01*
X104066743Y-85188337D01*
X104060511Y-85216919D01*
X104010212Y-85447612D01*
X104010211Y-85447620D01*
X104008404Y-85455907D01*
X104007738Y-85464369D01*
X103993201Y-85649079D01*
X103986917Y-85728918D01*
X95505935Y-85728918D01*
X95505743Y-85724520D01*
X95480013Y-85562064D01*
X95463162Y-85455667D01*
X95463161Y-85455663D01*
X95461802Y-85447082D01*
X95420739Y-85312771D01*
X95382217Y-85186773D01*
X95382215Y-85186768D01*
X95379675Y-85178460D01*
X95260964Y-84923882D01*
X95107977Y-84688303D01*
X94923692Y-84476308D01*
X94711697Y-84292023D01*
X94696949Y-84282445D01*
X94483415Y-84143775D01*
X94476118Y-84139036D01*
X94221540Y-84020325D01*
X94213232Y-84017785D01*
X94213227Y-84017783D01*
X94043529Y-83965901D01*
X93952918Y-83938198D01*
X93944337Y-83936839D01*
X93944333Y-83936838D01*
X93682459Y-83895362D01*
X93682453Y-83895361D01*
X93675480Y-83894257D01*
X93612337Y-83891500D01*
X92000887Y-83891500D01*
X90387664Y-83891501D01*
X90384943Y-83891620D01*
X90384932Y-83891620D01*
X90351387Y-83893084D01*
X90324520Y-83894257D01*
X90187958Y-83915886D01*
X90055667Y-83936838D01*
X90055663Y-83936839D01*
X90047082Y-83938198D01*
X89956471Y-83965901D01*
X89786773Y-84017783D01*
X89786768Y-84017785D01*
X89778460Y-84020325D01*
X89523882Y-84139036D01*
X89516585Y-84143775D01*
X89303052Y-84282445D01*
X89288303Y-84292023D01*
X89076308Y-84476308D01*
X88892023Y-84688303D01*
X88739036Y-84923882D01*
X88620325Y-85178460D01*
X88617785Y-85186768D01*
X88617783Y-85186773D01*
X88579261Y-85312771D01*
X88538198Y-85447082D01*
X88536839Y-85455663D01*
X88536838Y-85455667D01*
X88504450Y-85660164D01*
X88494257Y-85724520D01*
X88491500Y-85787663D01*
X84701581Y-85787663D01*
X84679541Y-81283777D01*
X84698028Y-81188397D01*
X84752680Y-81106277D01*
X87866438Y-78000000D01*
X90834002Y-78000000D01*
X90853957Y-78228087D01*
X90913216Y-78449243D01*
X91009977Y-78656749D01*
X91141302Y-78844300D01*
X91303200Y-79006198D01*
X91312098Y-79012428D01*
X91312101Y-79012431D01*
X91381319Y-79060898D01*
X91490751Y-79137523D01*
X91698257Y-79234284D01*
X91919413Y-79293543D01*
X91930247Y-79294491D01*
X91930248Y-79294491D01*
X92136664Y-79312550D01*
X92147500Y-79313498D01*
X92158336Y-79312550D01*
X92364752Y-79294491D01*
X92364753Y-79294491D01*
X92375587Y-79293543D01*
X92596743Y-79234284D01*
X92804249Y-79137523D01*
X92913681Y-79060898D01*
X92982899Y-79012431D01*
X92982902Y-79012428D01*
X92991800Y-79006198D01*
X93149864Y-78848134D01*
X98459000Y-78848134D01*
X98459726Y-78854822D01*
X98459727Y-78854831D01*
X98464069Y-78894799D01*
X98465755Y-78910316D01*
X98516885Y-79046705D01*
X98604239Y-79163261D01*
X98720795Y-79250615D01*
X98857184Y-79301745D01*
X98872698Y-79303430D01*
X98872701Y-79303431D01*
X98912669Y-79307773D01*
X98912678Y-79307774D01*
X98919366Y-79308500D01*
X100615634Y-79308500D01*
X100622322Y-79307774D01*
X100622331Y-79307773D01*
X100662299Y-79303431D01*
X100662302Y-79303430D01*
X100677816Y-79301745D01*
X100814205Y-79250615D01*
X100930761Y-79163261D01*
X101018115Y-79046705D01*
X101069245Y-78910316D01*
X101070931Y-78894799D01*
X101075273Y-78854831D01*
X101075274Y-78854822D01*
X101076000Y-78848134D01*
X101076000Y-77441880D01*
X138922776Y-77441880D01*
X138936167Y-77461112D01*
X138946820Y-77470977D01*
X138957521Y-77479829D01*
X139235055Y-77684445D01*
X139246663Y-77692042D01*
X139545291Y-77864454D01*
X139557678Y-77870711D01*
X139873637Y-78008751D01*
X139886673Y-78013599D01*
X140216041Y-78115555D01*
X140229523Y-78118917D01*
X140568234Y-78183529D01*
X140581979Y-78185363D01*
X140925781Y-78211817D01*
X140939659Y-78212107D01*
X141284246Y-78200074D01*
X141298093Y-78198814D01*
X141639192Y-78148445D01*
X141652803Y-78145651D01*
X141986158Y-78057576D01*
X141999376Y-78053281D01*
X142320848Y-77928590D01*
X142333487Y-77922857D01*
X142639060Y-77763107D01*
X142650992Y-77755993D01*
X142936836Y-77563189D01*
X142947911Y-77554782D01*
X143063030Y-77456809D01*
X143075970Y-77440453D01*
X143069320Y-77428530D01*
X141017341Y-75376551D01*
X141000000Y-75364964D01*
X140982659Y-75376551D01*
X138933742Y-77425468D01*
X138922776Y-77441880D01*
X101076000Y-77441880D01*
X101076000Y-77151866D01*
X101075274Y-77145178D01*
X101075273Y-77145169D01*
X101070931Y-77105201D01*
X101070930Y-77105198D01*
X101069245Y-77089684D01*
X101018115Y-76953295D01*
X100930761Y-76836739D01*
X100814205Y-76749385D01*
X100677816Y-76698255D01*
X100662302Y-76696570D01*
X100662299Y-76696569D01*
X100622331Y-76692227D01*
X100622322Y-76692226D01*
X100615634Y-76691500D01*
X98919366Y-76691500D01*
X98912678Y-76692226D01*
X98912669Y-76692227D01*
X98872701Y-76696569D01*
X98872698Y-76696570D01*
X98857184Y-76698255D01*
X98720795Y-76749385D01*
X98604239Y-76836739D01*
X98516885Y-76953295D01*
X98465755Y-77089684D01*
X98464070Y-77105198D01*
X98464069Y-77105201D01*
X98459727Y-77145169D01*
X98459726Y-77145178D01*
X98459000Y-77151866D01*
X98459000Y-78848134D01*
X93149864Y-78848134D01*
X93153698Y-78844300D01*
X93285023Y-78656749D01*
X93381784Y-78449243D01*
X93441043Y-78228087D01*
X93460998Y-78000000D01*
X93441043Y-77771913D01*
X93381784Y-77550757D01*
X93285023Y-77343251D01*
X93153698Y-77155700D01*
X92991800Y-76993802D01*
X92982902Y-76987572D01*
X92982899Y-76987569D01*
X92813152Y-76868711D01*
X92804249Y-76862477D01*
X92596743Y-76765716D01*
X92375587Y-76706457D01*
X92364753Y-76705509D01*
X92364752Y-76705509D01*
X92158336Y-76687450D01*
X92147500Y-76686502D01*
X92136664Y-76687450D01*
X91930248Y-76705509D01*
X91930247Y-76705509D01*
X91919413Y-76706457D01*
X91698257Y-76765716D01*
X91490751Y-76862477D01*
X91481848Y-76868711D01*
X91312101Y-76987569D01*
X91312098Y-76987572D01*
X91303200Y-76993802D01*
X91141302Y-77155700D01*
X91009977Y-77343251D01*
X90913216Y-77550757D01*
X90853957Y-77771913D01*
X90834002Y-78000000D01*
X87866438Y-78000000D01*
X90911663Y-74962091D01*
X137787549Y-74962091D01*
X137801989Y-75306602D01*
X137803343Y-75320403D01*
X137856095Y-75661168D01*
X137858980Y-75674736D01*
X137949383Y-76007478D01*
X137953773Y-76020675D01*
X138080698Y-76341249D01*
X138086527Y-76353866D01*
X138248403Y-76658308D01*
X138255600Y-76670191D01*
X138450398Y-76954688D01*
X138458879Y-76965700D01*
X138543020Y-77063178D01*
X138559468Y-77076005D01*
X138571746Y-77069044D01*
X140623449Y-75017341D01*
X140635036Y-75000000D01*
X141364964Y-75000000D01*
X141376551Y-75017341D01*
X143426170Y-77066960D01*
X143442757Y-77078043D01*
X143460366Y-77065872D01*
X143465510Y-77059742D01*
X143672057Y-76783644D01*
X143679738Y-76772083D01*
X143854230Y-76474670D01*
X143860570Y-76462334D01*
X144000819Y-76147328D01*
X144005749Y-76134348D01*
X144110008Y-75805683D01*
X144113460Y-75792239D01*
X144180436Y-75453991D01*
X144182368Y-75440242D01*
X144211438Y-75094046D01*
X144211863Y-75085367D01*
X144212995Y-75004327D01*
X144212813Y-74995679D01*
X144193419Y-74648787D01*
X144191871Y-74634984D01*
X144134368Y-74295006D01*
X144131293Y-74281470D01*
X144036248Y-73950010D01*
X144031686Y-73936911D01*
X143900287Y-73618111D01*
X143894289Y-73605594D01*
X143728175Y-73303434D01*
X143720818Y-73291659D01*
X143522059Y-73009901D01*
X143513430Y-72999015D01*
X143457646Y-72936183D01*
X143441024Y-72923589D01*
X143427988Y-72931222D01*
X141376551Y-74982659D01*
X141364964Y-75000000D01*
X140635036Y-75000000D01*
X140623449Y-74982659D01*
X138575124Y-72934334D01*
X138557783Y-72922747D01*
X138544306Y-72931752D01*
X138514745Y-72964125D01*
X138505978Y-72974875D01*
X138303303Y-73253833D01*
X138295774Y-73265516D01*
X138125472Y-73565303D01*
X138119287Y-73577762D01*
X137983450Y-73894692D01*
X137978710Y-73907713D01*
X137879045Y-74237822D01*
X137875780Y-74251317D01*
X137813539Y-74590442D01*
X137811795Y-74604250D01*
X137787744Y-74948190D01*
X137787549Y-74962091D01*
X90911663Y-74962091D01*
X93320262Y-72559278D01*
X138923848Y-72559278D01*
X138931136Y-72571926D01*
X140982659Y-74623449D01*
X141000000Y-74635036D01*
X141017341Y-74623449D01*
X143065185Y-72575605D01*
X143076772Y-72558264D01*
X143068082Y-72545258D01*
X143018476Y-72500593D01*
X143007659Y-72491896D01*
X142727300Y-72291180D01*
X142715564Y-72283732D01*
X142414590Y-72115522D01*
X142402096Y-72109428D01*
X142084240Y-71975815D01*
X142071149Y-71971153D01*
X141740381Y-71873802D01*
X141726847Y-71870628D01*
X141387290Y-71810755D01*
X141373499Y-71809110D01*
X141029368Y-71787459D01*
X141015488Y-71787363D01*
X140671089Y-71804206D01*
X140657279Y-71805658D01*
X140316908Y-71860786D01*
X140303341Y-71863769D01*
X139971257Y-71956489D01*
X139958086Y-71960973D01*
X139638402Y-72090133D01*
X139625818Y-72096055D01*
X139322524Y-72260046D01*
X139310696Y-72267322D01*
X139027560Y-72464106D01*
X139016609Y-72472662D01*
X138936561Y-72542740D01*
X138923848Y-72559278D01*
X93320262Y-72559278D01*
X109408379Y-56509811D01*
X109871168Y-56048134D01*
X136999000Y-56048134D01*
X136999726Y-56054822D01*
X136999727Y-56054831D01*
X137004069Y-56094799D01*
X137005755Y-56110316D01*
X137056885Y-56246705D01*
X137144239Y-56363261D01*
X137260795Y-56450615D01*
X137397184Y-56501745D01*
X137412698Y-56503430D01*
X137412701Y-56503431D01*
X137452669Y-56507773D01*
X137452678Y-56507774D01*
X137459366Y-56508500D01*
X139460634Y-56508500D01*
X139467322Y-56507774D01*
X139467331Y-56507773D01*
X139507299Y-56503431D01*
X139507302Y-56503430D01*
X139522816Y-56501745D01*
X139659205Y-56450615D01*
X139775761Y-56363261D01*
X139786401Y-56349064D01*
X139786405Y-56349060D01*
X139821031Y-56302859D01*
X139893344Y-56237976D01*
X139984983Y-56205705D01*
X140081996Y-56210959D01*
X140174613Y-56256785D01*
X140180993Y-56261824D01*
X140197946Y-56273087D01*
X140390313Y-56379280D01*
X140408882Y-56387626D01*
X140616008Y-56460973D01*
X140635709Y-56466178D01*
X140721853Y-56481523D01*
X140742707Y-56481104D01*
X140746000Y-56472681D01*
X140746000Y-56461684D01*
X141254000Y-56461684D01*
X141258069Y-56482142D01*
X141267863Y-56484090D01*
X141329524Y-56474654D01*
X141349346Y-56469932D01*
X141558186Y-56401672D01*
X141576973Y-56393775D01*
X141771868Y-56292319D01*
X141789108Y-56281462D01*
X141964818Y-56149536D01*
X141980046Y-56136015D01*
X142090114Y-56020835D01*
X142169650Y-55965039D01*
X142264483Y-55943928D01*
X142360177Y-55960715D01*
X142442162Y-56012845D01*
X142454301Y-56025284D01*
X142540186Y-56119670D01*
X142655778Y-56210959D01*
X142720185Y-56261824D01*
X142728724Y-56268568D01*
X142939050Y-56384674D01*
X142948676Y-56388083D01*
X142948681Y-56388085D01*
X143155885Y-56461460D01*
X143155887Y-56461461D01*
X143165515Y-56464870D01*
X143402037Y-56507001D01*
X143412258Y-56507126D01*
X143412259Y-56507126D01*
X143553145Y-56508847D01*
X143642263Y-56509936D01*
X143879744Y-56473596D01*
X143889452Y-56470423D01*
X143889456Y-56470422D01*
X144098390Y-56402132D01*
X144108101Y-56398958D01*
X144321200Y-56288025D01*
X144513320Y-56143777D01*
X144604719Y-56048134D01*
X144672240Y-55977477D01*
X144672240Y-55977476D01*
X144679301Y-55970088D01*
X144814686Y-55771622D01*
X144915837Y-55553710D01*
X144980040Y-55322202D01*
X145001000Y-55126072D01*
X145001000Y-54891598D01*
X144986322Y-54713063D01*
X144927794Y-54480056D01*
X144831997Y-54259737D01*
X144701502Y-54058023D01*
X144675923Y-54029912D01*
X144546689Y-53887885D01*
X144546686Y-53887882D01*
X144539814Y-53880330D01*
X144392152Y-53763714D01*
X144359294Y-53737764D01*
X144359292Y-53737763D01*
X144351276Y-53731432D01*
X144140950Y-53615326D01*
X144131324Y-53611917D01*
X144131319Y-53611915D01*
X143924115Y-53538540D01*
X143924113Y-53538539D01*
X143914485Y-53535130D01*
X143677963Y-53492999D01*
X143667742Y-53492874D01*
X143667741Y-53492874D01*
X143526855Y-53491153D01*
X143437737Y-53490064D01*
X143200256Y-53526404D01*
X143190548Y-53529577D01*
X143190544Y-53529578D01*
X142992851Y-53594194D01*
X142971899Y-53601042D01*
X142758800Y-53711975D01*
X142566680Y-53856223D01*
X142559618Y-53863613D01*
X142559610Y-53863620D01*
X142449200Y-53979157D01*
X142369664Y-54034952D01*
X142274830Y-54056063D01*
X142179137Y-54039275D01*
X142097152Y-53987145D01*
X142085013Y-53974707D01*
X142006346Y-53888252D01*
X141991449Y-53874361D01*
X141819015Y-53738181D01*
X141802054Y-53726913D01*
X141609687Y-53620720D01*
X141591118Y-53612374D01*
X141383992Y-53539027D01*
X141364291Y-53533822D01*
X141278147Y-53518477D01*
X141257293Y-53518896D01*
X141254000Y-53527319D01*
X141254000Y-56461684D01*
X140746000Y-56461684D01*
X140746000Y-53538316D01*
X140741931Y-53517858D01*
X140732137Y-53515910D01*
X140670476Y-53525346D01*
X140650654Y-53530068D01*
X140441814Y-53598328D01*
X140423027Y-53606225D01*
X140228132Y-53707681D01*
X140210892Y-53718538D01*
X140170970Y-53748512D01*
X140083389Y-53790567D01*
X139986381Y-53795906D01*
X139894714Y-53763714D01*
X139822214Y-53698721D01*
X139786401Y-53650936D01*
X139775761Y-53636739D01*
X139659205Y-53549385D01*
X139522816Y-53498255D01*
X139507302Y-53496570D01*
X139507299Y-53496569D01*
X139467331Y-53492227D01*
X139467322Y-53492226D01*
X139460634Y-53491500D01*
X137459366Y-53491500D01*
X137452678Y-53492226D01*
X137452669Y-53492227D01*
X137412701Y-53496569D01*
X137412698Y-53496570D01*
X137397184Y-53498255D01*
X137260795Y-53549385D01*
X137144239Y-53636739D01*
X137056885Y-53753295D01*
X137005755Y-53889684D01*
X137004070Y-53905198D01*
X137004069Y-53905201D01*
X136999727Y-53945169D01*
X136999726Y-53945178D01*
X136999000Y-53951866D01*
X136999000Y-56048134D01*
X109871168Y-56048134D01*
X117606233Y-48331652D01*
X117687080Y-48277773D01*
X117782833Y-48258934D01*
X164165717Y-48397066D01*
G37*
G04 #@! TD.AperFunction*
M02*
