%FSLAX45Y45*%
G04 Gerber Fmt 4.5, Leading zero omitted, Abs format (unit mm)*
G04 Created by KiCad (PCBNEW (6.0.0)) date 2022-05-25 15:38:06*
%MOMM*%
%LPD*%
G01*
G04 APERTURE LIST*
%TA.AperFunction,Profile*%
%ADD10C,0.100000*%
%TD*%
%ADD11C,0.200000*%
%ADD12C,0.070000*%
%ADD13C,0.080000*%
%ADD14C,0.081280*%
%ADD15C,0.085000*%
%ADD16C,0.110000*%
%ADD17C,0.130000*%
%ADD18C,0.270000*%
%ADD19C,0.450000*%
G04 APERTURE END LIST*
D10*
X8417000Y-8097000D02*
X8440000Y-12797000D01*
X16448000Y-4789000D02*
X11747000Y-4775000D01*
X8417000Y-8097000D02*
X8440000Y-12797000D01*
X8440000Y-12797000D02*
X11762000Y-16127000D01*
X19770000Y-8119000D02*
X16448000Y-4789000D01*
X16448000Y-4789000D02*
X11747000Y-4775000D01*
X11762000Y-16127000D02*
X16450000Y-16134000D01*
X11747000Y-4775000D02*
X11747000Y-4775000D01*
X11762000Y-16127000D02*
X16450000Y-16134000D01*
X19780000Y-12812000D02*
X19770000Y-8119000D01*
X16450000Y-16134000D02*
X19780000Y-12812000D01*
X8440000Y-12797000D02*
X8440000Y-12797000D01*
X19780000Y-12812000D02*
X19770000Y-8111000D01*
X11747000Y-4775000D02*
X8417000Y-8097000D01*
D11*
D12*
X12403000Y-10452000D02*
X12473000Y-10522000D01*
X12473000Y-10452000D02*
X12403000Y-10522000D01*
X13165000Y-10071000D02*
X13235000Y-10141000D01*
X13235000Y-10071000D02*
X13165000Y-10141000D01*
X13165000Y-10325000D02*
X13235000Y-10395000D01*
X13235000Y-10325000D02*
X13165000Y-10395000D01*
X13165000Y-10579000D02*
X13235000Y-10649000D01*
X13235000Y-10579000D02*
X13165000Y-10649000D01*
X13165000Y-10833000D02*
X13235000Y-10903000D01*
X13235000Y-10833000D02*
X13165000Y-10903000D01*
X13165000Y-11087000D02*
X13235000Y-11157000D01*
X13235000Y-11087000D02*
X13165000Y-11157000D01*
X13165000Y-11341000D02*
X13235000Y-11411000D01*
X13235000Y-11341000D02*
X13165000Y-11411000D01*
X13165000Y-11595000D02*
X13235000Y-11665000D01*
X13235000Y-11595000D02*
X13165000Y-11665000D01*
X13165000Y-11849000D02*
X13235000Y-11919000D01*
X13235000Y-11849000D02*
X13165000Y-11919000D01*
X13165000Y-12103000D02*
X13235000Y-12173000D01*
X13235000Y-12103000D02*
X13165000Y-12173000D01*
X13165000Y-12357000D02*
X13235000Y-12427000D01*
X13235000Y-12357000D02*
X13165000Y-12427000D01*
X13165000Y-12611000D02*
X13235000Y-12681000D01*
X13235000Y-12611000D02*
X13165000Y-12681000D01*
X13165000Y-12865000D02*
X13235000Y-12935000D01*
X13235000Y-12865000D02*
X13165000Y-12935000D01*
X14943000Y-10071000D02*
X15013000Y-10141000D01*
X15013000Y-10071000D02*
X14943000Y-10141000D01*
X14943000Y-10325000D02*
X15013000Y-10395000D01*
X15013000Y-10325000D02*
X14943000Y-10395000D01*
X14943000Y-10579000D02*
X15013000Y-10649000D01*
X15013000Y-10579000D02*
X14943000Y-10649000D01*
X14943000Y-10833000D02*
X15013000Y-10903000D01*
X15013000Y-10833000D02*
X14943000Y-10903000D01*
X14943000Y-11087000D02*
X15013000Y-11157000D01*
X15013000Y-11087000D02*
X14943000Y-11157000D01*
X14943000Y-11341000D02*
X15013000Y-11411000D01*
X15013000Y-11341000D02*
X14943000Y-11411000D01*
X14943000Y-11595000D02*
X15013000Y-11665000D01*
X15013000Y-11595000D02*
X14943000Y-11665000D01*
X14943000Y-11849000D02*
X15013000Y-11919000D01*
X15013000Y-11849000D02*
X14943000Y-11919000D01*
X14943000Y-12103000D02*
X15013000Y-12173000D01*
X15013000Y-12103000D02*
X14943000Y-12173000D01*
X14943000Y-12357000D02*
X15013000Y-12427000D01*
X15013000Y-12357000D02*
X14943000Y-12427000D01*
X14943000Y-12611000D02*
X15013000Y-12681000D01*
X15013000Y-12611000D02*
X14943000Y-12681000D01*
X14943000Y-12865000D02*
X15013000Y-12935000D01*
X15013000Y-12865000D02*
X14943000Y-12935000D01*
D13*
X9254750Y-7800000D02*
G75*
G03*
X9254750Y-7800000I-40000J0D01*
G01*
X10016750Y-7800000D02*
G75*
G03*
X10016750Y-7800000I-40000J0D01*
G01*
D14*
X18900000Y-8624360D02*
X18900000Y-8705640D01*
X18859360Y-8665000D02*
X18940640Y-8665000D01*
X18900000Y-8878360D02*
X18900000Y-8959640D01*
X18859360Y-8919000D02*
X18940640Y-8919000D01*
X18900000Y-9132360D02*
X18900000Y-9213640D01*
X18859360Y-9173000D02*
X18940640Y-9173000D01*
X18900000Y-9386360D02*
X18900000Y-9467640D01*
X18859360Y-9427000D02*
X18940640Y-9427000D01*
X18900000Y-9640360D02*
X18900000Y-9721640D01*
X18859360Y-9681000D02*
X18940640Y-9681000D01*
X18900000Y-9894360D02*
X18900000Y-9975640D01*
X18859360Y-9935000D02*
X18940640Y-9935000D01*
D15*
X9230052Y-11580052D02*
X9230052Y-11519948D01*
X9169948Y-11519948D01*
X9169948Y-11580052D01*
X9230052Y-11580052D01*
X9230052Y-11830052D02*
X9230052Y-11769948D01*
X9169948Y-11769948D01*
X9169948Y-11830052D01*
X9230052Y-11830052D01*
X9230052Y-12080052D02*
X9230052Y-12019948D01*
X9169948Y-12019948D01*
X9169948Y-12080052D01*
X9230052Y-12080052D01*
X19165052Y-11580052D02*
X19165052Y-11519948D01*
X19104948Y-11519948D01*
X19104948Y-11580052D01*
X19165052Y-11580052D01*
X19165052Y-11830052D02*
X19165052Y-11769948D01*
X19104948Y-11769948D01*
X19104948Y-11830052D01*
X19165052Y-11830052D01*
X19165052Y-12080052D02*
X19165052Y-12019948D01*
X19104948Y-12019948D01*
X19104948Y-12080052D01*
X19165052Y-12080052D01*
D16*
X13846000Y-5555000D02*
X13901000Y-5500000D01*
X13846000Y-5445000D01*
X13791000Y-5500000D01*
X13846000Y-5555000D01*
X14100000Y-5555000D02*
X14155000Y-5500000D01*
X14100000Y-5445000D01*
X14045000Y-5500000D01*
X14100000Y-5555000D01*
X14354000Y-5555000D02*
X14409000Y-5500000D01*
X14354000Y-5445000D01*
X14299000Y-5500000D01*
X14354000Y-5555000D01*
D17*
X10535000Y-8510000D02*
X10665000Y-8640000D01*
X10665000Y-8510000D02*
X10535000Y-8640000D01*
X10665000Y-8575000D02*
G75*
G03*
X10665000Y-8575000I-65000J0D01*
G01*
X10535000Y-10760000D02*
X10665000Y-10890000D01*
X10665000Y-10760000D02*
X10535000Y-10890000D01*
X10665000Y-10825000D02*
G75*
G03*
X10665000Y-10825000I-65000J0D01*
G01*
D18*
X10465000Y-11435000D02*
X10735000Y-11705000D01*
X10735000Y-11435000D02*
X10465000Y-11705000D01*
X10600000Y-11435000D02*
X10600000Y-11705000D01*
X10465000Y-11570000D02*
X10735000Y-11570000D01*
X13965000Y-7365000D02*
X14235000Y-7635000D01*
X14235000Y-7365000D02*
X13965000Y-7635000D01*
X14100000Y-7365000D02*
X14100000Y-7635000D01*
X13965000Y-7500000D02*
X14235000Y-7500000D01*
X17465000Y-11365000D02*
X17735000Y-11635000D01*
X17735000Y-11365000D02*
X17465000Y-11635000D01*
X17600000Y-11365000D02*
X17600000Y-11635000D01*
X17465000Y-11500000D02*
X17735000Y-11500000D01*
D19*
X8975000Y-8515000D02*
X9425000Y-8965000D01*
X9425000Y-8515000D02*
X8975000Y-8965000D01*
X9359101Y-8899101D02*
X9359101Y-8580899D01*
X9040899Y-8580899D01*
X9040899Y-8899101D01*
X9359101Y-8899101D01*
X8975000Y-9235000D02*
X9425000Y-9685000D01*
X9425000Y-9235000D02*
X8975000Y-9685000D01*
X9359101Y-9619101D02*
X9359101Y-9300899D01*
X9040899Y-9300899D01*
X9040899Y-9619101D01*
X9359101Y-9619101D01*
D11*
X8669619Y-16449476D02*
X8669619Y-16249476D01*
X8717238Y-16249476D01*
X8745810Y-16259000D01*
X8764857Y-16278048D01*
X8774381Y-16297095D01*
X8783905Y-16335190D01*
X8783905Y-16363762D01*
X8774381Y-16401857D01*
X8764857Y-16420905D01*
X8745810Y-16439952D01*
X8717238Y-16449476D01*
X8669619Y-16449476D01*
X8869619Y-16449476D02*
X8869619Y-16316143D01*
X8869619Y-16354238D02*
X8879143Y-16335190D01*
X8888667Y-16325667D01*
X8907714Y-16316143D01*
X8926762Y-16316143D01*
X8993429Y-16449476D02*
X8993429Y-16316143D01*
X8993429Y-16249476D02*
X8983905Y-16259000D01*
X8993429Y-16268524D01*
X9002952Y-16259000D01*
X8993429Y-16249476D01*
X8993429Y-16268524D01*
X9117238Y-16449476D02*
X9098190Y-16439952D01*
X9088667Y-16420905D01*
X9088667Y-16249476D01*
X9222000Y-16449476D02*
X9202952Y-16439952D01*
X9193429Y-16420905D01*
X9193429Y-16249476D01*
X9450571Y-16449476D02*
X9450571Y-16249476D01*
X9517238Y-16392333D01*
X9583905Y-16249476D01*
X9583905Y-16449476D01*
X9764857Y-16449476D02*
X9764857Y-16344714D01*
X9755333Y-16325667D01*
X9736286Y-16316143D01*
X9698190Y-16316143D01*
X9679143Y-16325667D01*
X9764857Y-16439952D02*
X9745810Y-16449476D01*
X9698190Y-16449476D01*
X9679143Y-16439952D01*
X9669619Y-16420905D01*
X9669619Y-16401857D01*
X9679143Y-16382809D01*
X9698190Y-16373286D01*
X9745810Y-16373286D01*
X9764857Y-16363762D01*
X9860095Y-16316143D02*
X9860095Y-16516143D01*
X9860095Y-16325667D02*
X9879143Y-16316143D01*
X9917238Y-16316143D01*
X9936286Y-16325667D01*
X9945810Y-16335190D01*
X9955333Y-16354238D01*
X9955333Y-16411381D01*
X9945810Y-16430428D01*
X9936286Y-16439952D01*
X9917238Y-16449476D01*
X9879143Y-16449476D01*
X9860095Y-16439952D01*
X10041048Y-16430428D02*
X10050571Y-16439952D01*
X10041048Y-16449476D01*
X10031524Y-16439952D01*
X10041048Y-16430428D01*
X10041048Y-16449476D01*
X10041048Y-16325667D02*
X10050571Y-16335190D01*
X10041048Y-16344714D01*
X10031524Y-16335190D01*
X10041048Y-16325667D01*
X10041048Y-16344714D01*
D12*
X8342000Y-16744000D02*
X8412000Y-16814000D01*
X8412000Y-16744000D02*
X8342000Y-16814000D01*
D11*
X8707714Y-16669476D02*
X8726762Y-16669476D01*
X8745810Y-16679000D01*
X8755333Y-16688524D01*
X8764857Y-16707571D01*
X8774381Y-16745667D01*
X8774381Y-16793286D01*
X8764857Y-16831381D01*
X8755333Y-16850429D01*
X8745810Y-16859952D01*
X8726762Y-16869476D01*
X8707714Y-16869476D01*
X8688667Y-16859952D01*
X8679143Y-16850429D01*
X8669619Y-16831381D01*
X8660095Y-16793286D01*
X8660095Y-16745667D01*
X8669619Y-16707571D01*
X8679143Y-16688524D01*
X8688667Y-16679000D01*
X8707714Y-16669476D01*
X8860095Y-16850429D02*
X8869619Y-16859952D01*
X8860095Y-16869476D01*
X8850571Y-16859952D01*
X8860095Y-16850429D01*
X8860095Y-16869476D01*
X8936286Y-16669476D02*
X9069619Y-16669476D01*
X8983905Y-16869476D01*
X9183905Y-16669476D02*
X9202952Y-16669476D01*
X9222000Y-16679000D01*
X9231524Y-16688524D01*
X9241048Y-16707571D01*
X9250571Y-16745667D01*
X9250571Y-16793286D01*
X9241048Y-16831381D01*
X9231524Y-16850429D01*
X9222000Y-16859952D01*
X9202952Y-16869476D01*
X9183905Y-16869476D01*
X9164857Y-16859952D01*
X9155333Y-16850429D01*
X9145810Y-16831381D01*
X9136286Y-16793286D01*
X9136286Y-16745667D01*
X9145810Y-16707571D01*
X9155333Y-16688524D01*
X9164857Y-16679000D01*
X9183905Y-16669476D01*
X9374381Y-16669476D02*
X9393429Y-16669476D01*
X9412476Y-16679000D01*
X9422000Y-16688524D01*
X9431524Y-16707571D01*
X9441048Y-16745667D01*
X9441048Y-16793286D01*
X9431524Y-16831381D01*
X9422000Y-16850429D01*
X9412476Y-16859952D01*
X9393429Y-16869476D01*
X9374381Y-16869476D01*
X9355333Y-16859952D01*
X9345810Y-16850429D01*
X9336286Y-16831381D01*
X9326762Y-16793286D01*
X9326762Y-16745667D01*
X9336286Y-16707571D01*
X9345810Y-16688524D01*
X9355333Y-16679000D01*
X9374381Y-16669476D01*
X9526762Y-16869476D02*
X9526762Y-16736143D01*
X9526762Y-16755190D02*
X9536286Y-16745667D01*
X9555333Y-16736143D01*
X9583905Y-16736143D01*
X9602952Y-16745667D01*
X9612476Y-16764714D01*
X9612476Y-16869476D01*
X9612476Y-16764714D02*
X9622000Y-16745667D01*
X9641048Y-16736143D01*
X9669619Y-16736143D01*
X9688667Y-16745667D01*
X9698190Y-16764714D01*
X9698190Y-16869476D01*
X9793429Y-16869476D02*
X9793429Y-16736143D01*
X9793429Y-16755190D02*
X9802952Y-16745667D01*
X9822000Y-16736143D01*
X9850571Y-16736143D01*
X9869619Y-16745667D01*
X9879143Y-16764714D01*
X9879143Y-16869476D01*
X9879143Y-16764714D02*
X9888667Y-16745667D01*
X9907714Y-16736143D01*
X9936286Y-16736143D01*
X9955333Y-16745667D01*
X9964857Y-16764714D01*
X9964857Y-16869476D01*
X10355333Y-16659952D02*
X10183905Y-16917095D01*
X10612476Y-16669476D02*
X10631524Y-16669476D01*
X10650571Y-16679000D01*
X10660095Y-16688524D01*
X10669619Y-16707571D01*
X10679143Y-16745667D01*
X10679143Y-16793286D01*
X10669619Y-16831381D01*
X10660095Y-16850429D01*
X10650571Y-16859952D01*
X10631524Y-16869476D01*
X10612476Y-16869476D01*
X10593429Y-16859952D01*
X10583905Y-16850429D01*
X10574381Y-16831381D01*
X10564857Y-16793286D01*
X10564857Y-16745667D01*
X10574381Y-16707571D01*
X10583905Y-16688524D01*
X10593429Y-16679000D01*
X10612476Y-16669476D01*
X10764857Y-16850429D02*
X10774381Y-16859952D01*
X10764857Y-16869476D01*
X10755333Y-16859952D01*
X10764857Y-16850429D01*
X10764857Y-16869476D01*
X10898190Y-16669476D02*
X10917238Y-16669476D01*
X10936286Y-16679000D01*
X10945810Y-16688524D01*
X10955333Y-16707571D01*
X10964857Y-16745667D01*
X10964857Y-16793286D01*
X10955333Y-16831381D01*
X10945810Y-16850429D01*
X10936286Y-16859952D01*
X10917238Y-16869476D01*
X10898190Y-16869476D01*
X10879143Y-16859952D01*
X10869619Y-16850429D01*
X10860095Y-16831381D01*
X10850571Y-16793286D01*
X10850571Y-16745667D01*
X10860095Y-16707571D01*
X10869619Y-16688524D01*
X10879143Y-16679000D01*
X10898190Y-16669476D01*
X11041048Y-16688524D02*
X11050571Y-16679000D01*
X11069619Y-16669476D01*
X11117238Y-16669476D01*
X11136286Y-16679000D01*
X11145810Y-16688524D01*
X11155333Y-16707571D01*
X11155333Y-16726619D01*
X11145810Y-16755190D01*
X11031524Y-16869476D01*
X11155333Y-16869476D01*
X11222000Y-16669476D02*
X11355333Y-16669476D01*
X11269619Y-16869476D01*
X11517238Y-16669476D02*
X11479143Y-16669476D01*
X11460095Y-16679000D01*
X11450571Y-16688524D01*
X11431524Y-16717095D01*
X11422000Y-16755190D01*
X11422000Y-16831381D01*
X11431524Y-16850429D01*
X11441048Y-16859952D01*
X11460095Y-16869476D01*
X11498190Y-16869476D01*
X11517238Y-16859952D01*
X11526762Y-16850429D01*
X11536286Y-16831381D01*
X11536286Y-16783762D01*
X11526762Y-16764714D01*
X11517238Y-16755190D01*
X11498190Y-16745667D01*
X11460095Y-16745667D01*
X11441048Y-16755190D01*
X11431524Y-16764714D01*
X11422000Y-16783762D01*
X11612476Y-16669476D02*
X11612476Y-16707571D01*
X11688667Y-16669476D02*
X11688667Y-16707571D01*
X11983905Y-16945667D02*
X11974381Y-16936143D01*
X11955333Y-16907571D01*
X11945809Y-16888524D01*
X11936286Y-16859952D01*
X11926762Y-16812333D01*
X11926762Y-16774238D01*
X11936286Y-16726619D01*
X11945809Y-16698048D01*
X11955333Y-16679000D01*
X11974381Y-16650428D01*
X11983905Y-16640905D01*
X12050571Y-16688524D02*
X12060095Y-16679000D01*
X12079143Y-16669476D01*
X12126762Y-16669476D01*
X12145809Y-16679000D01*
X12155333Y-16688524D01*
X12164857Y-16707571D01*
X12164857Y-16726619D01*
X12155333Y-16755190D01*
X12041048Y-16869476D01*
X12164857Y-16869476D01*
X12345809Y-16669476D02*
X12250571Y-16669476D01*
X12241048Y-16764714D01*
X12250571Y-16755190D01*
X12269619Y-16745667D01*
X12317238Y-16745667D01*
X12336286Y-16755190D01*
X12345809Y-16764714D01*
X12355333Y-16783762D01*
X12355333Y-16831381D01*
X12345809Y-16850429D01*
X12336286Y-16859952D01*
X12317238Y-16869476D01*
X12269619Y-16869476D01*
X12250571Y-16859952D01*
X12241048Y-16850429D01*
X12593428Y-16869476D02*
X12593428Y-16669476D01*
X12679143Y-16869476D02*
X12679143Y-16764714D01*
X12669619Y-16745667D01*
X12650571Y-16736143D01*
X12622000Y-16736143D01*
X12602952Y-16745667D01*
X12593428Y-16755190D01*
X12802952Y-16869476D02*
X12783905Y-16859952D01*
X12774381Y-16850429D01*
X12764857Y-16831381D01*
X12764857Y-16774238D01*
X12774381Y-16755190D01*
X12783905Y-16745667D01*
X12802952Y-16736143D01*
X12831524Y-16736143D01*
X12850571Y-16745667D01*
X12860095Y-16755190D01*
X12869619Y-16774238D01*
X12869619Y-16831381D01*
X12860095Y-16850429D01*
X12850571Y-16859952D01*
X12831524Y-16869476D01*
X12802952Y-16869476D01*
X12983905Y-16869476D02*
X12964857Y-16859952D01*
X12955333Y-16840905D01*
X12955333Y-16669476D01*
X13136286Y-16859952D02*
X13117238Y-16869476D01*
X13079143Y-16869476D01*
X13060095Y-16859952D01*
X13050571Y-16840905D01*
X13050571Y-16764714D01*
X13060095Y-16745667D01*
X13079143Y-16736143D01*
X13117238Y-16736143D01*
X13136286Y-16745667D01*
X13145809Y-16764714D01*
X13145809Y-16783762D01*
X13050571Y-16802810D01*
X13222000Y-16859952D02*
X13241048Y-16869476D01*
X13279143Y-16869476D01*
X13298190Y-16859952D01*
X13307714Y-16840905D01*
X13307714Y-16831381D01*
X13298190Y-16812333D01*
X13279143Y-16802810D01*
X13250571Y-16802810D01*
X13231524Y-16793286D01*
X13222000Y-16774238D01*
X13222000Y-16764714D01*
X13231524Y-16745667D01*
X13250571Y-16736143D01*
X13279143Y-16736143D01*
X13298190Y-16745667D01*
X13374381Y-16945667D02*
X13383905Y-16936143D01*
X13402952Y-16907571D01*
X13412476Y-16888524D01*
X13422000Y-16859952D01*
X13431524Y-16812333D01*
X13431524Y-16774238D01*
X13422000Y-16726619D01*
X13412476Y-16698048D01*
X13402952Y-16679000D01*
X13383905Y-16650428D01*
X13374381Y-16640905D01*
D13*
X8412000Y-17043000D02*
G75*
G03*
X8412000Y-17043000I-40000J0D01*
G01*
D11*
X8707714Y-16933476D02*
X8726762Y-16933476D01*
X8745810Y-16943000D01*
X8755333Y-16952524D01*
X8764857Y-16971571D01*
X8774381Y-17009667D01*
X8774381Y-17057286D01*
X8764857Y-17095381D01*
X8755333Y-17114429D01*
X8745810Y-17123952D01*
X8726762Y-17133476D01*
X8707714Y-17133476D01*
X8688667Y-17123952D01*
X8679143Y-17114429D01*
X8669619Y-17095381D01*
X8660095Y-17057286D01*
X8660095Y-17009667D01*
X8669619Y-16971571D01*
X8679143Y-16952524D01*
X8688667Y-16943000D01*
X8707714Y-16933476D01*
X8860095Y-17114429D02*
X8869619Y-17123952D01*
X8860095Y-17133476D01*
X8850571Y-17123952D01*
X8860095Y-17114429D01*
X8860095Y-17133476D01*
X8983905Y-17019190D02*
X8964857Y-17009667D01*
X8955333Y-17000143D01*
X8945810Y-16981095D01*
X8945810Y-16971571D01*
X8955333Y-16952524D01*
X8964857Y-16943000D01*
X8983905Y-16933476D01*
X9022000Y-16933476D01*
X9041048Y-16943000D01*
X9050571Y-16952524D01*
X9060095Y-16971571D01*
X9060095Y-16981095D01*
X9050571Y-17000143D01*
X9041048Y-17009667D01*
X9022000Y-17019190D01*
X8983905Y-17019190D01*
X8964857Y-17028714D01*
X8955333Y-17038238D01*
X8945810Y-17057286D01*
X8945810Y-17095381D01*
X8955333Y-17114429D01*
X8964857Y-17123952D01*
X8983905Y-17133476D01*
X9022000Y-17133476D01*
X9041048Y-17123952D01*
X9050571Y-17114429D01*
X9060095Y-17095381D01*
X9060095Y-17057286D01*
X9050571Y-17038238D01*
X9041048Y-17028714D01*
X9022000Y-17019190D01*
X9183905Y-16933476D02*
X9202952Y-16933476D01*
X9222000Y-16943000D01*
X9231524Y-16952524D01*
X9241048Y-16971571D01*
X9250571Y-17009667D01*
X9250571Y-17057286D01*
X9241048Y-17095381D01*
X9231524Y-17114429D01*
X9222000Y-17123952D01*
X9202952Y-17133476D01*
X9183905Y-17133476D01*
X9164857Y-17123952D01*
X9155333Y-17114429D01*
X9145810Y-17095381D01*
X9136286Y-17057286D01*
X9136286Y-17009667D01*
X9145810Y-16971571D01*
X9155333Y-16952524D01*
X9164857Y-16943000D01*
X9183905Y-16933476D01*
X9374381Y-16933476D02*
X9393429Y-16933476D01*
X9412476Y-16943000D01*
X9422000Y-16952524D01*
X9431524Y-16971571D01*
X9441048Y-17009667D01*
X9441048Y-17057286D01*
X9431524Y-17095381D01*
X9422000Y-17114429D01*
X9412476Y-17123952D01*
X9393429Y-17133476D01*
X9374381Y-17133476D01*
X9355333Y-17123952D01*
X9345810Y-17114429D01*
X9336286Y-17095381D01*
X9326762Y-17057286D01*
X9326762Y-17009667D01*
X9336286Y-16971571D01*
X9345810Y-16952524D01*
X9355333Y-16943000D01*
X9374381Y-16933476D01*
X9526762Y-17133476D02*
X9526762Y-17000143D01*
X9526762Y-17019190D02*
X9536286Y-17009667D01*
X9555333Y-17000143D01*
X9583905Y-17000143D01*
X9602952Y-17009667D01*
X9612476Y-17028714D01*
X9612476Y-17133476D01*
X9612476Y-17028714D02*
X9622000Y-17009667D01*
X9641048Y-17000143D01*
X9669619Y-17000143D01*
X9688667Y-17009667D01*
X9698190Y-17028714D01*
X9698190Y-17133476D01*
X9793429Y-17133476D02*
X9793429Y-17000143D01*
X9793429Y-17019190D02*
X9802952Y-17009667D01*
X9822000Y-17000143D01*
X9850571Y-17000143D01*
X9869619Y-17009667D01*
X9879143Y-17028714D01*
X9879143Y-17133476D01*
X9879143Y-17028714D02*
X9888667Y-17009667D01*
X9907714Y-17000143D01*
X9936286Y-17000143D01*
X9955333Y-17009667D01*
X9964857Y-17028714D01*
X9964857Y-17133476D01*
X10355333Y-16923952D02*
X10183905Y-17181095D01*
X10612476Y-16933476D02*
X10631524Y-16933476D01*
X10650571Y-16943000D01*
X10660095Y-16952524D01*
X10669619Y-16971571D01*
X10679143Y-17009667D01*
X10679143Y-17057286D01*
X10669619Y-17095381D01*
X10660095Y-17114429D01*
X10650571Y-17123952D01*
X10631524Y-17133476D01*
X10612476Y-17133476D01*
X10593429Y-17123952D01*
X10583905Y-17114429D01*
X10574381Y-17095381D01*
X10564857Y-17057286D01*
X10564857Y-17009667D01*
X10574381Y-16971571D01*
X10583905Y-16952524D01*
X10593429Y-16943000D01*
X10612476Y-16933476D01*
X10764857Y-17114429D02*
X10774381Y-17123952D01*
X10764857Y-17133476D01*
X10755333Y-17123952D01*
X10764857Y-17114429D01*
X10764857Y-17133476D01*
X10898190Y-16933476D02*
X10917238Y-16933476D01*
X10936286Y-16943000D01*
X10945810Y-16952524D01*
X10955333Y-16971571D01*
X10964857Y-17009667D01*
X10964857Y-17057286D01*
X10955333Y-17095381D01*
X10945810Y-17114429D01*
X10936286Y-17123952D01*
X10917238Y-17133476D01*
X10898190Y-17133476D01*
X10879143Y-17123952D01*
X10869619Y-17114429D01*
X10860095Y-17095381D01*
X10850571Y-17057286D01*
X10850571Y-17009667D01*
X10860095Y-16971571D01*
X10869619Y-16952524D01*
X10879143Y-16943000D01*
X10898190Y-16933476D01*
X11031524Y-16933476D02*
X11155333Y-16933476D01*
X11088667Y-17009667D01*
X11117238Y-17009667D01*
X11136286Y-17019190D01*
X11145810Y-17028714D01*
X11155333Y-17047762D01*
X11155333Y-17095381D01*
X11145810Y-17114429D01*
X11136286Y-17123952D01*
X11117238Y-17133476D01*
X11060095Y-17133476D01*
X11041048Y-17123952D01*
X11031524Y-17114429D01*
X11345809Y-17133476D02*
X11231524Y-17133476D01*
X11288667Y-17133476D02*
X11288667Y-16933476D01*
X11269619Y-16962048D01*
X11250571Y-16981095D01*
X11231524Y-16990619D01*
X11526762Y-16933476D02*
X11431524Y-16933476D01*
X11422000Y-17028714D01*
X11431524Y-17019190D01*
X11450571Y-17009667D01*
X11498190Y-17009667D01*
X11517238Y-17019190D01*
X11526762Y-17028714D01*
X11536286Y-17047762D01*
X11536286Y-17095381D01*
X11526762Y-17114429D01*
X11517238Y-17123952D01*
X11498190Y-17133476D01*
X11450571Y-17133476D01*
X11431524Y-17123952D01*
X11422000Y-17114429D01*
X11612476Y-16933476D02*
X11612476Y-16971571D01*
X11688667Y-16933476D02*
X11688667Y-16971571D01*
X11983905Y-17209667D02*
X11974381Y-17200143D01*
X11955333Y-17171571D01*
X11945809Y-17152524D01*
X11936286Y-17123952D01*
X11926762Y-17076333D01*
X11926762Y-17038238D01*
X11936286Y-16990619D01*
X11945809Y-16962048D01*
X11955333Y-16943000D01*
X11974381Y-16914429D01*
X11983905Y-16904905D01*
X12050571Y-16952524D02*
X12060095Y-16943000D01*
X12079143Y-16933476D01*
X12126762Y-16933476D01*
X12145809Y-16943000D01*
X12155333Y-16952524D01*
X12164857Y-16971571D01*
X12164857Y-16990619D01*
X12155333Y-17019190D01*
X12041048Y-17133476D01*
X12164857Y-17133476D01*
X12402952Y-17133476D02*
X12402952Y-16933476D01*
X12488667Y-17133476D02*
X12488667Y-17028714D01*
X12479143Y-17009667D01*
X12460095Y-17000143D01*
X12431524Y-17000143D01*
X12412476Y-17009667D01*
X12402952Y-17019190D01*
X12612476Y-17133476D02*
X12593428Y-17123952D01*
X12583905Y-17114429D01*
X12574381Y-17095381D01*
X12574381Y-17038238D01*
X12583905Y-17019190D01*
X12593428Y-17009667D01*
X12612476Y-17000143D01*
X12641048Y-17000143D01*
X12660095Y-17009667D01*
X12669619Y-17019190D01*
X12679143Y-17038238D01*
X12679143Y-17095381D01*
X12669619Y-17114429D01*
X12660095Y-17123952D01*
X12641048Y-17133476D01*
X12612476Y-17133476D01*
X12793428Y-17133476D02*
X12774381Y-17123952D01*
X12764857Y-17104905D01*
X12764857Y-16933476D01*
X12945809Y-17123952D02*
X12926762Y-17133476D01*
X12888667Y-17133476D01*
X12869619Y-17123952D01*
X12860095Y-17104905D01*
X12860095Y-17028714D01*
X12869619Y-17009667D01*
X12888667Y-17000143D01*
X12926762Y-17000143D01*
X12945809Y-17009667D01*
X12955333Y-17028714D01*
X12955333Y-17047762D01*
X12860095Y-17066810D01*
X13031524Y-17123952D02*
X13050571Y-17133476D01*
X13088667Y-17133476D01*
X13107714Y-17123952D01*
X13117238Y-17104905D01*
X13117238Y-17095381D01*
X13107714Y-17076333D01*
X13088667Y-17066810D01*
X13060095Y-17066810D01*
X13041048Y-17057286D01*
X13031524Y-17038238D01*
X13031524Y-17028714D01*
X13041048Y-17009667D01*
X13060095Y-17000143D01*
X13088667Y-17000143D01*
X13107714Y-17009667D01*
X13183905Y-17209667D02*
X13193428Y-17200143D01*
X13212476Y-17171571D01*
X13222000Y-17152524D01*
X13231524Y-17123952D01*
X13241048Y-17076333D01*
X13241048Y-17038238D01*
X13231524Y-16990619D01*
X13222000Y-16962048D01*
X13212476Y-16943000D01*
X13193428Y-16914429D01*
X13183905Y-16904905D01*
D14*
X8371360Y-17266360D02*
X8371360Y-17347640D01*
X8330720Y-17307000D02*
X8412000Y-17307000D01*
D11*
X8707714Y-17197476D02*
X8726762Y-17197476D01*
X8745810Y-17207000D01*
X8755333Y-17216524D01*
X8764857Y-17235571D01*
X8774381Y-17273667D01*
X8774381Y-17321286D01*
X8764857Y-17359381D01*
X8755333Y-17378429D01*
X8745810Y-17387952D01*
X8726762Y-17397476D01*
X8707714Y-17397476D01*
X8688667Y-17387952D01*
X8679143Y-17378429D01*
X8669619Y-17359381D01*
X8660095Y-17321286D01*
X8660095Y-17273667D01*
X8669619Y-17235571D01*
X8679143Y-17216524D01*
X8688667Y-17207000D01*
X8707714Y-17197476D01*
X8860095Y-17378429D02*
X8869619Y-17387952D01*
X8860095Y-17397476D01*
X8850571Y-17387952D01*
X8860095Y-17378429D01*
X8860095Y-17397476D01*
X8983905Y-17283190D02*
X8964857Y-17273667D01*
X8955333Y-17264143D01*
X8945810Y-17245095D01*
X8945810Y-17235571D01*
X8955333Y-17216524D01*
X8964857Y-17207000D01*
X8983905Y-17197476D01*
X9022000Y-17197476D01*
X9041048Y-17207000D01*
X9050571Y-17216524D01*
X9060095Y-17235571D01*
X9060095Y-17245095D01*
X9050571Y-17264143D01*
X9041048Y-17273667D01*
X9022000Y-17283190D01*
X8983905Y-17283190D01*
X8964857Y-17292714D01*
X8955333Y-17302238D01*
X8945810Y-17321286D01*
X8945810Y-17359381D01*
X8955333Y-17378429D01*
X8964857Y-17387952D01*
X8983905Y-17397476D01*
X9022000Y-17397476D01*
X9041048Y-17387952D01*
X9050571Y-17378429D01*
X9060095Y-17359381D01*
X9060095Y-17321286D01*
X9050571Y-17302238D01*
X9041048Y-17292714D01*
X9022000Y-17283190D01*
X9250571Y-17397476D02*
X9136286Y-17397476D01*
X9193429Y-17397476D02*
X9193429Y-17197476D01*
X9174381Y-17226048D01*
X9155333Y-17245095D01*
X9136286Y-17254619D01*
X9317238Y-17197476D02*
X9441048Y-17197476D01*
X9374381Y-17273667D01*
X9402952Y-17273667D01*
X9422000Y-17283190D01*
X9431524Y-17292714D01*
X9441048Y-17311762D01*
X9441048Y-17359381D01*
X9431524Y-17378429D01*
X9422000Y-17387952D01*
X9402952Y-17397476D01*
X9345810Y-17397476D01*
X9326762Y-17387952D01*
X9317238Y-17378429D01*
X9526762Y-17397476D02*
X9526762Y-17264143D01*
X9526762Y-17283190D02*
X9536286Y-17273667D01*
X9555333Y-17264143D01*
X9583905Y-17264143D01*
X9602952Y-17273667D01*
X9612476Y-17292714D01*
X9612476Y-17397476D01*
X9612476Y-17292714D02*
X9622000Y-17273667D01*
X9641048Y-17264143D01*
X9669619Y-17264143D01*
X9688667Y-17273667D01*
X9698190Y-17292714D01*
X9698190Y-17397476D01*
X9793429Y-17397476D02*
X9793429Y-17264143D01*
X9793429Y-17283190D02*
X9802952Y-17273667D01*
X9822000Y-17264143D01*
X9850571Y-17264143D01*
X9869619Y-17273667D01*
X9879143Y-17292714D01*
X9879143Y-17397476D01*
X9879143Y-17292714D02*
X9888667Y-17273667D01*
X9907714Y-17264143D01*
X9936286Y-17264143D01*
X9955333Y-17273667D01*
X9964857Y-17292714D01*
X9964857Y-17397476D01*
X10355333Y-17187952D02*
X10183905Y-17445095D01*
X10612476Y-17197476D02*
X10631524Y-17197476D01*
X10650571Y-17207000D01*
X10660095Y-17216524D01*
X10669619Y-17235571D01*
X10679143Y-17273667D01*
X10679143Y-17321286D01*
X10669619Y-17359381D01*
X10660095Y-17378429D01*
X10650571Y-17387952D01*
X10631524Y-17397476D01*
X10612476Y-17397476D01*
X10593429Y-17387952D01*
X10583905Y-17378429D01*
X10574381Y-17359381D01*
X10564857Y-17321286D01*
X10564857Y-17273667D01*
X10574381Y-17235571D01*
X10583905Y-17216524D01*
X10593429Y-17207000D01*
X10612476Y-17197476D01*
X10764857Y-17378429D02*
X10774381Y-17387952D01*
X10764857Y-17397476D01*
X10755333Y-17387952D01*
X10764857Y-17378429D01*
X10764857Y-17397476D01*
X10898190Y-17197476D02*
X10917238Y-17197476D01*
X10936286Y-17207000D01*
X10945810Y-17216524D01*
X10955333Y-17235571D01*
X10964857Y-17273667D01*
X10964857Y-17321286D01*
X10955333Y-17359381D01*
X10945810Y-17378429D01*
X10936286Y-17387952D01*
X10917238Y-17397476D01*
X10898190Y-17397476D01*
X10879143Y-17387952D01*
X10869619Y-17378429D01*
X10860095Y-17359381D01*
X10850571Y-17321286D01*
X10850571Y-17273667D01*
X10860095Y-17235571D01*
X10869619Y-17216524D01*
X10879143Y-17207000D01*
X10898190Y-17197476D01*
X11031524Y-17197476D02*
X11155333Y-17197476D01*
X11088667Y-17273667D01*
X11117238Y-17273667D01*
X11136286Y-17283190D01*
X11145810Y-17292714D01*
X11155333Y-17311762D01*
X11155333Y-17359381D01*
X11145810Y-17378429D01*
X11136286Y-17387952D01*
X11117238Y-17397476D01*
X11060095Y-17397476D01*
X11041048Y-17387952D01*
X11031524Y-17378429D01*
X11231524Y-17216524D02*
X11241048Y-17207000D01*
X11260095Y-17197476D01*
X11307714Y-17197476D01*
X11326762Y-17207000D01*
X11336286Y-17216524D01*
X11345809Y-17235571D01*
X11345809Y-17254619D01*
X11336286Y-17283190D01*
X11222000Y-17397476D01*
X11345809Y-17397476D01*
X11469619Y-17197476D02*
X11488667Y-17197476D01*
X11507714Y-17207000D01*
X11517238Y-17216524D01*
X11526762Y-17235571D01*
X11536286Y-17273667D01*
X11536286Y-17321286D01*
X11526762Y-17359381D01*
X11517238Y-17378429D01*
X11507714Y-17387952D01*
X11488667Y-17397476D01*
X11469619Y-17397476D01*
X11450571Y-17387952D01*
X11441048Y-17378429D01*
X11431524Y-17359381D01*
X11422000Y-17321286D01*
X11422000Y-17273667D01*
X11431524Y-17235571D01*
X11441048Y-17216524D01*
X11450571Y-17207000D01*
X11469619Y-17197476D01*
X11612476Y-17197476D02*
X11612476Y-17235571D01*
X11688667Y-17197476D02*
X11688667Y-17235571D01*
X11983905Y-17473667D02*
X11974381Y-17464143D01*
X11955333Y-17435571D01*
X11945809Y-17416524D01*
X11936286Y-17387952D01*
X11926762Y-17340333D01*
X11926762Y-17302238D01*
X11936286Y-17254619D01*
X11945809Y-17226048D01*
X11955333Y-17207000D01*
X11974381Y-17178429D01*
X11983905Y-17168905D01*
X12145809Y-17197476D02*
X12107714Y-17197476D01*
X12088667Y-17207000D01*
X12079143Y-17216524D01*
X12060095Y-17245095D01*
X12050571Y-17283190D01*
X12050571Y-17359381D01*
X12060095Y-17378429D01*
X12069619Y-17387952D01*
X12088667Y-17397476D01*
X12126762Y-17397476D01*
X12145809Y-17387952D01*
X12155333Y-17378429D01*
X12164857Y-17359381D01*
X12164857Y-17311762D01*
X12155333Y-17292714D01*
X12145809Y-17283190D01*
X12126762Y-17273667D01*
X12088667Y-17273667D01*
X12069619Y-17283190D01*
X12060095Y-17292714D01*
X12050571Y-17311762D01*
X12402952Y-17397476D02*
X12402952Y-17197476D01*
X12488667Y-17397476D02*
X12488667Y-17292714D01*
X12479143Y-17273667D01*
X12460095Y-17264143D01*
X12431524Y-17264143D01*
X12412476Y-17273667D01*
X12402952Y-17283190D01*
X12612476Y-17397476D02*
X12593428Y-17387952D01*
X12583905Y-17378429D01*
X12574381Y-17359381D01*
X12574381Y-17302238D01*
X12583905Y-17283190D01*
X12593428Y-17273667D01*
X12612476Y-17264143D01*
X12641048Y-17264143D01*
X12660095Y-17273667D01*
X12669619Y-17283190D01*
X12679143Y-17302238D01*
X12679143Y-17359381D01*
X12669619Y-17378429D01*
X12660095Y-17387952D01*
X12641048Y-17397476D01*
X12612476Y-17397476D01*
X12793428Y-17397476D02*
X12774381Y-17387952D01*
X12764857Y-17368905D01*
X12764857Y-17197476D01*
X12945809Y-17387952D02*
X12926762Y-17397476D01*
X12888667Y-17397476D01*
X12869619Y-17387952D01*
X12860095Y-17368905D01*
X12860095Y-17292714D01*
X12869619Y-17273667D01*
X12888667Y-17264143D01*
X12926762Y-17264143D01*
X12945809Y-17273667D01*
X12955333Y-17292714D01*
X12955333Y-17311762D01*
X12860095Y-17330810D01*
X13031524Y-17387952D02*
X13050571Y-17397476D01*
X13088667Y-17397476D01*
X13107714Y-17387952D01*
X13117238Y-17368905D01*
X13117238Y-17359381D01*
X13107714Y-17340333D01*
X13088667Y-17330810D01*
X13060095Y-17330810D01*
X13041048Y-17321286D01*
X13031524Y-17302238D01*
X13031524Y-17292714D01*
X13041048Y-17273667D01*
X13060095Y-17264143D01*
X13088667Y-17264143D01*
X13107714Y-17273667D01*
X13183905Y-17473667D02*
X13193428Y-17464143D01*
X13212476Y-17435571D01*
X13222000Y-17416524D01*
X13231524Y-17387952D01*
X13241048Y-17340333D01*
X13241048Y-17302238D01*
X13231524Y-17254619D01*
X13222000Y-17226048D01*
X13212476Y-17207000D01*
X13193428Y-17178429D01*
X13183905Y-17168905D01*
D15*
X8399552Y-17601052D02*
X8399552Y-17540948D01*
X8339448Y-17540948D01*
X8339448Y-17601052D01*
X8399552Y-17601052D01*
D11*
X8707714Y-17461476D02*
X8726762Y-17461476D01*
X8745810Y-17471000D01*
X8755333Y-17480524D01*
X8764857Y-17499571D01*
X8774381Y-17537667D01*
X8774381Y-17585286D01*
X8764857Y-17623381D01*
X8755333Y-17642429D01*
X8745810Y-17651952D01*
X8726762Y-17661476D01*
X8707714Y-17661476D01*
X8688667Y-17651952D01*
X8679143Y-17642429D01*
X8669619Y-17623381D01*
X8660095Y-17585286D01*
X8660095Y-17537667D01*
X8669619Y-17499571D01*
X8679143Y-17480524D01*
X8688667Y-17471000D01*
X8707714Y-17461476D01*
X8860095Y-17642429D02*
X8869619Y-17651952D01*
X8860095Y-17661476D01*
X8850571Y-17651952D01*
X8860095Y-17642429D01*
X8860095Y-17661476D01*
X8983905Y-17547190D02*
X8964857Y-17537667D01*
X8955333Y-17528143D01*
X8945810Y-17509095D01*
X8945810Y-17499571D01*
X8955333Y-17480524D01*
X8964857Y-17471000D01*
X8983905Y-17461476D01*
X9022000Y-17461476D01*
X9041048Y-17471000D01*
X9050571Y-17480524D01*
X9060095Y-17499571D01*
X9060095Y-17509095D01*
X9050571Y-17528143D01*
X9041048Y-17537667D01*
X9022000Y-17547190D01*
X8983905Y-17547190D01*
X8964857Y-17556714D01*
X8955333Y-17566238D01*
X8945810Y-17585286D01*
X8945810Y-17623381D01*
X8955333Y-17642429D01*
X8964857Y-17651952D01*
X8983905Y-17661476D01*
X9022000Y-17661476D01*
X9041048Y-17651952D01*
X9050571Y-17642429D01*
X9060095Y-17623381D01*
X9060095Y-17585286D01*
X9050571Y-17566238D01*
X9041048Y-17556714D01*
X9022000Y-17547190D01*
X9241048Y-17461476D02*
X9145810Y-17461476D01*
X9136286Y-17556714D01*
X9145810Y-17547190D01*
X9164857Y-17537667D01*
X9212476Y-17537667D01*
X9231524Y-17547190D01*
X9241048Y-17556714D01*
X9250571Y-17575762D01*
X9250571Y-17623381D01*
X9241048Y-17642429D01*
X9231524Y-17651952D01*
X9212476Y-17661476D01*
X9164857Y-17661476D01*
X9145810Y-17651952D01*
X9136286Y-17642429D01*
X9374381Y-17461476D02*
X9393429Y-17461476D01*
X9412476Y-17471000D01*
X9422000Y-17480524D01*
X9431524Y-17499571D01*
X9441048Y-17537667D01*
X9441048Y-17585286D01*
X9431524Y-17623381D01*
X9422000Y-17642429D01*
X9412476Y-17651952D01*
X9393429Y-17661476D01*
X9374381Y-17661476D01*
X9355333Y-17651952D01*
X9345810Y-17642429D01*
X9336286Y-17623381D01*
X9326762Y-17585286D01*
X9326762Y-17537667D01*
X9336286Y-17499571D01*
X9345810Y-17480524D01*
X9355333Y-17471000D01*
X9374381Y-17461476D01*
X9526762Y-17661476D02*
X9526762Y-17528143D01*
X9526762Y-17547190D02*
X9536286Y-17537667D01*
X9555333Y-17528143D01*
X9583905Y-17528143D01*
X9602952Y-17537667D01*
X9612476Y-17556714D01*
X9612476Y-17661476D01*
X9612476Y-17556714D02*
X9622000Y-17537667D01*
X9641048Y-17528143D01*
X9669619Y-17528143D01*
X9688667Y-17537667D01*
X9698190Y-17556714D01*
X9698190Y-17661476D01*
X9793429Y-17661476D02*
X9793429Y-17528143D01*
X9793429Y-17547190D02*
X9802952Y-17537667D01*
X9822000Y-17528143D01*
X9850571Y-17528143D01*
X9869619Y-17537667D01*
X9879143Y-17556714D01*
X9879143Y-17661476D01*
X9879143Y-17556714D02*
X9888667Y-17537667D01*
X9907714Y-17528143D01*
X9936286Y-17528143D01*
X9955333Y-17537667D01*
X9964857Y-17556714D01*
X9964857Y-17661476D01*
X10355333Y-17451952D02*
X10183905Y-17709095D01*
X10612476Y-17461476D02*
X10631524Y-17461476D01*
X10650571Y-17471000D01*
X10660095Y-17480524D01*
X10669619Y-17499571D01*
X10679143Y-17537667D01*
X10679143Y-17585286D01*
X10669619Y-17623381D01*
X10660095Y-17642429D01*
X10650571Y-17651952D01*
X10631524Y-17661476D01*
X10612476Y-17661476D01*
X10593429Y-17651952D01*
X10583905Y-17642429D01*
X10574381Y-17623381D01*
X10564857Y-17585286D01*
X10564857Y-17537667D01*
X10574381Y-17499571D01*
X10583905Y-17480524D01*
X10593429Y-17471000D01*
X10612476Y-17461476D01*
X10764857Y-17642429D02*
X10774381Y-17651952D01*
X10764857Y-17661476D01*
X10755333Y-17651952D01*
X10764857Y-17642429D01*
X10764857Y-17661476D01*
X10898190Y-17461476D02*
X10917238Y-17461476D01*
X10936286Y-17471000D01*
X10945810Y-17480524D01*
X10955333Y-17499571D01*
X10964857Y-17537667D01*
X10964857Y-17585286D01*
X10955333Y-17623381D01*
X10945810Y-17642429D01*
X10936286Y-17651952D01*
X10917238Y-17661476D01*
X10898190Y-17661476D01*
X10879143Y-17651952D01*
X10869619Y-17642429D01*
X10860095Y-17623381D01*
X10850571Y-17585286D01*
X10850571Y-17537667D01*
X10860095Y-17499571D01*
X10869619Y-17480524D01*
X10879143Y-17471000D01*
X10898190Y-17461476D01*
X11031524Y-17461476D02*
X11155333Y-17461476D01*
X11088667Y-17537667D01*
X11117238Y-17537667D01*
X11136286Y-17547190D01*
X11145810Y-17556714D01*
X11155333Y-17575762D01*
X11155333Y-17623381D01*
X11145810Y-17642429D01*
X11136286Y-17651952D01*
X11117238Y-17661476D01*
X11060095Y-17661476D01*
X11041048Y-17651952D01*
X11031524Y-17642429D01*
X11222000Y-17461476D02*
X11345809Y-17461476D01*
X11279143Y-17537667D01*
X11307714Y-17537667D01*
X11326762Y-17547190D01*
X11336286Y-17556714D01*
X11345809Y-17575762D01*
X11345809Y-17623381D01*
X11336286Y-17642429D01*
X11326762Y-17651952D01*
X11307714Y-17661476D01*
X11250571Y-17661476D01*
X11231524Y-17651952D01*
X11222000Y-17642429D01*
X11526762Y-17461476D02*
X11431524Y-17461476D01*
X11422000Y-17556714D01*
X11431524Y-17547190D01*
X11450571Y-17537667D01*
X11498190Y-17537667D01*
X11517238Y-17547190D01*
X11526762Y-17556714D01*
X11536286Y-17575762D01*
X11536286Y-17623381D01*
X11526762Y-17642429D01*
X11517238Y-17651952D01*
X11498190Y-17661476D01*
X11450571Y-17661476D01*
X11431524Y-17651952D01*
X11422000Y-17642429D01*
X11612476Y-17461476D02*
X11612476Y-17499571D01*
X11688667Y-17461476D02*
X11688667Y-17499571D01*
X11983905Y-17737667D02*
X11974381Y-17728143D01*
X11955333Y-17699571D01*
X11945809Y-17680524D01*
X11936286Y-17651952D01*
X11926762Y-17604333D01*
X11926762Y-17566238D01*
X11936286Y-17518619D01*
X11945809Y-17490048D01*
X11955333Y-17471000D01*
X11974381Y-17442429D01*
X11983905Y-17432905D01*
X12145809Y-17461476D02*
X12107714Y-17461476D01*
X12088667Y-17471000D01*
X12079143Y-17480524D01*
X12060095Y-17509095D01*
X12050571Y-17547190D01*
X12050571Y-17623381D01*
X12060095Y-17642429D01*
X12069619Y-17651952D01*
X12088667Y-17661476D01*
X12126762Y-17661476D01*
X12145809Y-17651952D01*
X12155333Y-17642429D01*
X12164857Y-17623381D01*
X12164857Y-17575762D01*
X12155333Y-17556714D01*
X12145809Y-17547190D01*
X12126762Y-17537667D01*
X12088667Y-17537667D01*
X12069619Y-17547190D01*
X12060095Y-17556714D01*
X12050571Y-17575762D01*
X12402952Y-17661476D02*
X12402952Y-17461476D01*
X12488667Y-17661476D02*
X12488667Y-17556714D01*
X12479143Y-17537667D01*
X12460095Y-17528143D01*
X12431524Y-17528143D01*
X12412476Y-17537667D01*
X12402952Y-17547190D01*
X12612476Y-17661476D02*
X12593428Y-17651952D01*
X12583905Y-17642429D01*
X12574381Y-17623381D01*
X12574381Y-17566238D01*
X12583905Y-17547190D01*
X12593428Y-17537667D01*
X12612476Y-17528143D01*
X12641048Y-17528143D01*
X12660095Y-17537667D01*
X12669619Y-17547190D01*
X12679143Y-17566238D01*
X12679143Y-17623381D01*
X12669619Y-17642429D01*
X12660095Y-17651952D01*
X12641048Y-17661476D01*
X12612476Y-17661476D01*
X12793428Y-17661476D02*
X12774381Y-17651952D01*
X12764857Y-17632905D01*
X12764857Y-17461476D01*
X12945809Y-17651952D02*
X12926762Y-17661476D01*
X12888667Y-17661476D01*
X12869619Y-17651952D01*
X12860095Y-17632905D01*
X12860095Y-17556714D01*
X12869619Y-17537667D01*
X12888667Y-17528143D01*
X12926762Y-17528143D01*
X12945809Y-17537667D01*
X12955333Y-17556714D01*
X12955333Y-17575762D01*
X12860095Y-17594810D01*
X13031524Y-17651952D02*
X13050571Y-17661476D01*
X13088667Y-17661476D01*
X13107714Y-17651952D01*
X13117238Y-17632905D01*
X13117238Y-17623381D01*
X13107714Y-17604333D01*
X13088667Y-17594810D01*
X13060095Y-17594810D01*
X13041048Y-17585286D01*
X13031524Y-17566238D01*
X13031524Y-17556714D01*
X13041048Y-17537667D01*
X13060095Y-17528143D01*
X13088667Y-17528143D01*
X13107714Y-17537667D01*
X13183905Y-17737667D02*
X13193428Y-17728143D01*
X13212476Y-17699571D01*
X13222000Y-17680524D01*
X13231524Y-17651952D01*
X13241048Y-17604333D01*
X13241048Y-17566238D01*
X13231524Y-17518619D01*
X13222000Y-17490048D01*
X13212476Y-17471000D01*
X13193428Y-17442429D01*
X13183905Y-17432905D01*
D16*
X8357000Y-17890000D02*
X8412000Y-17835000D01*
X8357000Y-17780000D01*
X8302000Y-17835000D01*
X8357000Y-17890000D01*
D11*
X8774381Y-17925476D02*
X8660095Y-17925476D01*
X8717238Y-17925476D02*
X8717238Y-17725476D01*
X8698190Y-17754048D01*
X8679143Y-17773095D01*
X8660095Y-17782619D01*
X8860095Y-17906429D02*
X8869619Y-17915952D01*
X8860095Y-17925476D01*
X8850571Y-17915952D01*
X8860095Y-17906429D01*
X8860095Y-17925476D01*
X9060095Y-17925476D02*
X8945810Y-17925476D01*
X9002952Y-17925476D02*
X9002952Y-17725476D01*
X8983905Y-17754048D01*
X8964857Y-17773095D01*
X8945810Y-17782619D01*
X9183905Y-17725476D02*
X9202952Y-17725476D01*
X9222000Y-17735000D01*
X9231524Y-17744524D01*
X9241048Y-17763571D01*
X9250571Y-17801667D01*
X9250571Y-17849286D01*
X9241048Y-17887381D01*
X9231524Y-17906429D01*
X9222000Y-17915952D01*
X9202952Y-17925476D01*
X9183905Y-17925476D01*
X9164857Y-17915952D01*
X9155333Y-17906429D01*
X9145810Y-17887381D01*
X9136286Y-17849286D01*
X9136286Y-17801667D01*
X9145810Y-17763571D01*
X9155333Y-17744524D01*
X9164857Y-17735000D01*
X9183905Y-17725476D01*
X9374381Y-17725476D02*
X9393429Y-17725476D01*
X9412476Y-17735000D01*
X9422000Y-17744524D01*
X9431524Y-17763571D01*
X9441048Y-17801667D01*
X9441048Y-17849286D01*
X9431524Y-17887381D01*
X9422000Y-17906429D01*
X9412476Y-17915952D01*
X9393429Y-17925476D01*
X9374381Y-17925476D01*
X9355333Y-17915952D01*
X9345810Y-17906429D01*
X9336286Y-17887381D01*
X9326762Y-17849286D01*
X9326762Y-17801667D01*
X9336286Y-17763571D01*
X9345810Y-17744524D01*
X9355333Y-17735000D01*
X9374381Y-17725476D01*
X9526762Y-17925476D02*
X9526762Y-17792143D01*
X9526762Y-17811190D02*
X9536286Y-17801667D01*
X9555333Y-17792143D01*
X9583905Y-17792143D01*
X9602952Y-17801667D01*
X9612476Y-17820714D01*
X9612476Y-17925476D01*
X9612476Y-17820714D02*
X9622000Y-17801667D01*
X9641048Y-17792143D01*
X9669619Y-17792143D01*
X9688667Y-17801667D01*
X9698190Y-17820714D01*
X9698190Y-17925476D01*
X9793429Y-17925476D02*
X9793429Y-17792143D01*
X9793429Y-17811190D02*
X9802952Y-17801667D01*
X9822000Y-17792143D01*
X9850571Y-17792143D01*
X9869619Y-17801667D01*
X9879143Y-17820714D01*
X9879143Y-17925476D01*
X9879143Y-17820714D02*
X9888667Y-17801667D01*
X9907714Y-17792143D01*
X9936286Y-17792143D01*
X9955333Y-17801667D01*
X9964857Y-17820714D01*
X9964857Y-17925476D01*
X10355333Y-17715952D02*
X10183905Y-17973095D01*
X10612476Y-17725476D02*
X10631524Y-17725476D01*
X10650571Y-17735000D01*
X10660095Y-17744524D01*
X10669619Y-17763571D01*
X10679143Y-17801667D01*
X10679143Y-17849286D01*
X10669619Y-17887381D01*
X10660095Y-17906429D01*
X10650571Y-17915952D01*
X10631524Y-17925476D01*
X10612476Y-17925476D01*
X10593429Y-17915952D01*
X10583905Y-17906429D01*
X10574381Y-17887381D01*
X10564857Y-17849286D01*
X10564857Y-17801667D01*
X10574381Y-17763571D01*
X10583905Y-17744524D01*
X10593429Y-17735000D01*
X10612476Y-17725476D01*
X10764857Y-17906429D02*
X10774381Y-17915952D01*
X10764857Y-17925476D01*
X10755333Y-17915952D01*
X10764857Y-17906429D01*
X10764857Y-17925476D01*
X10898190Y-17725476D02*
X10917238Y-17725476D01*
X10936286Y-17735000D01*
X10945810Y-17744524D01*
X10955333Y-17763571D01*
X10964857Y-17801667D01*
X10964857Y-17849286D01*
X10955333Y-17887381D01*
X10945810Y-17906429D01*
X10936286Y-17915952D01*
X10917238Y-17925476D01*
X10898190Y-17925476D01*
X10879143Y-17915952D01*
X10869619Y-17906429D01*
X10860095Y-17887381D01*
X10850571Y-17849286D01*
X10850571Y-17801667D01*
X10860095Y-17763571D01*
X10869619Y-17744524D01*
X10879143Y-17735000D01*
X10898190Y-17725476D01*
X11136286Y-17792143D02*
X11136286Y-17925476D01*
X11088667Y-17715952D02*
X11041048Y-17858810D01*
X11164857Y-17858810D01*
X11222000Y-17725476D02*
X11345809Y-17725476D01*
X11279143Y-17801667D01*
X11307714Y-17801667D01*
X11326762Y-17811190D01*
X11336286Y-17820714D01*
X11345809Y-17839762D01*
X11345809Y-17887381D01*
X11336286Y-17906429D01*
X11326762Y-17915952D01*
X11307714Y-17925476D01*
X11250571Y-17925476D01*
X11231524Y-17915952D01*
X11222000Y-17906429D01*
X11412476Y-17725476D02*
X11536286Y-17725476D01*
X11469619Y-17801667D01*
X11498190Y-17801667D01*
X11517238Y-17811190D01*
X11526762Y-17820714D01*
X11536286Y-17839762D01*
X11536286Y-17887381D01*
X11526762Y-17906429D01*
X11517238Y-17915952D01*
X11498190Y-17925476D01*
X11441048Y-17925476D01*
X11422000Y-17915952D01*
X11412476Y-17906429D01*
X11612476Y-17725476D02*
X11612476Y-17763571D01*
X11688667Y-17725476D02*
X11688667Y-17763571D01*
X11983905Y-18001667D02*
X11974381Y-17992143D01*
X11955333Y-17963571D01*
X11945809Y-17944524D01*
X11936286Y-17915952D01*
X11926762Y-17868333D01*
X11926762Y-17830238D01*
X11936286Y-17782619D01*
X11945809Y-17754048D01*
X11955333Y-17735000D01*
X11974381Y-17706429D01*
X11983905Y-17696905D01*
X12041048Y-17725476D02*
X12164857Y-17725476D01*
X12098190Y-17801667D01*
X12126762Y-17801667D01*
X12145809Y-17811190D01*
X12155333Y-17820714D01*
X12164857Y-17839762D01*
X12164857Y-17887381D01*
X12155333Y-17906429D01*
X12145809Y-17915952D01*
X12126762Y-17925476D01*
X12069619Y-17925476D01*
X12050571Y-17915952D01*
X12041048Y-17906429D01*
X12402952Y-17925476D02*
X12402952Y-17725476D01*
X12488667Y-17925476D02*
X12488667Y-17820714D01*
X12479143Y-17801667D01*
X12460095Y-17792143D01*
X12431524Y-17792143D01*
X12412476Y-17801667D01*
X12402952Y-17811190D01*
X12612476Y-17925476D02*
X12593428Y-17915952D01*
X12583905Y-17906429D01*
X12574381Y-17887381D01*
X12574381Y-17830238D01*
X12583905Y-17811190D01*
X12593428Y-17801667D01*
X12612476Y-17792143D01*
X12641048Y-17792143D01*
X12660095Y-17801667D01*
X12669619Y-17811190D01*
X12679143Y-17830238D01*
X12679143Y-17887381D01*
X12669619Y-17906429D01*
X12660095Y-17915952D01*
X12641048Y-17925476D01*
X12612476Y-17925476D01*
X12793428Y-17925476D02*
X12774381Y-17915952D01*
X12764857Y-17896905D01*
X12764857Y-17725476D01*
X12945809Y-17915952D02*
X12926762Y-17925476D01*
X12888667Y-17925476D01*
X12869619Y-17915952D01*
X12860095Y-17896905D01*
X12860095Y-17820714D01*
X12869619Y-17801667D01*
X12888667Y-17792143D01*
X12926762Y-17792143D01*
X12945809Y-17801667D01*
X12955333Y-17820714D01*
X12955333Y-17839762D01*
X12860095Y-17858810D01*
X13031524Y-17915952D02*
X13050571Y-17925476D01*
X13088667Y-17925476D01*
X13107714Y-17915952D01*
X13117238Y-17896905D01*
X13117238Y-17887381D01*
X13107714Y-17868333D01*
X13088667Y-17858810D01*
X13060095Y-17858810D01*
X13041048Y-17849286D01*
X13031524Y-17830238D01*
X13031524Y-17820714D01*
X13041048Y-17801667D01*
X13060095Y-17792143D01*
X13088667Y-17792143D01*
X13107714Y-17801667D01*
X13183905Y-18001667D02*
X13193428Y-17992143D01*
X13212476Y-17963571D01*
X13222000Y-17944524D01*
X13231524Y-17915952D01*
X13241048Y-17868333D01*
X13241048Y-17830238D01*
X13231524Y-17782619D01*
X13222000Y-17754048D01*
X13212476Y-17735000D01*
X13193428Y-17706429D01*
X13183905Y-17696905D01*
D17*
X8282000Y-18034000D02*
X8412000Y-18164000D01*
X8412000Y-18034000D02*
X8282000Y-18164000D01*
X8412000Y-18099000D02*
G75*
G03*
X8412000Y-18099000I-65000J0D01*
G01*
D11*
X8774381Y-18189476D02*
X8660095Y-18189476D01*
X8717238Y-18189476D02*
X8717238Y-17989476D01*
X8698190Y-18018048D01*
X8679143Y-18037095D01*
X8660095Y-18046619D01*
X8860095Y-18170429D02*
X8869619Y-18179952D01*
X8860095Y-18189476D01*
X8850571Y-18179952D01*
X8860095Y-18170429D01*
X8860095Y-18189476D01*
X8936286Y-17989476D02*
X9060095Y-17989476D01*
X8993429Y-18065667D01*
X9022000Y-18065667D01*
X9041048Y-18075190D01*
X9050571Y-18084714D01*
X9060095Y-18103762D01*
X9060095Y-18151381D01*
X9050571Y-18170429D01*
X9041048Y-18179952D01*
X9022000Y-18189476D01*
X8964857Y-18189476D01*
X8945810Y-18179952D01*
X8936286Y-18170429D01*
X9183905Y-17989476D02*
X9202952Y-17989476D01*
X9222000Y-17999000D01*
X9231524Y-18008524D01*
X9241048Y-18027571D01*
X9250571Y-18065667D01*
X9250571Y-18113286D01*
X9241048Y-18151381D01*
X9231524Y-18170429D01*
X9222000Y-18179952D01*
X9202952Y-18189476D01*
X9183905Y-18189476D01*
X9164857Y-18179952D01*
X9155333Y-18170429D01*
X9145810Y-18151381D01*
X9136286Y-18113286D01*
X9136286Y-18065667D01*
X9145810Y-18027571D01*
X9155333Y-18008524D01*
X9164857Y-17999000D01*
X9183905Y-17989476D01*
X9374381Y-17989476D02*
X9393429Y-17989476D01*
X9412476Y-17999000D01*
X9422000Y-18008524D01*
X9431524Y-18027571D01*
X9441048Y-18065667D01*
X9441048Y-18113286D01*
X9431524Y-18151381D01*
X9422000Y-18170429D01*
X9412476Y-18179952D01*
X9393429Y-18189476D01*
X9374381Y-18189476D01*
X9355333Y-18179952D01*
X9345810Y-18170429D01*
X9336286Y-18151381D01*
X9326762Y-18113286D01*
X9326762Y-18065667D01*
X9336286Y-18027571D01*
X9345810Y-18008524D01*
X9355333Y-17999000D01*
X9374381Y-17989476D01*
X9526762Y-18189476D02*
X9526762Y-18056143D01*
X9526762Y-18075190D02*
X9536286Y-18065667D01*
X9555333Y-18056143D01*
X9583905Y-18056143D01*
X9602952Y-18065667D01*
X9612476Y-18084714D01*
X9612476Y-18189476D01*
X9612476Y-18084714D02*
X9622000Y-18065667D01*
X9641048Y-18056143D01*
X9669619Y-18056143D01*
X9688667Y-18065667D01*
X9698190Y-18084714D01*
X9698190Y-18189476D01*
X9793429Y-18189476D02*
X9793429Y-18056143D01*
X9793429Y-18075190D02*
X9802952Y-18065667D01*
X9822000Y-18056143D01*
X9850571Y-18056143D01*
X9869619Y-18065667D01*
X9879143Y-18084714D01*
X9879143Y-18189476D01*
X9879143Y-18084714D02*
X9888667Y-18065667D01*
X9907714Y-18056143D01*
X9936286Y-18056143D01*
X9955333Y-18065667D01*
X9964857Y-18084714D01*
X9964857Y-18189476D01*
X10355333Y-17979952D02*
X10183905Y-18237095D01*
X10612476Y-17989476D02*
X10631524Y-17989476D01*
X10650571Y-17999000D01*
X10660095Y-18008524D01*
X10669619Y-18027571D01*
X10679143Y-18065667D01*
X10679143Y-18113286D01*
X10669619Y-18151381D01*
X10660095Y-18170429D01*
X10650571Y-18179952D01*
X10631524Y-18189476D01*
X10612476Y-18189476D01*
X10593429Y-18179952D01*
X10583905Y-18170429D01*
X10574381Y-18151381D01*
X10564857Y-18113286D01*
X10564857Y-18065667D01*
X10574381Y-18027571D01*
X10583905Y-18008524D01*
X10593429Y-17999000D01*
X10612476Y-17989476D01*
X10764857Y-18170429D02*
X10774381Y-18179952D01*
X10764857Y-18189476D01*
X10755333Y-18179952D01*
X10764857Y-18170429D01*
X10764857Y-18189476D01*
X10898190Y-17989476D02*
X10917238Y-17989476D01*
X10936286Y-17999000D01*
X10945810Y-18008524D01*
X10955333Y-18027571D01*
X10964857Y-18065667D01*
X10964857Y-18113286D01*
X10955333Y-18151381D01*
X10945810Y-18170429D01*
X10936286Y-18179952D01*
X10917238Y-18189476D01*
X10898190Y-18189476D01*
X10879143Y-18179952D01*
X10869619Y-18170429D01*
X10860095Y-18151381D01*
X10850571Y-18113286D01*
X10850571Y-18065667D01*
X10860095Y-18027571D01*
X10869619Y-18008524D01*
X10879143Y-17999000D01*
X10898190Y-17989476D01*
X11145810Y-17989476D02*
X11050571Y-17989476D01*
X11041048Y-18084714D01*
X11050571Y-18075190D01*
X11069619Y-18065667D01*
X11117238Y-18065667D01*
X11136286Y-18075190D01*
X11145810Y-18084714D01*
X11155333Y-18103762D01*
X11155333Y-18151381D01*
X11145810Y-18170429D01*
X11136286Y-18179952D01*
X11117238Y-18189476D01*
X11069619Y-18189476D01*
X11050571Y-18179952D01*
X11041048Y-18170429D01*
X11345809Y-18189476D02*
X11231524Y-18189476D01*
X11288667Y-18189476D02*
X11288667Y-17989476D01*
X11269619Y-18018048D01*
X11250571Y-18037095D01*
X11231524Y-18046619D01*
X11422000Y-18008524D02*
X11431524Y-17999000D01*
X11450571Y-17989476D01*
X11498190Y-17989476D01*
X11517238Y-17999000D01*
X11526762Y-18008524D01*
X11536286Y-18027571D01*
X11536286Y-18046619D01*
X11526762Y-18075190D01*
X11412476Y-18189476D01*
X11536286Y-18189476D01*
X11612476Y-17989476D02*
X11612476Y-18027571D01*
X11688667Y-17989476D02*
X11688667Y-18027571D01*
X11983905Y-18265667D02*
X11974381Y-18256143D01*
X11955333Y-18227571D01*
X11945809Y-18208524D01*
X11936286Y-18179952D01*
X11926762Y-18132333D01*
X11926762Y-18094238D01*
X11936286Y-18046619D01*
X11945809Y-18018048D01*
X11955333Y-17999000D01*
X11974381Y-17970429D01*
X11983905Y-17960905D01*
X12050571Y-18008524D02*
X12060095Y-17999000D01*
X12079143Y-17989476D01*
X12126762Y-17989476D01*
X12145809Y-17999000D01*
X12155333Y-18008524D01*
X12164857Y-18027571D01*
X12164857Y-18046619D01*
X12155333Y-18075190D01*
X12041048Y-18189476D01*
X12164857Y-18189476D01*
X12402952Y-18189476D02*
X12402952Y-17989476D01*
X12488667Y-18189476D02*
X12488667Y-18084714D01*
X12479143Y-18065667D01*
X12460095Y-18056143D01*
X12431524Y-18056143D01*
X12412476Y-18065667D01*
X12402952Y-18075190D01*
X12612476Y-18189476D02*
X12593428Y-18179952D01*
X12583905Y-18170429D01*
X12574381Y-18151381D01*
X12574381Y-18094238D01*
X12583905Y-18075190D01*
X12593428Y-18065667D01*
X12612476Y-18056143D01*
X12641048Y-18056143D01*
X12660095Y-18065667D01*
X12669619Y-18075190D01*
X12679143Y-18094238D01*
X12679143Y-18151381D01*
X12669619Y-18170429D01*
X12660095Y-18179952D01*
X12641048Y-18189476D01*
X12612476Y-18189476D01*
X12793428Y-18189476D02*
X12774381Y-18179952D01*
X12764857Y-18160905D01*
X12764857Y-17989476D01*
X12945809Y-18179952D02*
X12926762Y-18189476D01*
X12888667Y-18189476D01*
X12869619Y-18179952D01*
X12860095Y-18160905D01*
X12860095Y-18084714D01*
X12869619Y-18065667D01*
X12888667Y-18056143D01*
X12926762Y-18056143D01*
X12945809Y-18065667D01*
X12955333Y-18084714D01*
X12955333Y-18103762D01*
X12860095Y-18122810D01*
X13031524Y-18179952D02*
X13050571Y-18189476D01*
X13088667Y-18189476D01*
X13107714Y-18179952D01*
X13117238Y-18160905D01*
X13117238Y-18151381D01*
X13107714Y-18132333D01*
X13088667Y-18122810D01*
X13060095Y-18122810D01*
X13041048Y-18113286D01*
X13031524Y-18094238D01*
X13031524Y-18084714D01*
X13041048Y-18065667D01*
X13060095Y-18056143D01*
X13088667Y-18056143D01*
X13107714Y-18065667D01*
X13183905Y-18265667D02*
X13193428Y-18256143D01*
X13212476Y-18227571D01*
X13222000Y-18208524D01*
X13231524Y-18179952D01*
X13241048Y-18132333D01*
X13241048Y-18094238D01*
X13231524Y-18046619D01*
X13222000Y-18018048D01*
X13212476Y-17999000D01*
X13193428Y-17970429D01*
X13183905Y-17960905D01*
X8212000Y-18263000D02*
X8412000Y-18463000D01*
X8412000Y-18263000D02*
X8212000Y-18463000D01*
X8312000Y-18263000D02*
X8312000Y-18463000D01*
X8212000Y-18363000D02*
X8412000Y-18363000D01*
X8660095Y-18272524D02*
X8669619Y-18263000D01*
X8688667Y-18253476D01*
X8736286Y-18253476D01*
X8755333Y-18263000D01*
X8764857Y-18272524D01*
X8774381Y-18291571D01*
X8774381Y-18310619D01*
X8764857Y-18339190D01*
X8650571Y-18453476D01*
X8774381Y-18453476D01*
X8860095Y-18434429D02*
X8869619Y-18443952D01*
X8860095Y-18453476D01*
X8850571Y-18443952D01*
X8860095Y-18434429D01*
X8860095Y-18453476D01*
X8936286Y-18253476D02*
X9069619Y-18253476D01*
X8983905Y-18453476D01*
X9183905Y-18253476D02*
X9202952Y-18253476D01*
X9222000Y-18263000D01*
X9231524Y-18272524D01*
X9241048Y-18291571D01*
X9250571Y-18329667D01*
X9250571Y-18377286D01*
X9241048Y-18415381D01*
X9231524Y-18434429D01*
X9222000Y-18443952D01*
X9202952Y-18453476D01*
X9183905Y-18453476D01*
X9164857Y-18443952D01*
X9155333Y-18434429D01*
X9145810Y-18415381D01*
X9136286Y-18377286D01*
X9136286Y-18329667D01*
X9145810Y-18291571D01*
X9155333Y-18272524D01*
X9164857Y-18263000D01*
X9183905Y-18253476D01*
X9374381Y-18253476D02*
X9393429Y-18253476D01*
X9412476Y-18263000D01*
X9422000Y-18272524D01*
X9431524Y-18291571D01*
X9441048Y-18329667D01*
X9441048Y-18377286D01*
X9431524Y-18415381D01*
X9422000Y-18434429D01*
X9412476Y-18443952D01*
X9393429Y-18453476D01*
X9374381Y-18453476D01*
X9355333Y-18443952D01*
X9345810Y-18434429D01*
X9336286Y-18415381D01*
X9326762Y-18377286D01*
X9326762Y-18329667D01*
X9336286Y-18291571D01*
X9345810Y-18272524D01*
X9355333Y-18263000D01*
X9374381Y-18253476D01*
X9526762Y-18453476D02*
X9526762Y-18320143D01*
X9526762Y-18339190D02*
X9536286Y-18329667D01*
X9555333Y-18320143D01*
X9583905Y-18320143D01*
X9602952Y-18329667D01*
X9612476Y-18348714D01*
X9612476Y-18453476D01*
X9612476Y-18348714D02*
X9622000Y-18329667D01*
X9641048Y-18320143D01*
X9669619Y-18320143D01*
X9688667Y-18329667D01*
X9698190Y-18348714D01*
X9698190Y-18453476D01*
X9793429Y-18453476D02*
X9793429Y-18320143D01*
X9793429Y-18339190D02*
X9802952Y-18329667D01*
X9822000Y-18320143D01*
X9850571Y-18320143D01*
X9869619Y-18329667D01*
X9879143Y-18348714D01*
X9879143Y-18453476D01*
X9879143Y-18348714D02*
X9888667Y-18329667D01*
X9907714Y-18320143D01*
X9936286Y-18320143D01*
X9955333Y-18329667D01*
X9964857Y-18348714D01*
X9964857Y-18453476D01*
X10355333Y-18243952D02*
X10183905Y-18501095D01*
X10612476Y-18253476D02*
X10631524Y-18253476D01*
X10650571Y-18263000D01*
X10660095Y-18272524D01*
X10669619Y-18291571D01*
X10679143Y-18329667D01*
X10679143Y-18377286D01*
X10669619Y-18415381D01*
X10660095Y-18434429D01*
X10650571Y-18443952D01*
X10631524Y-18453476D01*
X10612476Y-18453476D01*
X10593429Y-18443952D01*
X10583905Y-18434429D01*
X10574381Y-18415381D01*
X10564857Y-18377286D01*
X10564857Y-18329667D01*
X10574381Y-18291571D01*
X10583905Y-18272524D01*
X10593429Y-18263000D01*
X10612476Y-18253476D01*
X10764857Y-18434429D02*
X10774381Y-18443952D01*
X10764857Y-18453476D01*
X10755333Y-18443952D01*
X10764857Y-18434429D01*
X10764857Y-18453476D01*
X10964857Y-18453476D02*
X10850571Y-18453476D01*
X10907714Y-18453476D02*
X10907714Y-18253476D01*
X10888667Y-18282048D01*
X10869619Y-18301095D01*
X10850571Y-18310619D01*
X11088667Y-18253476D02*
X11107714Y-18253476D01*
X11126762Y-18263000D01*
X11136286Y-18272524D01*
X11145810Y-18291571D01*
X11155333Y-18329667D01*
X11155333Y-18377286D01*
X11145810Y-18415381D01*
X11136286Y-18434429D01*
X11126762Y-18443952D01*
X11107714Y-18453476D01*
X11088667Y-18453476D01*
X11069619Y-18443952D01*
X11060095Y-18434429D01*
X11050571Y-18415381D01*
X11041048Y-18377286D01*
X11041048Y-18329667D01*
X11050571Y-18291571D01*
X11060095Y-18272524D01*
X11069619Y-18263000D01*
X11088667Y-18253476D01*
X11326762Y-18253476D02*
X11288667Y-18253476D01*
X11269619Y-18263000D01*
X11260095Y-18272524D01*
X11241048Y-18301095D01*
X11231524Y-18339190D01*
X11231524Y-18415381D01*
X11241048Y-18434429D01*
X11250571Y-18443952D01*
X11269619Y-18453476D01*
X11307714Y-18453476D01*
X11326762Y-18443952D01*
X11336286Y-18434429D01*
X11345809Y-18415381D01*
X11345809Y-18367762D01*
X11336286Y-18348714D01*
X11326762Y-18339190D01*
X11307714Y-18329667D01*
X11269619Y-18329667D01*
X11250571Y-18339190D01*
X11241048Y-18348714D01*
X11231524Y-18367762D01*
X11412476Y-18253476D02*
X11536286Y-18253476D01*
X11469619Y-18329667D01*
X11498190Y-18329667D01*
X11517238Y-18339190D01*
X11526762Y-18348714D01*
X11536286Y-18367762D01*
X11536286Y-18415381D01*
X11526762Y-18434429D01*
X11517238Y-18443952D01*
X11498190Y-18453476D01*
X11441048Y-18453476D01*
X11422000Y-18443952D01*
X11412476Y-18434429D01*
X11612476Y-18253476D02*
X11612476Y-18291571D01*
X11688667Y-18253476D02*
X11688667Y-18291571D01*
X11983905Y-18529667D02*
X11974381Y-18520143D01*
X11955333Y-18491571D01*
X11945809Y-18472524D01*
X11936286Y-18443952D01*
X11926762Y-18396333D01*
X11926762Y-18358238D01*
X11936286Y-18310619D01*
X11945809Y-18282048D01*
X11955333Y-18263000D01*
X11974381Y-18234429D01*
X11983905Y-18224905D01*
X12041048Y-18253476D02*
X12164857Y-18253476D01*
X12098190Y-18329667D01*
X12126762Y-18329667D01*
X12145809Y-18339190D01*
X12155333Y-18348714D01*
X12164857Y-18367762D01*
X12164857Y-18415381D01*
X12155333Y-18434429D01*
X12145809Y-18443952D01*
X12126762Y-18453476D01*
X12069619Y-18453476D01*
X12050571Y-18443952D01*
X12041048Y-18434429D01*
X12402952Y-18453476D02*
X12402952Y-18253476D01*
X12488667Y-18453476D02*
X12488667Y-18348714D01*
X12479143Y-18329667D01*
X12460095Y-18320143D01*
X12431524Y-18320143D01*
X12412476Y-18329667D01*
X12402952Y-18339190D01*
X12612476Y-18453476D02*
X12593428Y-18443952D01*
X12583905Y-18434429D01*
X12574381Y-18415381D01*
X12574381Y-18358238D01*
X12583905Y-18339190D01*
X12593428Y-18329667D01*
X12612476Y-18320143D01*
X12641048Y-18320143D01*
X12660095Y-18329667D01*
X12669619Y-18339190D01*
X12679143Y-18358238D01*
X12679143Y-18415381D01*
X12669619Y-18434429D01*
X12660095Y-18443952D01*
X12641048Y-18453476D01*
X12612476Y-18453476D01*
X12793428Y-18453476D02*
X12774381Y-18443952D01*
X12764857Y-18424905D01*
X12764857Y-18253476D01*
X12945809Y-18443952D02*
X12926762Y-18453476D01*
X12888667Y-18453476D01*
X12869619Y-18443952D01*
X12860095Y-18424905D01*
X12860095Y-18348714D01*
X12869619Y-18329667D01*
X12888667Y-18320143D01*
X12926762Y-18320143D01*
X12945809Y-18329667D01*
X12955333Y-18348714D01*
X12955333Y-18367762D01*
X12860095Y-18386810D01*
X13031524Y-18443952D02*
X13050571Y-18453476D01*
X13088667Y-18453476D01*
X13107714Y-18443952D01*
X13117238Y-18424905D01*
X13117238Y-18415381D01*
X13107714Y-18396333D01*
X13088667Y-18386810D01*
X13060095Y-18386810D01*
X13041048Y-18377286D01*
X13031524Y-18358238D01*
X13031524Y-18348714D01*
X13041048Y-18329667D01*
X13060095Y-18320143D01*
X13088667Y-18320143D01*
X13107714Y-18329667D01*
X13183905Y-18529667D02*
X13193428Y-18520143D01*
X13212476Y-18491571D01*
X13222000Y-18472524D01*
X13231524Y-18443952D01*
X13241048Y-18396333D01*
X13241048Y-18358238D01*
X13231524Y-18310619D01*
X13222000Y-18282048D01*
X13212476Y-18263000D01*
X13193428Y-18234429D01*
X13183905Y-18224905D01*
X8212000Y-18583000D02*
X8412000Y-18783000D01*
X8412000Y-18583000D02*
X8212000Y-18783000D01*
X8382711Y-18753711D02*
X8382711Y-18612289D01*
X8241289Y-18612289D01*
X8241289Y-18753711D01*
X8382711Y-18753711D01*
X8755333Y-18640143D02*
X8755333Y-18773476D01*
X8707714Y-18563952D02*
X8660095Y-18706810D01*
X8783905Y-18706810D01*
X8860095Y-18754429D02*
X8869619Y-18763952D01*
X8860095Y-18773476D01*
X8850571Y-18763952D01*
X8860095Y-18754429D01*
X8860095Y-18773476D01*
X9050571Y-18573476D02*
X8955333Y-18573476D01*
X8945810Y-18668714D01*
X8955333Y-18659190D01*
X8974381Y-18649667D01*
X9022000Y-18649667D01*
X9041048Y-18659190D01*
X9050571Y-18668714D01*
X9060095Y-18687762D01*
X9060095Y-18735381D01*
X9050571Y-18754429D01*
X9041048Y-18763952D01*
X9022000Y-18773476D01*
X8974381Y-18773476D01*
X8955333Y-18763952D01*
X8945810Y-18754429D01*
X9183905Y-18573476D02*
X9202952Y-18573476D01*
X9222000Y-18583000D01*
X9231524Y-18592524D01*
X9241048Y-18611571D01*
X9250571Y-18649667D01*
X9250571Y-18697286D01*
X9241048Y-18735381D01*
X9231524Y-18754429D01*
X9222000Y-18763952D01*
X9202952Y-18773476D01*
X9183905Y-18773476D01*
X9164857Y-18763952D01*
X9155333Y-18754429D01*
X9145810Y-18735381D01*
X9136286Y-18697286D01*
X9136286Y-18649667D01*
X9145810Y-18611571D01*
X9155333Y-18592524D01*
X9164857Y-18583000D01*
X9183905Y-18573476D01*
X9374381Y-18573476D02*
X9393429Y-18573476D01*
X9412476Y-18583000D01*
X9422000Y-18592524D01*
X9431524Y-18611571D01*
X9441048Y-18649667D01*
X9441048Y-18697286D01*
X9431524Y-18735381D01*
X9422000Y-18754429D01*
X9412476Y-18763952D01*
X9393429Y-18773476D01*
X9374381Y-18773476D01*
X9355333Y-18763952D01*
X9345810Y-18754429D01*
X9336286Y-18735381D01*
X9326762Y-18697286D01*
X9326762Y-18649667D01*
X9336286Y-18611571D01*
X9345810Y-18592524D01*
X9355333Y-18583000D01*
X9374381Y-18573476D01*
X9526762Y-18773476D02*
X9526762Y-18640143D01*
X9526762Y-18659190D02*
X9536286Y-18649667D01*
X9555333Y-18640143D01*
X9583905Y-18640143D01*
X9602952Y-18649667D01*
X9612476Y-18668714D01*
X9612476Y-18773476D01*
X9612476Y-18668714D02*
X9622000Y-18649667D01*
X9641048Y-18640143D01*
X9669619Y-18640143D01*
X9688667Y-18649667D01*
X9698190Y-18668714D01*
X9698190Y-18773476D01*
X9793429Y-18773476D02*
X9793429Y-18640143D01*
X9793429Y-18659190D02*
X9802952Y-18649667D01*
X9822000Y-18640143D01*
X9850571Y-18640143D01*
X9869619Y-18649667D01*
X9879143Y-18668714D01*
X9879143Y-18773476D01*
X9879143Y-18668714D02*
X9888667Y-18649667D01*
X9907714Y-18640143D01*
X9936286Y-18640143D01*
X9955333Y-18649667D01*
X9964857Y-18668714D01*
X9964857Y-18773476D01*
X10355333Y-18563952D02*
X10183905Y-18821095D01*
X10612476Y-18573476D02*
X10631524Y-18573476D01*
X10650571Y-18583000D01*
X10660095Y-18592524D01*
X10669619Y-18611571D01*
X10679143Y-18649667D01*
X10679143Y-18697286D01*
X10669619Y-18735381D01*
X10660095Y-18754429D01*
X10650571Y-18763952D01*
X10631524Y-18773476D01*
X10612476Y-18773476D01*
X10593429Y-18763952D01*
X10583905Y-18754429D01*
X10574381Y-18735381D01*
X10564857Y-18697286D01*
X10564857Y-18649667D01*
X10574381Y-18611571D01*
X10583905Y-18592524D01*
X10593429Y-18583000D01*
X10612476Y-18573476D01*
X10764857Y-18754429D02*
X10774381Y-18763952D01*
X10764857Y-18773476D01*
X10755333Y-18763952D01*
X10764857Y-18754429D01*
X10764857Y-18773476D01*
X10964857Y-18773476D02*
X10850571Y-18773476D01*
X10907714Y-18773476D02*
X10907714Y-18573476D01*
X10888667Y-18602048D01*
X10869619Y-18621095D01*
X10850571Y-18630619D01*
X11031524Y-18573476D02*
X11164857Y-18573476D01*
X11079143Y-18773476D01*
X11222000Y-18573476D02*
X11355333Y-18573476D01*
X11269619Y-18773476D01*
X11422000Y-18592524D02*
X11431524Y-18583000D01*
X11450571Y-18573476D01*
X11498190Y-18573476D01*
X11517238Y-18583000D01*
X11526762Y-18592524D01*
X11536286Y-18611571D01*
X11536286Y-18630619D01*
X11526762Y-18659190D01*
X11412476Y-18773476D01*
X11536286Y-18773476D01*
X11612476Y-18573476D02*
X11612476Y-18611571D01*
X11688667Y-18573476D02*
X11688667Y-18611571D01*
X11983905Y-18849667D02*
X11974381Y-18840143D01*
X11955333Y-18811571D01*
X11945809Y-18792524D01*
X11936286Y-18763952D01*
X11926762Y-18716333D01*
X11926762Y-18678238D01*
X11936286Y-18630619D01*
X11945809Y-18602048D01*
X11955333Y-18583000D01*
X11974381Y-18554429D01*
X11983905Y-18544905D01*
X12050571Y-18592524D02*
X12060095Y-18583000D01*
X12079143Y-18573476D01*
X12126762Y-18573476D01*
X12145809Y-18583000D01*
X12155333Y-18592524D01*
X12164857Y-18611571D01*
X12164857Y-18630619D01*
X12155333Y-18659190D01*
X12041048Y-18773476D01*
X12164857Y-18773476D01*
X12402952Y-18773476D02*
X12402952Y-18573476D01*
X12488667Y-18773476D02*
X12488667Y-18668714D01*
X12479143Y-18649667D01*
X12460095Y-18640143D01*
X12431524Y-18640143D01*
X12412476Y-18649667D01*
X12402952Y-18659190D01*
X12612476Y-18773476D02*
X12593428Y-18763952D01*
X12583905Y-18754429D01*
X12574381Y-18735381D01*
X12574381Y-18678238D01*
X12583905Y-18659190D01*
X12593428Y-18649667D01*
X12612476Y-18640143D01*
X12641048Y-18640143D01*
X12660095Y-18649667D01*
X12669619Y-18659190D01*
X12679143Y-18678238D01*
X12679143Y-18735381D01*
X12669619Y-18754429D01*
X12660095Y-18763952D01*
X12641048Y-18773476D01*
X12612476Y-18773476D01*
X12793428Y-18773476D02*
X12774381Y-18763952D01*
X12764857Y-18744905D01*
X12764857Y-18573476D01*
X12945809Y-18763952D02*
X12926762Y-18773476D01*
X12888667Y-18773476D01*
X12869619Y-18763952D01*
X12860095Y-18744905D01*
X12860095Y-18668714D01*
X12869619Y-18649667D01*
X12888667Y-18640143D01*
X12926762Y-18640143D01*
X12945809Y-18649667D01*
X12955333Y-18668714D01*
X12955333Y-18687762D01*
X12860095Y-18706810D01*
X13031524Y-18763952D02*
X13050571Y-18773476D01*
X13088667Y-18773476D01*
X13107714Y-18763952D01*
X13117238Y-18744905D01*
X13117238Y-18735381D01*
X13107714Y-18716333D01*
X13088667Y-18706810D01*
X13060095Y-18706810D01*
X13041048Y-18697286D01*
X13031524Y-18678238D01*
X13031524Y-18668714D01*
X13041048Y-18649667D01*
X13060095Y-18640143D01*
X13088667Y-18640143D01*
X13107714Y-18649667D01*
X13183905Y-18849667D02*
X13193428Y-18840143D01*
X13212476Y-18811571D01*
X13222000Y-18792524D01*
X13231524Y-18763952D01*
X13241048Y-18716333D01*
X13241048Y-18678238D01*
X13231524Y-18630619D01*
X13222000Y-18602048D01*
X13212476Y-18583000D01*
X13193428Y-18554429D01*
X13183905Y-18544905D01*
M02*
