G04 #@! TF.GenerationSoftware,KiCad,Pcbnew,(6.0.0)*
G04 #@! TF.CreationDate,2022-05-25T15:36:50+02:00*
G04 #@! TF.ProjectId,CarteUE441_v2,43617274-6555-4453-9434-315f76322e6b,rev?*
G04 #@! TF.SameCoordinates,Original*
G04 #@! TF.FileFunction,Legend,Top*
G04 #@! TF.FilePolarity,Positive*
%FSLAX46Y46*%
G04 Gerber Fmt 4.6, Leading zero omitted, Abs format (unit mm)*
G04 Created by KiCad (PCBNEW (6.0.0)) date 2022-05-25 15:36:50*
%MOMM*%
%LPD*%
G01*
G04 APERTURE LIST*
G04 Aperture macros list*
%AMRoundRect*
0 Rectangle with rounded corners*
0 $1 Rounding radius*
0 $2 $3 $4 $5 $6 $7 $8 $9 X,Y pos of 4 corners*
0 Add a 4 corners polygon primitive as box body*
4,1,4,$2,$3,$4,$5,$6,$7,$8,$9,$2,$3,0*
0 Add four circle primitives for the rounded corners*
1,1,$1+$1,$2,$3*
1,1,$1+$1,$4,$5*
1,1,$1+$1,$6,$7*
1,1,$1+$1,$8,$9*
0 Add four rect primitives between the rounded corners*
20,1,$1+$1,$2,$3,$4,$5,0*
20,1,$1+$1,$4,$5,$6,$7,0*
20,1,$1+$1,$6,$7,$8,$9,0*
20,1,$1+$1,$8,$9,$2,$3,0*%
G04 Aperture macros list end*
%ADD10C,0.300000*%
%ADD11C,0.150000*%
%ADD12C,0.127000*%
%ADD13C,0.101600*%
%ADD14C,0.152400*%
%ADD15C,0.120000*%
%ADD16O,2.844800X1.524000*%
%ADD17R,1.905000X2.000000*%
%ADD18O,1.905000X2.000000*%
%ADD19O,2.619200X1.411200*%
%ADD20C,5.400000*%
%ADD21R,1.600000X1.600000*%
%ADD22O,1.600000X1.600000*%
%ADD23C,2.700000*%
%ADD24C,3.000000*%
%ADD25RoundRect,1.500000X-1.500000X1.500000X-1.500000X-1.500000X1.500000X-1.500000X1.500000X1.500000X0*%
%ADD26C,6.000000*%
%ADD27RoundRect,0.250000X0.675000X-0.600000X0.675000X0.600000X-0.675000X0.600000X-0.675000X-0.600000X0*%
%ADD28O,1.850000X1.700000*%
G04 APERTURE END LIST*
D10*
X192178571Y-102678571D02*
X193678571Y-101678571D01*
X192178571Y-101678571D02*
X193678571Y-102678571D01*
X192178571Y-100178571D02*
X192178571Y-99321428D01*
X193678571Y-99750000D02*
X192178571Y-99750000D01*
X192178571Y-98964285D02*
X193678571Y-97964285D01*
X192178571Y-97964285D02*
X193678571Y-98964285D01*
X193678571Y-95392857D02*
X192964285Y-95892857D01*
X193678571Y-96250000D02*
X192178571Y-96250000D01*
X192178571Y-95678571D01*
X192250000Y-95535714D01*
X192321428Y-95464285D01*
X192464285Y-95392857D01*
X192678571Y-95392857D01*
X192821428Y-95464285D01*
X192892857Y-95535714D01*
X192964285Y-95678571D01*
X192964285Y-96250000D01*
X192178571Y-94892857D02*
X193678571Y-93892857D01*
X192178571Y-93892857D02*
X193678571Y-94892857D01*
X192250000Y-91392857D02*
X192178571Y-91535714D01*
X192178571Y-91750000D01*
X192250000Y-91964285D01*
X192392857Y-92107142D01*
X192535714Y-92178571D01*
X192821428Y-92250000D01*
X193035714Y-92250000D01*
X193321428Y-92178571D01*
X193464285Y-92107142D01*
X193607142Y-91964285D01*
X193678571Y-91750000D01*
X193678571Y-91607142D01*
X193607142Y-91392857D01*
X193535714Y-91321428D01*
X193035714Y-91321428D01*
X193035714Y-91607142D01*
X193678571Y-90678571D02*
X192178571Y-90678571D01*
X193678571Y-89821428D01*
X192178571Y-89821428D01*
X193678571Y-89107142D02*
X192178571Y-89107142D01*
X192178571Y-88750000D01*
X192250000Y-88535714D01*
X192392857Y-88392857D01*
X192535714Y-88321428D01*
X192821428Y-88250000D01*
X193035714Y-88250000D01*
X193321428Y-88321428D01*
X193464285Y-88392857D01*
X193607142Y-88535714D01*
X193678571Y-88750000D01*
X193678571Y-89107142D01*
X192178571Y-86678571D02*
X193678571Y-86178571D01*
X192178571Y-85678571D01*
X193107142Y-85178571D02*
X193107142Y-84035714D01*
X193678571Y-84607142D02*
X192535714Y-84607142D01*
X192178571Y-82321428D02*
X193678571Y-81321428D01*
X192178571Y-81321428D02*
X193678571Y-82321428D01*
X135642857Y-59678571D02*
X135642857Y-58178571D01*
X136357142Y-59678571D02*
X136357142Y-58178571D01*
X137214285Y-59678571D01*
X137214285Y-58178571D01*
X139857142Y-58250000D02*
X139714285Y-58178571D01*
X139500000Y-58178571D01*
X139285714Y-58250000D01*
X139142857Y-58392857D01*
X139071428Y-58535714D01*
X139000000Y-58821428D01*
X139000000Y-59035714D01*
X139071428Y-59321428D01*
X139142857Y-59464285D01*
X139285714Y-59607142D01*
X139500000Y-59678571D01*
X139642857Y-59678571D01*
X139857142Y-59607142D01*
X139928571Y-59535714D01*
X139928571Y-59035714D01*
X139642857Y-59035714D01*
X140571428Y-59678571D02*
X140571428Y-58178571D01*
X141428571Y-59678571D01*
X141428571Y-58178571D01*
X142142857Y-59678571D02*
X142142857Y-58178571D01*
X142500000Y-58178571D01*
X142714285Y-58250000D01*
X142857142Y-58392857D01*
X142928571Y-58535714D01*
X143000000Y-58821428D01*
X143000000Y-59035714D01*
X142928571Y-59321428D01*
X142857142Y-59464285D01*
X142714285Y-59607142D01*
X142500000Y-59678571D01*
X142142857Y-59678571D01*
X145071428Y-58178571D02*
X145357142Y-58178571D01*
X145500000Y-58250000D01*
X145642857Y-58392857D01*
X145714285Y-58678571D01*
X145714285Y-59178571D01*
X145642857Y-59464285D01*
X145500000Y-59607142D01*
X145357142Y-59678571D01*
X145071428Y-59678571D01*
X144928571Y-59607142D01*
X144785714Y-59464285D01*
X144714285Y-59178571D01*
X144714285Y-58678571D01*
X144785714Y-58392857D01*
X144928571Y-58250000D01*
X145071428Y-58178571D01*
X146357142Y-58178571D02*
X146357142Y-59392857D01*
X146428571Y-59535714D01*
X146500000Y-59607142D01*
X146642857Y-59678571D01*
X146928571Y-59678571D01*
X147071428Y-59607142D01*
X147142857Y-59535714D01*
X147214285Y-59392857D01*
X147214285Y-58178571D01*
X147714285Y-58178571D02*
X148571428Y-58178571D01*
X148142857Y-59678571D02*
X148142857Y-58178571D01*
D11*
X196000000Y-112500000D02*
X196500000Y-113000000D01*
X97250000Y-113000000D02*
X97250000Y-123500000D01*
X97250000Y-116500000D02*
X95250000Y-116500000D01*
X194500000Y-112500000D02*
X196000000Y-112500000D01*
X196500000Y-119250000D02*
X196500000Y-116500000D01*
X95250000Y-123500000D02*
X95250000Y-112500000D01*
X95250000Y-112500000D02*
X96750000Y-112500000D01*
X194500000Y-119250000D02*
X196500000Y-119250000D01*
X97250000Y-123500000D02*
X95250000Y-123500000D01*
X194500000Y-123500000D02*
X194500000Y-112500000D01*
X96750000Y-112500000D02*
X97250000Y-113000000D01*
X95250000Y-119250000D02*
X97250000Y-119250000D01*
X196500000Y-116500000D02*
X194500000Y-116500000D01*
X196500000Y-123500000D02*
X194500000Y-123500000D01*
X196500000Y-113000000D02*
X196500000Y-123500000D01*
X127642857Y-146565714D02*
X127404761Y-146565714D01*
X127404761Y-145137142D01*
X127642857Y-145137142D01*
X128500000Y-146232380D02*
X128023809Y-146232380D01*
X128023809Y-145232380D01*
X128833333Y-146232380D02*
X128833333Y-145232380D01*
X129214285Y-145232380D01*
X129309523Y-145280000D01*
X129357142Y-145327619D01*
X129404761Y-145422857D01*
X129404761Y-145565714D01*
X129357142Y-145660952D01*
X129309523Y-145708571D01*
X129214285Y-145756190D01*
X128833333Y-145756190D01*
X130404761Y-146137142D02*
X130357142Y-146184761D01*
X130214285Y-146232380D01*
X130119047Y-146232380D01*
X129976190Y-146184761D01*
X129880952Y-146089523D01*
X129833333Y-145994285D01*
X129785714Y-145803809D01*
X129785714Y-145660952D01*
X129833333Y-145470476D01*
X129880952Y-145375238D01*
X129976190Y-145280000D01*
X130119047Y-145232380D01*
X130214285Y-145232380D01*
X130357142Y-145280000D01*
X130404761Y-145327619D01*
X130738095Y-145232380D02*
X131404761Y-146232380D01*
X131404761Y-145232380D02*
X130738095Y-146232380D01*
X131785714Y-145565714D02*
X131785714Y-146565714D01*
X131785714Y-145613333D02*
X131880952Y-145565714D01*
X132071428Y-145565714D01*
X132166666Y-145613333D01*
X132214285Y-145660952D01*
X132261904Y-145756190D01*
X132261904Y-146041904D01*
X132214285Y-146137142D01*
X132166666Y-146184761D01*
X132071428Y-146232380D01*
X131880952Y-146232380D01*
X131785714Y-146184761D01*
X132690476Y-146232380D02*
X132690476Y-145565714D01*
X132690476Y-145756190D02*
X132738095Y-145660952D01*
X132785714Y-145613333D01*
X132880952Y-145565714D01*
X132976190Y-145565714D01*
X133690476Y-146184761D02*
X133595238Y-146232380D01*
X133404761Y-146232380D01*
X133309523Y-146184761D01*
X133261904Y-146089523D01*
X133261904Y-145708571D01*
X133309523Y-145613333D01*
X133404761Y-145565714D01*
X133595238Y-145565714D01*
X133690476Y-145613333D01*
X133738095Y-145708571D01*
X133738095Y-145803809D01*
X133261904Y-145899047D01*
X134119047Y-146184761D02*
X134214285Y-146232380D01*
X134404761Y-146232380D01*
X134500000Y-146184761D01*
X134547619Y-146089523D01*
X134547619Y-146041904D01*
X134500000Y-145946666D01*
X134404761Y-145899047D01*
X134261904Y-145899047D01*
X134166666Y-145851428D01*
X134119047Y-145756190D01*
X134119047Y-145708571D01*
X134166666Y-145613333D01*
X134261904Y-145565714D01*
X134404761Y-145565714D01*
X134500000Y-145613333D01*
X134928571Y-146184761D02*
X135023809Y-146232380D01*
X135214285Y-146232380D01*
X135309523Y-146184761D01*
X135357142Y-146089523D01*
X135357142Y-146041904D01*
X135309523Y-145946666D01*
X135214285Y-145899047D01*
X135071428Y-145899047D01*
X134976190Y-145851428D01*
X134928571Y-145756190D01*
X134928571Y-145708571D01*
X134976190Y-145613333D01*
X135071428Y-145565714D01*
X135214285Y-145565714D01*
X135309523Y-145613333D01*
X135928571Y-146232380D02*
X135833333Y-146184761D01*
X135785714Y-146137142D01*
X135738095Y-146041904D01*
X135738095Y-145756190D01*
X135785714Y-145660952D01*
X135833333Y-145613333D01*
X135928571Y-145565714D01*
X136071428Y-145565714D01*
X136166666Y-145613333D01*
X136214285Y-145660952D01*
X136261904Y-145756190D01*
X136261904Y-146041904D01*
X136214285Y-146137142D01*
X136166666Y-146184761D01*
X136071428Y-146232380D01*
X135928571Y-146232380D01*
X136833333Y-145660952D02*
X136738095Y-145613333D01*
X136690476Y-145565714D01*
X136642857Y-145470476D01*
X136642857Y-145422857D01*
X136690476Y-145327619D01*
X136738095Y-145280000D01*
X136833333Y-145232380D01*
X137023809Y-145232380D01*
X137119047Y-145280000D01*
X137166666Y-145327619D01*
X137214285Y-145422857D01*
X137214285Y-145470476D01*
X137166666Y-145565714D01*
X137119047Y-145613333D01*
X137023809Y-145660952D01*
X136833333Y-145660952D01*
X136738095Y-145708571D01*
X136690476Y-145756190D01*
X136642857Y-145851428D01*
X136642857Y-146041904D01*
X136690476Y-146137142D01*
X136738095Y-146184761D01*
X136833333Y-146232380D01*
X137023809Y-146232380D01*
X137119047Y-146184761D01*
X137166666Y-146137142D01*
X137214285Y-146041904D01*
X137214285Y-145851428D01*
X137166666Y-145756190D01*
X137119047Y-145708571D01*
X137023809Y-145660952D01*
X137833333Y-145232380D02*
X137928571Y-145232380D01*
X138023809Y-145280000D01*
X138071428Y-145327619D01*
X138119047Y-145422857D01*
X138166666Y-145613333D01*
X138166666Y-145851428D01*
X138119047Y-146041904D01*
X138071428Y-146137142D01*
X138023809Y-146184761D01*
X137928571Y-146232380D01*
X137833333Y-146232380D01*
X137738095Y-146184761D01*
X137690476Y-146137142D01*
X137642857Y-146041904D01*
X137595238Y-145851428D01*
X137595238Y-145613333D01*
X137642857Y-145422857D01*
X137690476Y-145327619D01*
X137738095Y-145280000D01*
X137833333Y-145232380D01*
X139023809Y-145565714D02*
X139023809Y-146232380D01*
X138785714Y-145184761D02*
X138547619Y-145899047D01*
X139166666Y-145899047D01*
X141071428Y-145565714D02*
X140309523Y-145851428D01*
X141071428Y-146137142D01*
X141547619Y-145708571D02*
X142309523Y-145708571D01*
X142309523Y-145994285D02*
X141547619Y-145994285D01*
X142785714Y-145565714D02*
X143547619Y-145851428D01*
X142785714Y-146137142D01*
X144785714Y-146232380D02*
X144785714Y-145232380D01*
X144785714Y-145708571D02*
X145357142Y-145708571D01*
X145357142Y-146232380D02*
X145357142Y-145232380D01*
X146214285Y-146184761D02*
X146119047Y-146232380D01*
X145928571Y-146232380D01*
X145833333Y-146184761D01*
X145785714Y-146089523D01*
X145785714Y-145708571D01*
X145833333Y-145613333D01*
X145928571Y-145565714D01*
X146119047Y-145565714D01*
X146214285Y-145613333D01*
X146261904Y-145708571D01*
X146261904Y-145803809D01*
X145785714Y-145899047D01*
X146595238Y-146232380D02*
X147119047Y-145565714D01*
X146595238Y-145565714D02*
X147119047Y-146232380D01*
X147928571Y-146232380D02*
X147928571Y-145708571D01*
X147880952Y-145613333D01*
X147785714Y-145565714D01*
X147595238Y-145565714D01*
X147500000Y-145613333D01*
X147928571Y-146184761D02*
X147833333Y-146232380D01*
X147595238Y-146232380D01*
X147500000Y-146184761D01*
X147452380Y-146089523D01*
X147452380Y-145994285D01*
X147500000Y-145899047D01*
X147595238Y-145851428D01*
X147833333Y-145851428D01*
X147928571Y-145803809D01*
X148404761Y-145565714D02*
X148404761Y-146565714D01*
X148404761Y-145613333D02*
X148500000Y-145565714D01*
X148690476Y-145565714D01*
X148785714Y-145613333D01*
X148833333Y-145660952D01*
X148880952Y-145756190D01*
X148880952Y-146041904D01*
X148833333Y-146137142D01*
X148785714Y-146184761D01*
X148690476Y-146232380D01*
X148500000Y-146232380D01*
X148404761Y-146184761D01*
X149452380Y-146232380D02*
X149357142Y-146184761D01*
X149309523Y-146137142D01*
X149261904Y-146041904D01*
X149261904Y-145756190D01*
X149309523Y-145660952D01*
X149357142Y-145613333D01*
X149452380Y-145565714D01*
X149595238Y-145565714D01*
X149690476Y-145613333D01*
X149738095Y-145660952D01*
X149785714Y-145756190D01*
X149785714Y-146041904D01*
X149738095Y-146137142D01*
X149690476Y-146184761D01*
X149595238Y-146232380D01*
X149452380Y-146232380D01*
X150642857Y-146232380D02*
X150642857Y-145232380D01*
X150642857Y-146184761D02*
X150547619Y-146232380D01*
X150357142Y-146232380D01*
X150261904Y-146184761D01*
X150214285Y-146137142D01*
X150166666Y-146041904D01*
X150166666Y-145756190D01*
X150214285Y-145660952D01*
X150261904Y-145613333D01*
X150357142Y-145565714D01*
X150547619Y-145565714D01*
X150642857Y-145613333D01*
X151500000Y-146184761D02*
X151404761Y-146232380D01*
X151214285Y-146232380D01*
X151119047Y-146184761D01*
X151071428Y-146089523D01*
X151071428Y-145708571D01*
X151119047Y-145613333D01*
X151214285Y-145565714D01*
X151404761Y-145565714D01*
X151500000Y-145613333D01*
X151547619Y-145708571D01*
X151547619Y-145803809D01*
X151071428Y-145899047D01*
X151880952Y-146565714D02*
X152119047Y-146565714D01*
X152119047Y-145137142D01*
X151880952Y-145137142D01*
X154214285Y-145470476D02*
X154119047Y-145422857D01*
X153928571Y-145422857D01*
X153833333Y-145470476D01*
X153738095Y-145565714D01*
X153690476Y-145660952D01*
X153690476Y-145851428D01*
X153738095Y-145946666D01*
X153833333Y-146041904D01*
X153928571Y-146089523D01*
X154119047Y-146089523D01*
X154214285Y-146041904D01*
X154023809Y-145089523D02*
X153785714Y-145137142D01*
X153547619Y-145280000D01*
X153404761Y-145518095D01*
X153357142Y-145756190D01*
X153404761Y-145994285D01*
X153547619Y-146232380D01*
X153785714Y-146375238D01*
X154023809Y-146422857D01*
X154261904Y-146375238D01*
X154500000Y-146232380D01*
X154642857Y-145994285D01*
X154690476Y-145756190D01*
X154642857Y-145518095D01*
X154500000Y-145280000D01*
X154261904Y-145137142D01*
X154023809Y-145089523D01*
X130714285Y-149452380D02*
X130714285Y-148452380D01*
X131095238Y-148452380D01*
X131190476Y-148500000D01*
X131238095Y-148547619D01*
X131285714Y-148642857D01*
X131285714Y-148785714D01*
X131238095Y-148880952D01*
X131190476Y-148928571D01*
X131095238Y-148976190D01*
X130714285Y-148976190D01*
X131714285Y-149452380D02*
X131714285Y-148785714D01*
X131714285Y-148452380D02*
X131666666Y-148500000D01*
X131714285Y-148547619D01*
X131761904Y-148500000D01*
X131714285Y-148452380D01*
X131714285Y-148547619D01*
X132571428Y-149404761D02*
X132476190Y-149452380D01*
X132285714Y-149452380D01*
X132190476Y-149404761D01*
X132142857Y-149309523D01*
X132142857Y-148928571D01*
X132190476Y-148833333D01*
X132285714Y-148785714D01*
X132476190Y-148785714D01*
X132571428Y-148833333D01*
X132619047Y-148928571D01*
X132619047Y-149023809D01*
X132142857Y-149119047D01*
X133047619Y-149452380D02*
X133047619Y-148785714D01*
X133047619Y-148976190D02*
X133095238Y-148880952D01*
X133142857Y-148833333D01*
X133238095Y-148785714D01*
X133333333Y-148785714D01*
X133666666Y-149452380D02*
X133666666Y-148785714D01*
X133666666Y-148976190D02*
X133714285Y-148880952D01*
X133761904Y-148833333D01*
X133857142Y-148785714D01*
X133952380Y-148785714D01*
X134666666Y-149404761D02*
X134571428Y-149452380D01*
X134380952Y-149452380D01*
X134285714Y-149404761D01*
X134238095Y-149309523D01*
X134238095Y-148928571D01*
X134285714Y-148833333D01*
X134380952Y-148785714D01*
X134571428Y-148785714D01*
X134666666Y-148833333D01*
X134714285Y-148928571D01*
X134714285Y-149023809D01*
X134238095Y-149119047D01*
X135142857Y-149071428D02*
X135904761Y-149071428D01*
X136333333Y-149166666D02*
X136809523Y-149166666D01*
X136238095Y-149452380D02*
X136571428Y-148452380D01*
X136904761Y-149452380D01*
X137380952Y-149452380D02*
X137285714Y-149404761D01*
X137238095Y-149309523D01*
X137238095Y-148452380D01*
X138142857Y-149404761D02*
X138047619Y-149452380D01*
X137857142Y-149452380D01*
X137761904Y-149404761D01*
X137714285Y-149309523D01*
X137714285Y-148928571D01*
X137761904Y-148833333D01*
X137857142Y-148785714D01*
X138047619Y-148785714D01*
X138142857Y-148833333D01*
X138190476Y-148928571D01*
X138190476Y-149023809D01*
X137714285Y-149119047D01*
X138523809Y-149452380D02*
X139047619Y-148785714D01*
X138523809Y-148785714D02*
X139047619Y-149452380D01*
X139857142Y-149452380D02*
X139857142Y-148928571D01*
X139809523Y-148833333D01*
X139714285Y-148785714D01*
X139523809Y-148785714D01*
X139428571Y-148833333D01*
X139857142Y-149404761D02*
X139761904Y-149452380D01*
X139523809Y-149452380D01*
X139428571Y-149404761D01*
X139380952Y-149309523D01*
X139380952Y-149214285D01*
X139428571Y-149119047D01*
X139523809Y-149071428D01*
X139761904Y-149071428D01*
X139857142Y-149023809D01*
X140333333Y-148785714D02*
X140333333Y-149452380D01*
X140333333Y-148880952D02*
X140380952Y-148833333D01*
X140476190Y-148785714D01*
X140619047Y-148785714D01*
X140714285Y-148833333D01*
X140761904Y-148928571D01*
X140761904Y-149452380D01*
X141666666Y-149452380D02*
X141666666Y-148452380D01*
X141666666Y-149404761D02*
X141571428Y-149452380D01*
X141380952Y-149452380D01*
X141285714Y-149404761D01*
X141238095Y-149357142D01*
X141190476Y-149261904D01*
X141190476Y-148976190D01*
X141238095Y-148880952D01*
X141285714Y-148833333D01*
X141380952Y-148785714D01*
X141571428Y-148785714D01*
X141666666Y-148833333D01*
X142142857Y-149452380D02*
X142142857Y-148785714D01*
X142142857Y-148976190D02*
X142190476Y-148880952D01*
X142238095Y-148833333D01*
X142333333Y-148785714D01*
X142428571Y-148785714D01*
X143142857Y-149404761D02*
X143047619Y-149452380D01*
X142857142Y-149452380D01*
X142761904Y-149404761D01*
X142714285Y-149309523D01*
X142714285Y-148928571D01*
X142761904Y-148833333D01*
X142857142Y-148785714D01*
X143047619Y-148785714D01*
X143142857Y-148833333D01*
X143190476Y-148928571D01*
X143190476Y-149023809D01*
X142714285Y-149119047D01*
X144380952Y-149452380D02*
X144380952Y-148452380D01*
X144761904Y-148452380D01*
X144857142Y-148500000D01*
X144904761Y-148547619D01*
X144952380Y-148642857D01*
X144952380Y-148785714D01*
X144904761Y-148880952D01*
X144857142Y-148928571D01*
X144761904Y-148976190D01*
X144380952Y-148976190D01*
X145761904Y-149404761D02*
X145666666Y-149452380D01*
X145476190Y-149452380D01*
X145380952Y-149404761D01*
X145333333Y-149309523D01*
X145333333Y-148928571D01*
X145380952Y-148833333D01*
X145476190Y-148785714D01*
X145666666Y-148785714D01*
X145761904Y-148833333D01*
X145809523Y-148928571D01*
X145809523Y-149023809D01*
X145333333Y-149119047D01*
X146142857Y-148785714D02*
X146380952Y-149452380D01*
X146619047Y-148785714D02*
X146380952Y-149452380D01*
X146285714Y-149690476D01*
X146238095Y-149738095D01*
X146142857Y-149785714D01*
X147000000Y-149452380D02*
X147000000Y-148785714D01*
X147000000Y-148976190D02*
X147047619Y-148880952D01*
X147095238Y-148833333D01*
X147190476Y-148785714D01*
X147285714Y-148785714D01*
X147761904Y-149452380D02*
X147666666Y-149404761D01*
X147619047Y-149357142D01*
X147571428Y-149261904D01*
X147571428Y-148976190D01*
X147619047Y-148880952D01*
X147666666Y-148833333D01*
X147761904Y-148785714D01*
X147904761Y-148785714D01*
X148000000Y-148833333D01*
X148047619Y-148880952D01*
X148095238Y-148976190D01*
X148095238Y-149261904D01*
X148047619Y-149357142D01*
X148000000Y-149404761D01*
X147904761Y-149452380D01*
X147761904Y-149452380D01*
X148523809Y-148785714D02*
X148523809Y-149452380D01*
X148523809Y-148880952D02*
X148571428Y-148833333D01*
X148666666Y-148785714D01*
X148809523Y-148785714D01*
X148904761Y-148833333D01*
X148952380Y-148928571D01*
X148952380Y-149452380D01*
X149428571Y-148785714D02*
X149428571Y-149452380D01*
X149428571Y-148880952D02*
X149476190Y-148833333D01*
X149571428Y-148785714D01*
X149714285Y-148785714D01*
X149809523Y-148833333D01*
X149857142Y-148928571D01*
X149857142Y-149452380D01*
X150714285Y-149404761D02*
X150619047Y-149452380D01*
X150428571Y-149452380D01*
X150333333Y-149404761D01*
X150285714Y-149309523D01*
X150285714Y-148928571D01*
X150333333Y-148833333D01*
X150428571Y-148785714D01*
X150619047Y-148785714D01*
X150714285Y-148833333D01*
X150761904Y-148928571D01*
X150761904Y-149023809D01*
X150285714Y-149119047D01*
X151047619Y-148785714D02*
X151428571Y-148785714D01*
X151190476Y-148452380D02*
X151190476Y-149309523D01*
X151238095Y-149404761D01*
X151333333Y-149452380D01*
X151428571Y-149452380D01*
X138452380Y-151062380D02*
X138452380Y-150062380D01*
X138785714Y-150776666D01*
X139119047Y-150062380D01*
X139119047Y-151062380D01*
X140119047Y-151062380D02*
X139547619Y-151062380D01*
X139833333Y-151062380D02*
X139833333Y-150062380D01*
X139738095Y-150205238D01*
X139642857Y-150300476D01*
X139547619Y-150348095D01*
X141309523Y-150538571D02*
X141642857Y-150538571D01*
X141785714Y-151062380D02*
X141309523Y-151062380D01*
X141309523Y-150062380D01*
X141785714Y-150062380D01*
X142119047Y-150062380D02*
X142738095Y-150062380D01*
X142404761Y-150443333D01*
X142547619Y-150443333D01*
X142642857Y-150490952D01*
X142690476Y-150538571D01*
X142738095Y-150633809D01*
X142738095Y-150871904D01*
X142690476Y-150967142D01*
X142642857Y-151014761D01*
X142547619Y-151062380D01*
X142261904Y-151062380D01*
X142166666Y-151014761D01*
X142119047Y-150967142D01*
X143119047Y-150776666D02*
X143595238Y-150776666D01*
X143023809Y-151062380D02*
X143357142Y-150062380D01*
X143690476Y-151062380D01*
X126023809Y-152148571D02*
X126357142Y-152148571D01*
X126500000Y-152672380D02*
X126023809Y-152672380D01*
X126023809Y-151672380D01*
X126500000Y-151672380D01*
X126357142Y-151291428D02*
X126214285Y-151434285D01*
X127357142Y-152624761D02*
X127261904Y-152672380D01*
X127071428Y-152672380D01*
X126976190Y-152624761D01*
X126928571Y-152577142D01*
X126880952Y-152481904D01*
X126880952Y-152196190D01*
X126928571Y-152100952D01*
X126976190Y-152053333D01*
X127071428Y-152005714D01*
X127261904Y-152005714D01*
X127357142Y-152053333D01*
X127928571Y-152672380D02*
X127833333Y-152624761D01*
X127785714Y-152577142D01*
X127738095Y-152481904D01*
X127738095Y-152196190D01*
X127785714Y-152100952D01*
X127833333Y-152053333D01*
X127928571Y-152005714D01*
X128071428Y-152005714D01*
X128166666Y-152053333D01*
X128214285Y-152100952D01*
X128261904Y-152196190D01*
X128261904Y-152481904D01*
X128214285Y-152577142D01*
X128166666Y-152624761D01*
X128071428Y-152672380D01*
X127928571Y-152672380D01*
X128833333Y-152672380D02*
X128738095Y-152624761D01*
X128690476Y-152529523D01*
X128690476Y-151672380D01*
X129595238Y-152624761D02*
X129500000Y-152672380D01*
X129309523Y-152672380D01*
X129214285Y-152624761D01*
X129166666Y-152529523D01*
X129166666Y-152148571D01*
X129214285Y-152053333D01*
X129309523Y-152005714D01*
X129500000Y-152005714D01*
X129595238Y-152053333D01*
X129642857Y-152148571D01*
X129642857Y-152243809D01*
X129166666Y-152339047D01*
X130833333Y-152672380D02*
X130833333Y-151672380D01*
X131404761Y-152672380D01*
X131404761Y-151672380D01*
X132023809Y-152672380D02*
X131928571Y-152624761D01*
X131880952Y-152577142D01*
X131833333Y-152481904D01*
X131833333Y-152196190D01*
X131880952Y-152100952D01*
X131928571Y-152053333D01*
X132023809Y-152005714D01*
X132166666Y-152005714D01*
X132261904Y-152053333D01*
X132309523Y-152100952D01*
X132357142Y-152196190D01*
X132357142Y-152481904D01*
X132309523Y-152577142D01*
X132261904Y-152624761D01*
X132166666Y-152672380D01*
X132023809Y-152672380D01*
X132785714Y-152672380D02*
X132785714Y-152005714D01*
X132785714Y-152196190D02*
X132833333Y-152100952D01*
X132880952Y-152053333D01*
X132976190Y-152005714D01*
X133071428Y-152005714D01*
X133404761Y-152672380D02*
X133404761Y-152005714D01*
X133404761Y-152100952D02*
X133452380Y-152053333D01*
X133547619Y-152005714D01*
X133690476Y-152005714D01*
X133785714Y-152053333D01*
X133833333Y-152148571D01*
X133833333Y-152672380D01*
X133833333Y-152148571D02*
X133880952Y-152053333D01*
X133976190Y-152005714D01*
X134119047Y-152005714D01*
X134214285Y-152053333D01*
X134261904Y-152148571D01*
X134261904Y-152672380D01*
X135166666Y-152672380D02*
X135166666Y-152148571D01*
X135119047Y-152053333D01*
X135023809Y-152005714D01*
X134833333Y-152005714D01*
X134738095Y-152053333D01*
X135166666Y-152624761D02*
X135071428Y-152672380D01*
X134833333Y-152672380D01*
X134738095Y-152624761D01*
X134690476Y-152529523D01*
X134690476Y-152434285D01*
X134738095Y-152339047D01*
X134833333Y-152291428D01*
X135071428Y-152291428D01*
X135166666Y-152243809D01*
X135785714Y-152672380D02*
X135690476Y-152624761D01*
X135642857Y-152529523D01*
X135642857Y-151672380D01*
X136547619Y-152624761D02*
X136452380Y-152672380D01*
X136261904Y-152672380D01*
X136166666Y-152624761D01*
X136119047Y-152529523D01*
X136119047Y-152148571D01*
X136166666Y-152053333D01*
X136261904Y-152005714D01*
X136452380Y-152005714D01*
X136547619Y-152053333D01*
X136595238Y-152148571D01*
X136595238Y-152243809D01*
X136119047Y-152339047D01*
X137738095Y-152624761D02*
X137880952Y-152672380D01*
X138119047Y-152672380D01*
X138214285Y-152624761D01*
X138261904Y-152577142D01*
X138309523Y-152481904D01*
X138309523Y-152386666D01*
X138261904Y-152291428D01*
X138214285Y-152243809D01*
X138119047Y-152196190D01*
X137928571Y-152148571D01*
X137833333Y-152100952D01*
X137785714Y-152053333D01*
X137738095Y-151958095D01*
X137738095Y-151862857D01*
X137785714Y-151767619D01*
X137833333Y-151720000D01*
X137928571Y-151672380D01*
X138166666Y-151672380D01*
X138309523Y-151720000D01*
X139166666Y-152005714D02*
X139166666Y-152672380D01*
X138738095Y-152005714D02*
X138738095Y-152529523D01*
X138785714Y-152624761D01*
X138880952Y-152672380D01*
X139023809Y-152672380D01*
X139119047Y-152624761D01*
X139166666Y-152577142D01*
X139642857Y-152005714D02*
X139642857Y-153005714D01*
X139642857Y-152053333D02*
X139738095Y-152005714D01*
X139928571Y-152005714D01*
X140023809Y-152053333D01*
X140071428Y-152100952D01*
X140119047Y-152196190D01*
X140119047Y-152481904D01*
X140071428Y-152577142D01*
X140023809Y-152624761D01*
X139928571Y-152672380D01*
X139738095Y-152672380D01*
X139642857Y-152624761D01*
X140928571Y-152624761D02*
X140833333Y-152672380D01*
X140642857Y-152672380D01*
X140547619Y-152624761D01*
X140500000Y-152529523D01*
X140500000Y-152148571D01*
X140547619Y-152053333D01*
X140642857Y-152005714D01*
X140833333Y-152005714D01*
X140928571Y-152053333D01*
X140976190Y-152148571D01*
X140976190Y-152243809D01*
X140500000Y-152339047D01*
X140833333Y-151624761D02*
X140690476Y-151767619D01*
X141404761Y-152672380D02*
X141404761Y-152005714D01*
X141404761Y-152196190D02*
X141452380Y-152100952D01*
X141500000Y-152053333D01*
X141595238Y-152005714D01*
X141690476Y-152005714D01*
X142023809Y-152672380D02*
X142023809Y-152005714D01*
X142023809Y-151672380D02*
X141976190Y-151720000D01*
X142023809Y-151767619D01*
X142071428Y-151720000D01*
X142023809Y-151672380D01*
X142023809Y-151767619D01*
X142880952Y-152624761D02*
X142785714Y-152672380D01*
X142595238Y-152672380D01*
X142500000Y-152624761D01*
X142452380Y-152529523D01*
X142452380Y-152148571D01*
X142500000Y-152053333D01*
X142595238Y-152005714D01*
X142785714Y-152005714D01*
X142880952Y-152053333D01*
X142928571Y-152148571D01*
X142928571Y-152243809D01*
X142452380Y-152339047D01*
X143785714Y-152005714D02*
X143785714Y-152672380D01*
X143357142Y-152005714D02*
X143357142Y-152529523D01*
X143404761Y-152624761D01*
X143500000Y-152672380D01*
X143642857Y-152672380D01*
X143738095Y-152624761D01*
X143785714Y-152577142D01*
X144261904Y-152672380D02*
X144261904Y-152005714D01*
X144261904Y-152196190D02*
X144309523Y-152100952D01*
X144357142Y-152053333D01*
X144452380Y-152005714D01*
X144547619Y-152005714D01*
X145261904Y-152624761D02*
X145166666Y-152672380D01*
X144976190Y-152672380D01*
X144880952Y-152624761D01*
X144833333Y-152529523D01*
X144833333Y-152148571D01*
X144880952Y-152053333D01*
X144976190Y-152005714D01*
X145166666Y-152005714D01*
X145261904Y-152053333D01*
X145309523Y-152148571D01*
X145309523Y-152243809D01*
X144833333Y-152339047D01*
X146500000Y-152672380D02*
X146500000Y-151672380D01*
X146880952Y-151672380D01*
X146976190Y-151720000D01*
X147023809Y-151767619D01*
X147071428Y-151862857D01*
X147071428Y-152005714D01*
X147023809Y-152100952D01*
X146976190Y-152148571D01*
X146880952Y-152196190D01*
X146500000Y-152196190D01*
X147928571Y-152672380D02*
X147928571Y-152148571D01*
X147880952Y-152053333D01*
X147785714Y-152005714D01*
X147595238Y-152005714D01*
X147500000Y-152053333D01*
X147928571Y-152624761D02*
X147833333Y-152672380D01*
X147595238Y-152672380D01*
X147500000Y-152624761D01*
X147452380Y-152529523D01*
X147452380Y-152434285D01*
X147500000Y-152339047D01*
X147595238Y-152291428D01*
X147833333Y-152291428D01*
X147928571Y-152243809D01*
X148404761Y-152672380D02*
X148404761Y-152005714D01*
X148404761Y-152196190D02*
X148452380Y-152100952D01*
X148500000Y-152053333D01*
X148595238Y-152005714D01*
X148690476Y-152005714D01*
X149023809Y-152672380D02*
X149023809Y-152005714D01*
X149023809Y-151672380D02*
X148976190Y-151720000D01*
X149023809Y-151767619D01*
X149071428Y-151720000D01*
X149023809Y-151672380D01*
X149023809Y-151767619D01*
X149452380Y-152624761D02*
X149547619Y-152672380D01*
X149738095Y-152672380D01*
X149833333Y-152624761D01*
X149880952Y-152529523D01*
X149880952Y-152481904D01*
X149833333Y-152386666D01*
X149738095Y-152339047D01*
X149595238Y-152339047D01*
X149500000Y-152291428D01*
X149452380Y-152196190D01*
X149452380Y-152148571D01*
X149500000Y-152053333D01*
X149595238Y-152005714D01*
X149738095Y-152005714D01*
X149833333Y-152053333D01*
X150309523Y-152291428D02*
X151071428Y-152291428D01*
X151500000Y-152624761D02*
X151642857Y-152672380D01*
X151880952Y-152672380D01*
X151976190Y-152624761D01*
X152023809Y-152577142D01*
X152071428Y-152481904D01*
X152071428Y-152386666D01*
X152023809Y-152291428D01*
X151976190Y-152243809D01*
X151880952Y-152196190D01*
X151690476Y-152148571D01*
X151595238Y-152100952D01*
X151547619Y-152053333D01*
X151500000Y-151958095D01*
X151500000Y-151862857D01*
X151547619Y-151767619D01*
X151595238Y-151720000D01*
X151690476Y-151672380D01*
X151928571Y-151672380D01*
X152071428Y-151720000D01*
X152928571Y-152672380D02*
X152928571Y-152148571D01*
X152880952Y-152053333D01*
X152785714Y-152005714D01*
X152595238Y-152005714D01*
X152500000Y-152053333D01*
X152928571Y-152624761D02*
X152833333Y-152672380D01*
X152595238Y-152672380D01*
X152500000Y-152624761D01*
X152452380Y-152529523D01*
X152452380Y-152434285D01*
X152500000Y-152339047D01*
X152595238Y-152291428D01*
X152833333Y-152291428D01*
X152928571Y-152243809D01*
X153833333Y-152624761D02*
X153738095Y-152672380D01*
X153547619Y-152672380D01*
X153452380Y-152624761D01*
X153404761Y-152577142D01*
X153357142Y-152481904D01*
X153357142Y-152196190D01*
X153404761Y-152100952D01*
X153452380Y-152053333D01*
X153547619Y-152005714D01*
X153738095Y-152005714D01*
X153833333Y-152053333D01*
X154404761Y-152672380D02*
X154309523Y-152624761D01*
X154261904Y-152529523D01*
X154261904Y-151672380D01*
X155214285Y-152672380D02*
X155214285Y-152148571D01*
X155166666Y-152053333D01*
X155071428Y-152005714D01*
X154880952Y-152005714D01*
X154785714Y-152053333D01*
X155214285Y-152624761D02*
X155119047Y-152672380D01*
X154880952Y-152672380D01*
X154785714Y-152624761D01*
X154738095Y-152529523D01*
X154738095Y-152434285D01*
X154785714Y-152339047D01*
X154880952Y-152291428D01*
X155119047Y-152291428D01*
X155214285Y-152243809D01*
X155595238Y-152005714D02*
X155833333Y-152672380D01*
X156071428Y-152005714D02*
X155833333Y-152672380D01*
X155738095Y-152910476D01*
X155690476Y-152958095D01*
X155595238Y-153005714D01*
X96702380Y-122833333D02*
X95702380Y-122833333D01*
X95702380Y-122595238D01*
X95750000Y-122452380D01*
X95845238Y-122357142D01*
X95940476Y-122309523D01*
X96130952Y-122261904D01*
X96273809Y-122261904D01*
X96464285Y-122309523D01*
X96559523Y-122357142D01*
X96654761Y-122452380D01*
X96702380Y-122595238D01*
X96702380Y-122833333D01*
X96416666Y-121880952D02*
X96416666Y-121404761D01*
X96702380Y-121976190D02*
X95702380Y-121642857D01*
X96702380Y-121309523D01*
X95702380Y-121119047D02*
X95702380Y-120547619D01*
X96702380Y-120833333D02*
X95702380Y-120833333D01*
X96416666Y-120261904D02*
X96416666Y-119785714D01*
X96702380Y-120357142D02*
X95702380Y-120023809D01*
X96702380Y-119690476D01*
X95702380Y-118738095D02*
X96702380Y-118404761D01*
X95702380Y-118071428D01*
X96321428Y-117738095D02*
X96321428Y-116976190D01*
X96702380Y-117357142D02*
X95940476Y-117357142D01*
X95750000Y-115214285D02*
X95702380Y-115309523D01*
X95702380Y-115452380D01*
X95750000Y-115595238D01*
X95845238Y-115690476D01*
X95940476Y-115738095D01*
X96130952Y-115785714D01*
X96273809Y-115785714D01*
X96464285Y-115738095D01*
X96559523Y-115690476D01*
X96654761Y-115595238D01*
X96702380Y-115452380D01*
X96702380Y-115357142D01*
X96654761Y-115214285D01*
X96607142Y-115166666D01*
X96273809Y-115166666D01*
X96273809Y-115357142D01*
X96702380Y-114738095D02*
X95702380Y-114738095D01*
X96702380Y-114166666D01*
X95702380Y-114166666D01*
X96702380Y-113690476D02*
X95702380Y-113690476D01*
X95702380Y-113452380D01*
X95750000Y-113309523D01*
X95845238Y-113214285D01*
X95940476Y-113166666D01*
X96130952Y-113119047D01*
X96273809Y-113119047D01*
X96464285Y-113166666D01*
X96559523Y-113214285D01*
X96654761Y-113309523D01*
X96702380Y-113452380D01*
X96702380Y-113690476D01*
X195952380Y-122833333D02*
X194952380Y-122833333D01*
X194952380Y-122595238D01*
X195000000Y-122452380D01*
X195095238Y-122357142D01*
X195190476Y-122309523D01*
X195380952Y-122261904D01*
X195523809Y-122261904D01*
X195714285Y-122309523D01*
X195809523Y-122357142D01*
X195904761Y-122452380D01*
X195952380Y-122595238D01*
X195952380Y-122833333D01*
X195666666Y-121880952D02*
X195666666Y-121404761D01*
X195952380Y-121976190D02*
X194952380Y-121642857D01*
X195952380Y-121309523D01*
X194952380Y-121119047D02*
X194952380Y-120547619D01*
X195952380Y-120833333D02*
X194952380Y-120833333D01*
X195666666Y-120261904D02*
X195666666Y-119785714D01*
X195952380Y-120357142D02*
X194952380Y-120023809D01*
X195952380Y-119690476D01*
X194952380Y-118738095D02*
X195952380Y-118404761D01*
X194952380Y-118071428D01*
X195571428Y-117738095D02*
X195571428Y-116976190D01*
X195952380Y-117357142D02*
X195190476Y-117357142D01*
X195000000Y-115214285D02*
X194952380Y-115309523D01*
X194952380Y-115452380D01*
X195000000Y-115595238D01*
X195095238Y-115690476D01*
X195190476Y-115738095D01*
X195380952Y-115785714D01*
X195523809Y-115785714D01*
X195714285Y-115738095D01*
X195809523Y-115690476D01*
X195904761Y-115595238D01*
X195952380Y-115452380D01*
X195952380Y-115357142D01*
X195904761Y-115214285D01*
X195857142Y-115166666D01*
X195523809Y-115166666D01*
X195523809Y-115357142D01*
X195952380Y-114738095D02*
X194952380Y-114738095D01*
X195952380Y-114166666D01*
X194952380Y-114166666D01*
X195952380Y-113690476D02*
X194952380Y-113690476D01*
X194952380Y-113452380D01*
X195000000Y-113309523D01*
X195095238Y-113214285D01*
X195190476Y-113166666D01*
X195380952Y-113119047D01*
X195523809Y-113119047D01*
X195714285Y-113166666D01*
X195809523Y-113214285D01*
X195904761Y-113309523D01*
X195952380Y-113452380D01*
X195952380Y-113690476D01*
D12*
X188302571Y-84443264D02*
X189119000Y-84443264D01*
X189282285Y-84497692D01*
X189391142Y-84606550D01*
X189445571Y-84769835D01*
X189445571Y-84878692D01*
X188411428Y-83953407D02*
X188357000Y-83898978D01*
X188302571Y-83790121D01*
X188302571Y-83517978D01*
X188357000Y-83409121D01*
X188411428Y-83354692D01*
X188520285Y-83300264D01*
X188629142Y-83300264D01*
X188792428Y-83354692D01*
X189445571Y-84007835D01*
X189445571Y-83300264D01*
X192195571Y-86300264D02*
X192195571Y-86953407D01*
X192195571Y-86626835D02*
X191052571Y-86626835D01*
X191215857Y-86735692D01*
X191324714Y-86844550D01*
X191379142Y-86953407D01*
X191302571Y-99159121D02*
X191302571Y-99376835D01*
X191357000Y-99485692D01*
X191411428Y-99540121D01*
X191574714Y-99648978D01*
X191792428Y-99703407D01*
X192227857Y-99703407D01*
X192336714Y-99648978D01*
X192391142Y-99594550D01*
X192445571Y-99485692D01*
X192445571Y-99267978D01*
X192391142Y-99159121D01*
X192336714Y-99104692D01*
X192227857Y-99050264D01*
X191955714Y-99050264D01*
X191846857Y-99104692D01*
X191792428Y-99159121D01*
X191738000Y-99267978D01*
X191738000Y-99485692D01*
X191792428Y-99594550D01*
X191846857Y-99648978D01*
X191955714Y-99703407D01*
D11*
X139500000Y-51182380D02*
X139166666Y-50706190D01*
X138928571Y-51182380D02*
X138928571Y-50182380D01*
X139309523Y-50182380D01*
X139404761Y-50230000D01*
X139452380Y-50277619D01*
X139500000Y-50372857D01*
X139500000Y-50515714D01*
X139452380Y-50610952D01*
X139404761Y-50658571D01*
X139309523Y-50706190D01*
X138928571Y-50706190D01*
X140309523Y-51134761D02*
X140214285Y-51182380D01*
X140023809Y-51182380D01*
X139928571Y-51134761D01*
X139880952Y-51039523D01*
X139880952Y-50658571D01*
X139928571Y-50563333D01*
X140023809Y-50515714D01*
X140214285Y-50515714D01*
X140309523Y-50563333D01*
X140357142Y-50658571D01*
X140357142Y-50753809D01*
X139880952Y-50849047D01*
X141214285Y-50515714D02*
X141214285Y-51325238D01*
X141166666Y-51420476D01*
X141119047Y-51468095D01*
X141023809Y-51515714D01*
X140880952Y-51515714D01*
X140785714Y-51468095D01*
X141214285Y-51134761D02*
X141119047Y-51182380D01*
X140928571Y-51182380D01*
X140833333Y-51134761D01*
X140785714Y-51087142D01*
X140738095Y-50991904D01*
X140738095Y-50706190D01*
X140785714Y-50610952D01*
X140833333Y-50563333D01*
X140928571Y-50515714D01*
X141119047Y-50515714D01*
X141214285Y-50563333D01*
X142119047Y-50515714D02*
X142119047Y-51182380D01*
X141690476Y-50515714D02*
X141690476Y-51039523D01*
X141738095Y-51134761D01*
X141833333Y-51182380D01*
X141976190Y-51182380D01*
X142071428Y-51134761D01*
X142119047Y-51087142D01*
X143119047Y-51182380D02*
X142547619Y-51182380D01*
X142833333Y-51182380D02*
X142833333Y-50182380D01*
X142738095Y-50325238D01*
X142642857Y-50420476D01*
X142547619Y-50468095D01*
D13*
X131344230Y-98275961D02*
X131344230Y-99221809D01*
X131399868Y-99333085D01*
X131455506Y-99388723D01*
X131566782Y-99444361D01*
X131789335Y-99444361D01*
X131900611Y-99388723D01*
X131956249Y-99333085D01*
X132011887Y-99221809D01*
X132011887Y-98275961D01*
X132790820Y-98275961D02*
X132902097Y-98275961D01*
X133013373Y-98331600D01*
X133069011Y-98387238D01*
X133124649Y-98498514D01*
X133180287Y-98721066D01*
X133180287Y-98999257D01*
X133124649Y-99221809D01*
X133069011Y-99333085D01*
X133013373Y-99388723D01*
X132902097Y-99444361D01*
X132790820Y-99444361D01*
X132679544Y-99388723D01*
X132623906Y-99333085D01*
X132568268Y-99221809D01*
X132512630Y-98999257D01*
X132512630Y-98721066D01*
X132568268Y-98498514D01*
X132623906Y-98387238D01*
X132679544Y-98331600D01*
X132790820Y-98275961D01*
D11*
X140238095Y-71752380D02*
X140238095Y-70752380D01*
X140238095Y-71228571D02*
X140809523Y-71228571D01*
X140809523Y-71752380D02*
X140809523Y-70752380D01*
X141190476Y-70752380D02*
X141809523Y-70752380D01*
X141476190Y-71133333D01*
X141619047Y-71133333D01*
X141714285Y-71180952D01*
X141761904Y-71228571D01*
X141809523Y-71323809D01*
X141809523Y-71561904D01*
X141761904Y-71657142D01*
X141714285Y-71704761D01*
X141619047Y-71752380D01*
X141333333Y-71752380D01*
X141238095Y-71704761D01*
X141190476Y-71657142D01*
X94624166Y-81824761D02*
X94767023Y-81872380D01*
X95005119Y-81872380D01*
X95100357Y-81824761D01*
X95147976Y-81777142D01*
X95195595Y-81681904D01*
X95195595Y-81586666D01*
X95147976Y-81491428D01*
X95100357Y-81443809D01*
X95005119Y-81396190D01*
X94814642Y-81348571D01*
X94719404Y-81300952D01*
X94671785Y-81253333D01*
X94624166Y-81158095D01*
X94624166Y-81062857D01*
X94671785Y-80967619D01*
X94719404Y-80920000D01*
X94814642Y-80872380D01*
X95052738Y-80872380D01*
X95195595Y-80920000D01*
X95528928Y-80872380D02*
X95767023Y-81872380D01*
X95957500Y-81158095D01*
X96147976Y-81872380D01*
X96386071Y-80872380D01*
X97290833Y-81872380D02*
X96719404Y-81872380D01*
X97005119Y-81872380D02*
X97005119Y-80872380D01*
X96909880Y-81015238D01*
X96814642Y-81110476D01*
X96719404Y-81158095D01*
X175168095Y-111652380D02*
X175168095Y-110652380D01*
X175168095Y-111128571D02*
X175739523Y-111128571D01*
X175739523Y-111652380D02*
X175739523Y-110652380D01*
X176168095Y-110747619D02*
X176215714Y-110700000D01*
X176310952Y-110652380D01*
X176549047Y-110652380D01*
X176644285Y-110700000D01*
X176691904Y-110747619D01*
X176739523Y-110842857D01*
X176739523Y-110938095D01*
X176691904Y-111080952D01*
X176120476Y-111652380D01*
X176739523Y-111652380D01*
X105238095Y-112452380D02*
X105238095Y-111452380D01*
X105238095Y-111928571D02*
X105809523Y-111928571D01*
X105809523Y-112452380D02*
X105809523Y-111452380D01*
X106809523Y-112452380D02*
X106238095Y-112452380D01*
X106523809Y-112452380D02*
X106523809Y-111452380D01*
X106428571Y-111595238D01*
X106333333Y-111690476D01*
X106238095Y-111738095D01*
X99928571Y-97333333D02*
X99928571Y-97666666D01*
X100452380Y-97666666D02*
X99452380Y-97666666D01*
X99452380Y-97190476D01*
X100452380Y-96285714D02*
X100452380Y-96857142D01*
X100452380Y-96571428D02*
X99452380Y-96571428D01*
X99595238Y-96666666D01*
X99690476Y-96761904D01*
X99738095Y-96857142D01*
X97228571Y-91785714D02*
X97276190Y-91642857D01*
X97323809Y-91595238D01*
X97419047Y-91547619D01*
X97561904Y-91547619D01*
X97657142Y-91595238D01*
X97704761Y-91642857D01*
X97752380Y-91738095D01*
X97752380Y-92119047D01*
X96752380Y-92119047D01*
X96752380Y-91785714D01*
X96800000Y-91690476D01*
X96847619Y-91642857D01*
X96942857Y-91595238D01*
X97038095Y-91595238D01*
X97133333Y-91642857D01*
X97180952Y-91690476D01*
X97228571Y-91785714D01*
X97228571Y-92119047D01*
X96752380Y-91261904D02*
X96752380Y-90690476D01*
X97752380Y-90976190D02*
X96752380Y-90976190D01*
X97752380Y-89833333D02*
X97752380Y-90404761D01*
X97752380Y-90119047D02*
X96752380Y-90119047D01*
X96895238Y-90214285D01*
X96990476Y-90309523D01*
X97038095Y-90404761D01*
X87152380Y-120071428D02*
X87866666Y-120071428D01*
X88009523Y-120119047D01*
X88104761Y-120214285D01*
X88152380Y-120357142D01*
X88152380Y-120452380D01*
X88104761Y-119642857D02*
X88152380Y-119500000D01*
X88152380Y-119261904D01*
X88104761Y-119166666D01*
X88057142Y-119119047D01*
X87961904Y-119071428D01*
X87866666Y-119071428D01*
X87771428Y-119119047D01*
X87723809Y-119166666D01*
X87676190Y-119261904D01*
X87628571Y-119452380D01*
X87580952Y-119547619D01*
X87533333Y-119595238D01*
X87438095Y-119642857D01*
X87342857Y-119642857D01*
X87247619Y-119595238D01*
X87200000Y-119547619D01*
X87152380Y-119452380D01*
X87152380Y-119214285D01*
X87200000Y-119071428D01*
X87152380Y-118785714D02*
X87152380Y-118214285D01*
X88152380Y-118500000D02*
X87152380Y-118500000D01*
X88247619Y-118119047D02*
X88247619Y-117357142D01*
X88152380Y-116547619D02*
X87676190Y-116880952D01*
X88152380Y-117119047D02*
X87152380Y-117119047D01*
X87152380Y-116738095D01*
X87200000Y-116642857D01*
X87247619Y-116595238D01*
X87342857Y-116547619D01*
X87485714Y-116547619D01*
X87580952Y-116595238D01*
X87628571Y-116642857D01*
X87676190Y-116738095D01*
X87676190Y-117119047D01*
X88152380Y-115595238D02*
X88152380Y-116166666D01*
X88152380Y-115880952D02*
X87152380Y-115880952D01*
X87295238Y-115976190D01*
X87390476Y-116071428D01*
X87438095Y-116166666D01*
X186502380Y-119976190D02*
X187216666Y-119976190D01*
X187359523Y-120023809D01*
X187454761Y-120119047D01*
X187502380Y-120261904D01*
X187502380Y-120357142D01*
X187454761Y-119547619D02*
X187502380Y-119404761D01*
X187502380Y-119166666D01*
X187454761Y-119071428D01*
X187407142Y-119023809D01*
X187311904Y-118976190D01*
X187216666Y-118976190D01*
X187121428Y-119023809D01*
X187073809Y-119071428D01*
X187026190Y-119166666D01*
X186978571Y-119357142D01*
X186930952Y-119452380D01*
X186883333Y-119500000D01*
X186788095Y-119547619D01*
X186692857Y-119547619D01*
X186597619Y-119500000D01*
X186550000Y-119452380D01*
X186502380Y-119357142D01*
X186502380Y-119119047D01*
X186550000Y-118976190D01*
X186502380Y-118690476D02*
X186502380Y-118119047D01*
X187502380Y-118404761D02*
X186502380Y-118404761D01*
X187597619Y-118023809D02*
X187597619Y-117261904D01*
X187502380Y-116547619D02*
X187502380Y-117023809D01*
X186502380Y-117023809D01*
X187502380Y-115690476D02*
X187502380Y-116261904D01*
X187502380Y-115976190D02*
X186502380Y-115976190D01*
X186645238Y-116071428D01*
X186740476Y-116166666D01*
X186788095Y-116261904D01*
D14*
X190270000Y-90206000D02*
X190270000Y-88174000D01*
X187730000Y-100620000D02*
X190270000Y-100620000D01*
X190270000Y-95794000D02*
X190016000Y-95540000D01*
X190016000Y-87920000D02*
X190270000Y-87666000D01*
X187730000Y-93254000D02*
X187730000Y-95286000D01*
X190270000Y-90714000D02*
X190016000Y-90460000D01*
X190270000Y-93254000D02*
X190016000Y-93000000D01*
X190270000Y-88174000D02*
X190016000Y-87920000D01*
X190270000Y-85380000D02*
X187730000Y-85380000D01*
X187984000Y-95540000D02*
X187730000Y-95794000D01*
X187730000Y-85380000D02*
X187730000Y-87666000D01*
X187730000Y-87666000D02*
X187984000Y-87920000D01*
X187984000Y-90460000D02*
X187730000Y-90714000D01*
X187730000Y-95794000D02*
X187730000Y-97826000D01*
X187730000Y-97826000D02*
X187984000Y-98080000D01*
X187730000Y-95286000D02*
X187984000Y-95540000D01*
X190016000Y-95540000D02*
X190270000Y-95286000D01*
X187730000Y-88174000D02*
X187730000Y-90206000D01*
X190016000Y-90460000D02*
X190270000Y-90206000D01*
X190270000Y-92746000D02*
X190270000Y-90714000D01*
X187730000Y-90206000D02*
X187984000Y-90460000D01*
X190016000Y-93000000D02*
X190270000Y-92746000D01*
X190270000Y-97826000D02*
X190270000Y-95794000D01*
X190016000Y-98080000D02*
X190270000Y-97826000D01*
X187984000Y-98080000D02*
X187730000Y-98334000D01*
X190270000Y-100620000D02*
X190270000Y-98334000D01*
X190270000Y-95286000D02*
X190270000Y-93254000D01*
X187984000Y-93000000D02*
X187730000Y-93254000D01*
X190270000Y-87666000D02*
X190270000Y-85380000D01*
X187730000Y-90714000D02*
X187730000Y-92746000D01*
X187730000Y-98334000D02*
X187730000Y-100620000D01*
X187984000Y-87920000D02*
X187730000Y-88174000D01*
X190270000Y-98334000D02*
X190016000Y-98080000D01*
X187730000Y-92746000D02*
X187984000Y-93000000D01*
D15*
X142851000Y-51730000D02*
X142851000Y-53240000D01*
X139150000Y-51730000D02*
X139150000Y-53240000D01*
X146120000Y-51730000D02*
X146120000Y-56371000D01*
X135880000Y-51730000D02*
X146120000Y-51730000D01*
X135880000Y-56371000D02*
X146120000Y-56371000D01*
X135880000Y-51730000D02*
X135880000Y-56371000D01*
X135880000Y-53240000D02*
X146120000Y-53240000D01*
X112000000Y-63000000D02*
X170000000Y-63000000D01*
X112000000Y-143000000D02*
X112000000Y-63000000D01*
X170000000Y-143000000D02*
X112000000Y-143000000D01*
X170000000Y-63000000D02*
X170000000Y-143000000D01*
X97987500Y-78155000D02*
X96634167Y-78155000D01*
X97987500Y-78635000D02*
X97987500Y-77365000D01*
X96634167Y-78635000D02*
X96634167Y-77365000D01*
X101147500Y-80660000D02*
X99763500Y-80660000D01*
X100907500Y-80420000D02*
X91007500Y-80420000D01*
X97987500Y-77795000D02*
X96634167Y-77795000D01*
X97987500Y-77365000D02*
X93927500Y-77365000D01*
X91007500Y-80420000D02*
X91007500Y-75580000D01*
X97987500Y-77915000D02*
X96634167Y-77915000D01*
X97987500Y-78275000D02*
X96634167Y-78275000D01*
X97987500Y-78035000D02*
X96634167Y-78035000D01*
X97987500Y-78515000D02*
X96634167Y-78515000D01*
X97987500Y-77675000D02*
X96634167Y-77675000D01*
X97987500Y-77555000D02*
X96634167Y-77555000D01*
X93927500Y-78635000D02*
X97987500Y-78635000D01*
X100907500Y-80420000D02*
X100907500Y-75580000D01*
X97987500Y-78395000D02*
X96634167Y-78395000D01*
X97987500Y-77435000D02*
X96634167Y-77435000D01*
X101147500Y-80660000D02*
X101147500Y-79277000D01*
X93927500Y-77365000D02*
X93927500Y-78635000D01*
X100907500Y-75580000D02*
X91007500Y-75580000D01*
X101090000Y-108360000D02*
X101090000Y-85640000D01*
X110910000Y-85640000D02*
X107750000Y-85640000D01*
X110910000Y-108360000D02*
X110910000Y-85640000D01*
X110910000Y-108360000D02*
X107750000Y-108360000D01*
X104250000Y-108360000D02*
X101090000Y-108360000D01*
X104250000Y-85640000D02*
X101090000Y-85640000D01*
X96150000Y-86000000D02*
X93600000Y-83150000D01*
X90450000Y-83150000D02*
X87850000Y-86000000D01*
X87850000Y-86000000D02*
X87850000Y-98850000D01*
X96150000Y-98850000D02*
X96150000Y-86000000D01*
X87850000Y-98850000D02*
X96150000Y-98850000D01*
X93600000Y-83150000D02*
X90450000Y-83150000D01*
X88790000Y-123060000D02*
X93910000Y-123060000D01*
X93910000Y-113940000D02*
X92910000Y-112940000D01*
X94210000Y-123360000D02*
X94210000Y-120950000D01*
X91800000Y-123360000D02*
X94210000Y-123360000D01*
X92910000Y-112940000D02*
X88790000Y-112940000D01*
X88790000Y-112940000D02*
X88790000Y-123060000D01*
X93910000Y-123060000D02*
X93910000Y-113940000D01*
X191150000Y-123360000D02*
X193560000Y-123360000D01*
X193260000Y-123060000D02*
X193260000Y-113940000D01*
X192260000Y-112940000D02*
X188140000Y-112940000D01*
X193260000Y-113940000D02*
X192260000Y-112940000D01*
X188140000Y-112940000D02*
X188140000Y-123060000D01*
X188140000Y-123060000D02*
X193260000Y-123060000D01*
X193560000Y-123360000D02*
X193560000Y-120950000D01*
%LPC*%
D16*
X189000000Y-86650000D03*
X189000000Y-89190000D03*
X189000000Y-91730000D03*
X189000000Y-94270000D03*
X189000000Y-96810000D03*
X189000000Y-99350000D03*
D17*
X138460000Y-55000000D03*
D18*
X141000000Y-55000000D03*
X143540000Y-55000000D03*
D19*
X124380000Y-104870000D03*
X132000000Y-101060000D03*
X132000000Y-103600000D03*
X132000000Y-106140000D03*
X132000000Y-108680000D03*
X132000000Y-111220000D03*
X132000000Y-113760000D03*
X132000000Y-116300000D03*
X132000000Y-118840000D03*
X132000000Y-121380000D03*
X132000000Y-123920000D03*
X132000000Y-126460000D03*
X132000000Y-129000000D03*
X149780000Y-129000000D03*
X149780000Y-126460000D03*
X149780000Y-123920000D03*
X149780000Y-121380000D03*
X149780000Y-118840000D03*
X149780000Y-116300000D03*
X149780000Y-113760000D03*
X149780000Y-111220000D03*
X149780000Y-108680000D03*
X149780000Y-106140000D03*
X149780000Y-103600000D03*
X149780000Y-101060000D03*
D20*
X141000000Y-75000000D03*
D21*
X99767500Y-78000000D03*
D22*
X92147500Y-78000000D03*
D20*
X176000000Y-115000000D03*
X106000000Y-115700000D03*
D23*
X106000000Y-97000000D03*
D24*
X106000000Y-108250000D03*
X106000000Y-85750000D03*
D25*
X92000000Y-87400000D03*
D26*
X92000000Y-94600000D03*
D27*
X92000000Y-120500000D03*
D28*
X92000000Y-118000000D03*
X92000000Y-115500000D03*
D27*
X191350000Y-120500000D03*
D28*
X191350000Y-118000000D03*
X191350000Y-115500000D03*
M02*
